{
.appVersion = "1352";
DisplayStrings = (

glyphs = (
{
glyphname = .notdef;
lastChange = "2022-03-02 21:03:53 +0000";
layers = (
{
layerId = "423D2297-FAE2-4393-80D6-0A1E9777D337";
paths = (
{
closed = 1;
nodes = (
"438 0 LINE",
"438 775 LINE",
"63 775 LINE",
"63 0 LINE"
);
},
{
closed = 1;
nodes = (
"251 353 LINE",
"375 63 LINE",
"125 63 LINE"
);
},
{
closed = 1;
nodes = (
"125 635 LINE",
"234 389 LINE",
"125 131 LINE"
);
},
{
closed = 1;
nodes = (
"375 133 LINE",
"267 389 LINE",
"375 632 LINE"
);
},
{
closed = 1;
nodes = (
"125 706 LINE",
"375 706 LINE",
"251 425 LINE"
);
}
);
userData = {
assembly = "NPUSHB[ ]	/* 31 values pushed */\0121 8 8 64 9 2 7 4 5 1 0 6 5 5 3 2 5 4 8 0 7 6 8 1 2 1 3 0 1 0 70 \012SROUND[ ]	/* SuperRound */\012MDAP[1]	/* MoveDirectAbsPt */\012SHZ[1]	/* ShiftZoneByLastPoint */\012RTG[ ]	/* RoundToGrid */\012SVTCA[0]	/* SetFreedomAndProjectionVectorToAxis */\012MDAP[1]	/* MoveDirectAbsPt */\012ALIGNRP[ ]	/* AlignRelativePt */\012MDAP[1]	/* MoveDirectAbsPt */\012ALIGNRP[ ]	/* AlignRelativePt */\012SRP0[ ]	/* SetRefPoint0 */\012MIRP[11101]	/* MoveIndirectRelPt */\012ALIGNRP[ ]	/* AlignRelativePt */\012SRP0[ ]	/* SetRefPoint0 */\012MIRP[11101]	/* MoveIndirectRelPt */\012ALIGNRP[ ]	/* AlignRelativePt */\012SVTCA[1]	/* SetFreedomAndProjectionVectorToAxis */\012MDAP[1]	/* MoveDirectAbsPt */\012ALIGNRP[ ]	/* AlignRelativePt */\012MIRP[11101]	/* MoveIndirectRelPt */\012ALIGNRP[ ]	/* AlignRelativePt */\012MDAP[1]	/* MoveDirectAbsPt */\012ALIGNRP[ ]	/* AlignRelativePt */\012MIRP[11101]	/* MoveIndirectRelPt */\012ALIGNRP[ ]	/* AlignRelativePt */\012SVTCA[0]	/* SetFreedomAndProjectionVectorToAxis */\012IUP[1]	/* InterpolateUntPts */\012IUP[0]	/* InterpolateUntPts */\012SVTCA[1]	/* SetFreedomAndProjectionVectorToAxis */\012MD[0]	/* MeasureDistance */\012ROUND[00]	/* Round */\012PUSHW[ ]	/* 2 values pushed */\0120 8 \012MD[0]	/* MeasureDistance */\012ROUND[00]	/* Round */\012SUB[ ]	/* Subtract */\012PUSHB[ ]	/* 1 value pushed */\01264 \012GT[ ]	/* GreaterThan */\012IF[ ]	/* If */\012SHPIX[ ]	/* ShiftZoneByPixel */\012SRP1[ ]	/* SetRefPoint1 */\012SHZ[1]	/* ShiftZoneByLastPoint */\012PUSHW[ ]	/* 2 values pushed */\0128 -64 \012SHPIX[ ]	/* ShiftZoneByPixel */\012EIF[ ]	/* EndIf */";
};
width = 500;
}
);
note = .notdef;
},
{
glyphname = A;
lastChange = "2022-03-02 21:03:53 +0000";
layers = (
{
layerId = "423D2297-FAE2-4393-80D6-0A1E9777D337";
paths = (
{
closed = 1;
nodes = (
"404 -91 OFFCURVE",
"522 13 OFFCURVE",
"595 220 CURVE SMOOTH",
"607 254 LINE",
"723 254 LINE",
"698 139 OFFCURVE",
"682 94 OFFCURVE",
"605 0 CURVE",
"629 -1 OFFCURVE",
"649 -3 OFFCURVE",
"711 -17 CURVE SMOOTH",
"730 -22 OFFCURVE",
"747 -25 OFFCURVE",
"760 -25 CURVE SMOOTH",
"789 -25 OFFCURVE",
"803 -12 OFFCURVE",
"803 8 CURVE SMOOTH",
"803 27 OFFCURVE",
"790 42 OFFCURVE",
"783 42 CURVE SMOOTH",
"778 42 OFFCURVE",
"776 39 OFFCURVE",
"776 34 CURVE",
"782 28 OFFCURVE",
"789 18 OFFCURVE",
"789 11 CURVE SMOOTH",
"789 -1 OFFCURVE",
"781 -5 OFFCURVE",
"771 -5 CURVE SMOOTH",
"750 -5 OFFCURVE",
"702 15 OFFCURVE",
"667 15 CURVE SMOOTH",
"658 15 OFFCURVE",
"643 15 OFFCURVE",
"629 11 CURVE",
"717 50 OFFCURVE",
"766 149 OFFCURVE",
"776 276 CURVE SMOOTH",
"785 373 OFFCURVE",
"802 432 OFFCURVE",
"817 480 CURVE",
"829 474 OFFCURVE",
"854 472 OFFCURVE",
"867 472 CURVE SMOOTH",
"894 472 OFFCURVE",
"918 486 OFFCURVE",
"918 514 CURVE SMOOTH",
"918 553 OFFCURVE",
"878 573 OFFCURVE",
"835 573 CURVE SMOOTH",
"806 573 OFFCURVE",
"773 562 OFFCURVE",
"736 538 CURVE",
"632 600 OFFCURVE",
"561 648 OFFCURVE",
"480 648 CURVE SMOOTH",
"347 648 OFFCURVE",
"255 567 OFFCURVE",
"255 442 CURVE SMOOTH",
"255 350 OFFCURVE",
"335 282 OFFCURVE",
"436 282 CURVE SMOOTH",
"523 282 OFFCURVE",
"592 327 OFFCURVE",
"592 404 CURVE SMOOTH",
"592 441 OFFCURVE",
"580 466 OFFCURVE",
"555 480 CURVE SMOOTH",
"548 483 OFFCURVE",
"544 485 OFFCURVE",
"541 485 CURVE SMOOTH",
"536 485 OFFCURVE",
"533 482 OFFCURVE",
"533 478 CURVE SMOOTH",
"533 472 OFFCURVE",
"538 471 OFFCURVE",
"544 468 CURVE",
"563 455 OFFCURVE",
"572 435 OFFCURVE",
"572 407 CURVE SMOOTH",
"572 338 OFFCURVE",
"514 300 OFFCURVE",
"437 300 CURVE SMOOTH",
"346 300 OFFCURVE",
"286 362 OFFCURVE",
"286 449 CURVE SMOOTH",
"286 548 OFFCURVE",
"370 600 OFFCURVE",
"471 600 CURVE SMOOTH",
"537 600 OFFCURVE",
"654 559 OFFCURVE",
"718 522 CURVE",
"667 475 OFFCURVE",
"617 342 OFFCURVE",
"571 217 CURVE SMOOTH",
"501 29 OFFCURVE",
"390 -73 OFFCURVE",
"244 -73 CURVE SMOOTH",
"124 -73 OFFCURVE",
"37 17 OFFCURVE",
"37 127 CURVE SMOOTH",
"37 226 OFFCURVE",
"101 311 OFFCURVE",
"205 311 CURVE SMOOTH",
"286 311 OFFCURVE",
"339 255 OFFCURVE",
"339 180 CURVE SMOOTH",
"339 112 OFFCURVE",
"298 67 OFFCURVE",
"232 67 CURVE SMOOTH",
"219 67 OFFCURVE",
"204 70 OFFCURVE",
"193 79 CURVE SMOOTH",
"188 82 OFFCURVE",
"184 90 OFFCURVE",
"181 90 CURVE SMOOTH",
"178 90 OFFCURVE",
"176 88 OFFCURVE",
"176 84 CURVE SMOOTH",
"176 72 OFFCURVE",
"194 54 OFFCURVE",
"231 54 CURVE SMOOTH",
"308 54 OFFCURVE",
"358 104 OFFCURVE",
"358 180 CURVE SMOOTH",
"358 221 OFFCURVE",
"345 255 OFFCURVE",
"318 283 CURVE SMOOTH",
"289 312 OFFCURVE",
"253 327 OFFCURVE",
"209 327 CURVE SMOOTH",
"91 327 OFFCURVE",
"6 236 OFFCURVE",
"6 122 CURVE SMOOTH",
"6 -2 OFFCURVE",
"107 -91 OFFCURVE",
"243 -91 CURVE SMOOTH"
);
},
{
closed = 1;
nodes = (
"613 275 LINE",
"659 404 OFFCURVE",
"699 483 OFFCURVE",
"734 516 CURVE",
"768 499 OFFCURVE",
"788 490 OFFCURVE",
"795 487 CURVE",
"766 419 OFFCURVE",
"744 349 OFFCURVE",
"729 275 CURVE"
);
},
{
closed = 1;
nodes = (
"849 488 OFFCURVE",
"834 490 OFFCURVE",
"823 494 CURVE",
"827 501 OFFCURVE",
"829 508 OFFCURVE",
"829 514 CURVE SMOOTH",
"829 517 OFFCURVE",
"826 523 OFFCURVE",
"821 523 CURVE SMOOTH",
"812 523 OFFCURVE",
"809 518 OFFCURVE",
"802 503 CURVE",
"751 528 LINE",
"776 547 OFFCURVE",
"803 556 OFFCURVE",
"832 556 CURVE SMOOTH",
"860 556 OFFCURVE",
"898 543 OFFCURVE",
"898 514 CURVE SMOOTH",
"898 496 OFFCURVE",
"882 488 OFFCURVE",
"860 488 CURVE SMOOTH"
);
}
);
userData = {
assembly = "NPUSHB[ ]	/* 68 values pushed */\0121 158 158 64 159 131 154 153 151 150 145 139 138 136 133 127 125 114 107 98 88 78 71 64 61 57 49 39 38 28 22 15 12 2 0 156 153 151 150 147 143 141 135 131 117 111 105 101 94 84 75 68 59 53 45 38 34 26 20 17 10 121 42 10 1 1 45 70 \012SROUND[ ]	/* SuperRound */\012MDAP[1]	/* MoveDirectAbsPt */\012SHZ[1]	/* ShiftZoneByLastPoint */\012RTG[ ]	/* RoundToGrid */\012SVTCA[0]	/* SetFreedomAndProjectionVectorToAxis */\012MIAP[1]	/* MoveIndirectAbsPt */\012MDAP[1]	/* MoveDirectAbsPt */\012MDAP[1]	/* MoveDirectAbsPt */\012SVTCA[1]	/* SetFreedomAndProjectionVectorToAxis */\012MDAP[0]	/* MoveDirectAbsPt */\012MDAP[0]	/* MoveDirectAbsPt */\012MDAP[0]	/* MoveDirectAbsPt */\012MDAP[0]	/* MoveDirectAbsPt */\012MDAP[0]	/* MoveDirectAbsPt */\012MDAP[0]	/* MoveDirectAbsPt */\012MDAP[0]	/* MoveDirectAbsPt */\012MDAP[0]	/* MoveDirectAbsPt */\012MDAP[0]	/* MoveDirectAbsPt */\012MDAP[0]	/* MoveDirectAbsPt */\012MDAP[0]	/* MoveDirectAbsPt */\012MDAP[0]	/* MoveDirectAbsPt */\012MDAP[0]	/* MoveDirectAbsPt */\012MDAP[0]	/* MoveDirectAbsPt */\012MDAP[0]	/* MoveDirectAbsPt */\012MDAP[0]	/* MoveDirectAbsPt */\012MDAP[0]	/* MoveDirectAbsPt */\012MDAP[0]	/* MoveDirectAbsPt */\012MDAP[0]	/* MoveDirectAbsPt */\012MDAP[0]	/* MoveDirectAbsPt */\012MDAP[0]	/* MoveDirectAbsPt */\012MDAP[0]	/* MoveDirectAbsPt */\012MDAP[0]	/* MoveDirectAbsPt */\012MDAP[0]	/* MoveDirectAbsPt */\012MDAP[0]	/* MoveDirectAbsPt */\012MDAP[0]	/* MoveDirectAbsPt */\012SVTCA[0]	/* SetFreedomAndProjectionVectorToAxis */\012MDAP[0]	/* MoveDirectAbsPt */\012MDAP[0]	/* MoveDirectAbsPt */\012MDAP[0]	/* MoveDirectAbsPt */\012MDAP[0]	/* MoveDirectAbsPt */\012MDAP[0]	/* MoveDirectAbsPt */\012MDAP[0]	/* MoveDirectAbsPt */\012MDAP[0]	/* MoveDirectAbsPt */\012MDAP[0]	/* MoveDirectAbsPt */\012MDAP[0]	/* MoveDirectAbsPt */\012MDAP[0]	/* MoveDirectAbsPt */\012MDAP[0]	/* MoveDirectAbsPt */\012MDAP[0]	/* MoveDirectAbsPt */\012MDAP[0]	/* MoveDirectAbsPt */\012MDAP[0]	/* MoveDirectAbsPt */\012MDAP[0]	/* MoveDirectAbsPt */\012MDAP[0]	/* MoveDirectAbsPt */\012MDAP[0]	/* MoveDirectAbsPt */\012MDAP[0]	/* MoveDirectAbsPt */\012MDAP[0]	/* MoveDirectAbsPt */\012MDAP[0]	/* MoveDirectAbsPt */\012MDAP[0]	/* MoveDirectAbsPt */\012MDAP[0]	/* MoveDirectAbsPt */\012MDAP[0]	/* MoveDirectAbsPt */\012MDAP[0]	/* MoveDirectAbsPt */\012MDAP[0]	/* MoveDirectAbsPt */\012MDAP[0]	/* MoveDirectAbsPt */\012MDAP[0]	/* MoveDirectAbsPt */\012MDAP[0]	/* MoveDirectAbsPt */\012MDAP[0]	/* MoveDirectAbsPt */\012IUP[1]	/* InterpolateUntPts */\012IUP[0]	/* InterpolateUntPts */\012SVTCA[1]	/* SetFreedomAndProjectionVectorToAxis */\012MD[0]	/* MeasureDistance */\012ROUND[00]	/* Round */\012PUSHW[ ]	/* 2 values pushed */\01245 158 \012MD[0]	/* MeasureDistance */\012ROUND[00]	/* Round */\012SUB[ ]	/* Subtract */\012PUSHB[ ]	/* 1 value pushed */\01264 \012GT[ ]	/* GreaterThan */\012IF[ ]	/* If */\012SHPIX[ ]	/* ShiftZoneByPixel */\012SRP1[ ]	/* SetRefPoint1 */\012SHZ[1]	/* ShiftZoneByLastPoint */\012PUSHW[ ]	/* 2 values pushed */\012158 -64 \012SHPIX[ ]	/* ShiftZoneByPixel */\012EIF[ ]	/* EndIf */";
};
width = 852;
}
);
note = A;
unicode = 0041;
},
{
glyphname = AE;
lastChange = "2022-03-02 21:03:53 +0000";
layers = (
{
layerId = "423D2297-FAE2-4393-80D6-0A1E9777D337";
paths = (
{
closed = 1;
nodes = (
"404 -91 OFFCURVE",
"522 13 OFFCURVE",
"595 220 CURVE SMOOTH",
"607 254 LINE",
"723 254 LINE",
"698 139 OFFCURVE",
"682 94 OFFCURVE",
"605 0 CURVE",
"629 -1 OFFCURVE",
"649 -3 OFFCURVE",
"711 -17 CURVE SMOOTH",
"730 -22 OFFCURVE",
"747 -25 OFFCURVE",
"760 -25 CURVE SMOOTH",
"789 -25 OFFCURVE",
"803 -12 OFFCURVE",
"803 8 CURVE SMOOTH",
"803 14 OFFCURVE",
"799 17 OFFCURVE",
"796 17 CURVE SMOOTH",
"792 17 OFFCURVE",
"789 14 OFFCURVE",
"789 11 CURVE SMOOTH",
"789 -1 OFFCURVE",
"781 -5 OFFCURVE",
"771 -5 CURVE SMOOTH",
"750 -5 OFFCURVE",
"702 15 OFFCURVE",
"667 15 CURVE SMOOTH",
"658 15 OFFCURVE",
"649 15 OFFCURVE",
"635 11 CURVE",
"685 41 OFFCURVE",
"719 72 OFFCURVE",
"743 108 CURVE",
"779 12 OFFCURVE",
"884 -39 OFFCURVE",
"1008 -39 CURVE SMOOTH",
"1142 -39 OFFCURVE",
"1261 37 OFFCURVE",
"1261 171 CURVE SMOOTH",
"1261 252 OFFCURVE",
"1209 309 OFFCURVE",
"1126 309 CURVE SMOOTH",
"1087 309 OFFCURVE",
"1051 283 OFFCURVE",
"1051 246 CURVE SMOOTH",
"1051 225 OFFCURVE",
"1060 216 OFFCURVE",
"1070 216 CURVE SMOOTH",
"1075 216 OFFCURVE",
"1078 218 OFFCURVE",
"1078 222 CURVE SMOOTH",
"1078 223 OFFCURVE",
"1078 223 OFFCURVE",
"1077 223 CURVE SMOOTH",
"1071 223 OFFCURVE",
"1064 227 OFFCURVE",
"1064 240 CURVE SMOOTH",
"1064 271 OFFCURVE",
"1089 292 OFFCURVE",
"1128 292 CURVE SMOOTH",
"1191 292 OFFCURVE",
"1228 241 OFFCURVE",
"1228 177 CURVE SMOOTH",
"1228 50 OFFCURVE",
"1126 -24 OFFCURVE",
"996 -24 CURVE SMOOTH",
"878 -24 OFFCURVE",
"782 59 OFFCURVE",
"782 173 CURVE SMOOTH",
"782 273 OFFCURVE",
"830 367 OFFCURVE",
"919 399 CURVE",
"950 377 OFFCURVE",
"981 362 OFFCURVE",
"1022 362 CURVE SMOOTH",
"1053 362 OFFCURVE",
"1078 375 OFFCURVE",
"1078 395 CURVE SMOOTH",
"1078 415 OFFCURVE",
"1057 428 OFFCURVE",
"1011 428 CURVE SMOOTH",
"988 428 OFFCURVE",
"960 424 OFFCURVE",
"941 419 CURVE",
"924 440 OFFCURVE",
"915 467 OFFCURVE",
"915 500 CURVE SMOOTH",
"915 579 OFFCURVE",
"963 632 OFFCURVE",
"1040 632 CURVE SMOOTH",
"1092 632 OFFCURVE",
"1140 598 OFFCURVE",
"1140 546 CURVE SMOOTH",
"1140 518 OFFCURVE",
"1120 492 OFFCURVE",
"1095 492 CURVE SMOOTH",
"1079 492 OFFCURVE",
"1065 507 OFFCURVE",
"1060 520 CURVE SMOOTH",
"1057 527 OFFCURVE",
"1056 530 OFFCURVE",
"1052 530 CURVE SMOOTH",
"1049 530 OFFCURVE",
"1047 529 OFFCURVE",
"1047 522 CURVE SMOOTH",
"1047 503 OFFCURVE",
"1064 479 OFFCURVE",
"1094 479 CURVE SMOOTH",
"1134 479 OFFCURVE",
"1164 512 OFFCURVE",
"1164 548 CURVE SMOOTH",
"1164 609 OFFCURVE",
"1100 645 OFFCURVE",
"1035 645 CURVE SMOOTH",
"967 645 OFFCURVE",
"904 617 OFFCURVE",
"879 563 CURVE",
"867 570 OFFCURVE",
"852 573 OFFCURVE",
"835 573 CURVE SMOOTH",
"806 573 OFFCURVE",
"773 562 OFFCURVE",
"736 538 CURVE",
"632 600 OFFCURVE",
"561 648 OFFCURVE",
"480 648 CURVE SMOOTH",
"347 648 OFFCURVE",
"255 567 OFFCURVE",
"255 442 CURVE SMOOTH",
"255 350 OFFCURVE",
"335 282 OFFCURVE",
"436 282 CURVE SMOOTH",
"523 282 OFFCURVE",
"592 327 OFFCURVE",
"592 404 CURVE SMOOTH",
"592 441 OFFCURVE",
"580 466 OFFCURVE",
"555 480 CURVE SMOOTH",
"548 483 OFFCURVE",
"544 485 OFFCURVE",
"541 485 CURVE SMOOTH",
"536 485 OFFCURVE",
"533 482 OFFCURVE",
"533 478 CURVE SMOOTH",
"533 472 OFFCURVE",
"538 471 OFFCURVE",
"544 468 CURVE",
"563 455 OFFCURVE",
"572 435 OFFCURVE",
"572 407 CURVE SMOOTH",
"572 338 OFFCURVE",
"514 300 OFFCURVE",
"437 300 CURVE SMOOTH",
"346 300 OFFCURVE",
"286 362 OFFCURVE",
"286 449 CURVE SMOOTH",
"286 548 OFFCURVE",
"370 600 OFFCURVE",
"471 600 CURVE SMOOTH",
"537 600 OFFCURVE",
"654 559 OFFCURVE",
"718 522 CURVE",
"667 475 OFFCURVE",
"617 342 OFFCURVE",
"571 217 CURVE SMOOTH",
"501 29 OFFCURVE",
"390 -73 OFFCURVE",
"244 -73 CURVE SMOOTH",
"124 -73 OFFCURVE",
"37 17 OFFCURVE",
"37 127 CURVE SMOOTH",
"37 226 OFFCURVE",
"101 311 OFFCURVE",
"205 311 CURVE SMOOTH",
"286 311 OFFCURVE",
"339 255 OFFCURVE",
"339 180 CURVE SMOOTH",
"339 112 OFFCURVE",
"298 67 OFFCURVE",
"232 67 CURVE SMOOTH",
"219 67 OFFCURVE",
"204 70 OFFCURVE",
"193 79 CURVE SMOOTH",
"188 82 OFFCURVE",
"184 90 OFFCURVE",
"181 90 CURVE SMOOTH",
"178 90 OFFCURVE",
"176 88 OFFCURVE",
"176 84 CURVE SMOOTH",
"176 72 OFFCURVE",
"194 54 OFFCURVE",
"231 54 CURVE SMOOTH",
"308 54 OFFCURVE",
"358 104 OFFCURVE",
"358 180 CURVE SMOOTH",
"358 221 OFFCURVE",
"345 255 OFFCURVE",
"318 283 CURVE SMOOTH",
"289 312 OFFCURVE",
"253 327 OFFCURVE",
"209 327 CURVE SMOOTH",
"91 327 OFFCURVE",
"6 236 OFFCURVE",
"6 122 CURVE SMOOTH",
"6 -2 OFFCURVE",
"107 -91 OFFCURVE",
"243 -91 CURVE SMOOTH"
);
},
{
closed = 1;
nodes = (
"613 275 LINE",
"659 404 OFFCURVE",
"699 483 OFFCURVE",
"734 516 CURVE",
"768 499 OFFCURVE",
"788 490 OFFCURVE",
"795 487 CURVE",
"766 419 OFFCURVE",
"744 349 OFFCURVE",
"729 275 CURVE"
);
},
{
closed = 1;
nodes = (
"804 403 OFFCURVE",
"811 442 OFFCURVE",
"822 477 CURVE",
"839 474 OFFCURVE",
"854 472 OFFCURVE",
"867 472 CURVE SMOOTH",
"871 472 LINE",
"877 448 OFFCURVE",
"889 427 OFFCURVE",
"907 409 CURVE",
"864 395 OFFCURVE",
"826 374 OFFCURVE",
"797 346 CURVE"
);
},
{
closed = 1;
nodes = (
"849 488 OFFCURVE",
"837 489 OFFCURVE",
"826 493 CURVE",
"830 500 OFFCURVE",
"832 507 OFFCURVE",
"832 513 CURVE SMOOTH",
"832 520 OFFCURVE",
"829 524 OFFCURVE",
"824 524 CURVE SMOOTH",
"815 524 OFFCURVE",
"809 518 OFFCURVE",
"802 503 CURVE",
"751 528 LINE",
"776 547 OFFCURVE",
"803 556 OFFCURVE",
"832 556 CURVE SMOOTH",
"845 556 OFFCURVE",
"860 553 OFFCURVE",
"873 547 CURVE",
"869 535 OFFCURVE",
"867 522 OFFCURVE",
"867 508 CURVE SMOOTH",
"867 501 OFFCURVE",
"867 495 OFFCURVE",
"868 488 CURVE",
"860 488 LINE SMOOTH"
);
},
{
closed = 1;
nodes = (
"993 375 OFFCURVE",
"971 387 OFFCURVE",
"950 407 CURVE",
"971 412 OFFCURVE",
"991 415 OFFCURVE",
"1011 415 CURVE SMOOTH",
"1040 415 OFFCURVE",
"1060 408 OFFCURVE",
"1060 394 CURVE SMOOTH",
"1060 383 OFFCURVE",
"1043 375 OFFCURVE",
"1022 375 CURVE SMOOTH"
);
}
);
userData = {
assembly = "NPUSHB[ ]	/* 100 values pushed */\0121 240 240 64 241 228 236 232 225 220 210 203 195 193 189 187 182 176 172 168 159 157 155 144 137 128 118 108 101 94 91 87 79 69 68 58 52 45 42 38 34 32 30 29 25 23 17 16 14 11 3 2 0 238 234 228 222 218 214 207 199 191 185 179 170 165 147 141 135 131 124 114 105 98 89 83 75 68 64 56 50 47 40 27 25 21 19 13 9 5 2 151 72 161 3 40 1 1 75 70 \012SROUND[ ]	/* SuperRound */\012MDAP[1]	/* MoveDirectAbsPt */\012SHZ[1]	/* ShiftZoneByLastPoint */\012RTG[ ]	/* RoundToGrid */\012SVTCA[0]	/* SetFreedomAndProjectionVectorToAxis */\012MIAP[1]	/* MoveIndirectAbsPt */\012MIAP[1]	/* MoveIndirectAbsPt */\012MDAP[1]	/* MoveDirectAbsPt */\012MDAP[1]	/* MoveDirectAbsPt */\012SVTCA[1]	/* SetFreedomAndProjectionVectorToAxis */\012MDAP[0]	/* MoveDirectAbsPt */\012MDAP[0]	/* MoveDirectAbsPt */\012MDAP[0]	/* MoveDirectAbsPt */\012MDAP[0]	/* MoveDirectAbsPt */\012MDAP[0]	/* MoveDirectAbsPt */\012MDAP[0]	/* MoveDirectAbsPt */\012MDAP[0]	/* MoveDirectAbsPt */\012MDAP[0]	/* MoveDirectAbsPt */\012MDAP[0]	/* MoveDirectAbsPt */\012MDAP[0]	/* MoveDirectAbsPt */\012MDAP[0]	/* MoveDirectAbsPt */\012MDAP[0]	/* MoveDirectAbsPt */\012MDAP[0]	/* MoveDirectAbsPt */\012MDAP[0]	/* MoveDirectAbsPt */\012MDAP[0]	/* MoveDirectAbsPt */\012MDAP[0]	/* MoveDirectAbsPt */\012MDAP[0]	/* MoveDirectAbsPt */\012MDAP[0]	/* MoveDirectAbsPt */\012MDAP[0]	/* MoveDirectAbsPt */\012MDAP[0]	/* MoveDirectAbsPt */\012MDAP[0]	/* MoveDirectAbsPt */\012MDAP[0]	/* MoveDirectAbsPt */\012MDAP[0]	/* MoveDirectAbsPt */\012MDAP[0]	/* MoveDirectAbsPt */\012MDAP[0]	/* MoveDirectAbsPt */\012MDAP[0]	/* MoveDirectAbsPt */\012MDAP[0]	/* MoveDirectAbsPt */\012MDAP[0]	/* MoveDirectAbsPt */\012MDAP[0]	/* MoveDirectAbsPt */\012MDAP[0]	/* MoveDirectAbsPt */\012MDAP[0]	/* MoveDirectAbsPt */\012MDAP[0]	/* MoveDirectAbsPt */\012MDAP[0]	/* MoveDirectAbsPt */\012MDAP[0]	/* MoveDirectAbsPt */\012MDAP[0]	/* MoveDirectAbsPt */\012MDAP[0]	/* MoveDirectAbsPt */\012MDAP[0]	/* MoveDirectAbsPt */\012MDAP[0]	/* MoveDirectAbsPt */\012SVTCA[0]	/* SetFreedomAndProjectionVectorToAxis */\012MDAP[0]	/* MoveDirectAbsPt */\012MDAP[0]	/* MoveDirectAbsPt */\012MDAP[0]	/* MoveDirectAbsPt */\012MDAP[0]	/* MoveDirectAbsPt */\012MDAP[0]	/* MoveDirectAbsPt */\012MDAP[0]	/* MoveDirectAbsPt */\012MDAP[0]	/* MoveDirectAbsPt */\012MDAP[0]	/* MoveDirectAbsPt */\012MDAP[0]	/* MoveDirectAbsPt */\012MDAP[0]	/* MoveDirectAbsPt */\012MDAP[0]	/* MoveDirectAbsPt */\012MDAP[0]	/* MoveDirectAbsPt */\012MDAP[0]	/* MoveDirectAbsPt */\012MDAP[0]	/* MoveDirectAbsPt */\012MDAP[0]	/* MoveDirectAbsPt */\012MDAP[0]	/* MoveDirectAbsPt */\012MDAP[0]	/* MoveDirectAbsPt */\012MDAP[0]	/* MoveDirectAbsPt */\012MDAP[0]	/* MoveDirectAbsPt */\012MDAP[0]	/* MoveDirectAbsPt */\012MDAP[0]	/* MoveDirectAbsPt */\012MDAP[0]	/* MoveDirectAbsPt */\012MDAP[0]	/* MoveDirectAbsPt */\012MDAP[0]	/* MoveDirectAbsPt */\012MDAP[0]	/* MoveDirectAbsPt */\012MDAP[0]	/* MoveDirectAbsPt */\012MDAP[0]	/* MoveDirectAbsPt */\012MDAP[0]	/* MoveDirectAbsPt */\012MDAP[0]	/* MoveDirectAbsPt */\012MDAP[0]	/* MoveDirectAbsPt */\012MDAP[0]	/* MoveDirectAbsPt */\012MDAP[0]	/* MoveDirectAbsPt */\012MDAP[0]	/* MoveDirectAbsPt */\012MDAP[0]	/* MoveDirectAbsPt */\012MDAP[0]	/* MoveDirectAbsPt */\012MDAP[0]	/* MoveDirectAbsPt */\012MDAP[0]	/* MoveDirectAbsPt */\012MDAP[0]	/* MoveDirectAbsPt */\012MDAP[0]	/* MoveDirectAbsPt */\012MDAP[0]	/* MoveDirectAbsPt */\012MDAP[0]	/* MoveDirectAbsPt */\012MDAP[0]	/* MoveDirectAbsPt */\012MDAP[0]	/* MoveDirectAbsPt */\012MDAP[0]	/* MoveDirectAbsPt */\012MDAP[0]	/* MoveDirectAbsPt */\012MDAP[0]	/* MoveDirectAbsPt */\012MDAP[0]	/* MoveDirectAbsPt */\012IUP[1]	/* InterpolateUntPts */\012IUP[0]	/* InterpolateUntPts */\012SVTCA[1]	/* SetFreedomAndProjectionVectorToAxis */\012MD[0]	/* MeasureDistance */\012ROUND[00]	/* Round */\012PUSHW[ ]	/* 2 values pushed */\01275 240 \012MD[0]	/* MeasureDistance */\012ROUND[00]	/* Round */\012SUB[ ]	/* Subtract */\012PUSHB[ ]	/* 1 value pushed */\01264 \012GT[ ]	/* GreaterThan */\012IF[ ]	/* If */\012SHPIX[ ]	/* ShiftZoneByPixel */\012SRP1[ ]	/* SetRefPoint1 */\012SHZ[1]	/* ShiftZoneByLastPoint */\012PUSHW[ ]	/* 2 values pushed */\012240 -64 \012SHPIX[ ]	/* ShiftZoneByPixel */\012EIF[ ]	/* EndIf */";
};
width = 1275;
}
);
note = AE;
unicode = 00C6;
},
{
glyphname = B;
lastChange = "2022-03-02 21:03:53 +0000";
layers = (
{
layerId = "423D2297-FAE2-4393-80D6-0A1E9777D337";
paths = (
{
closed = 1;
nodes = (
"177 -40 OFFCURVE",
"212 -29 OFFCURVE",
"258 8 CURVE",
"315 -12 OFFCURVE",
"363 -22 OFFCURVE",
"402 -22 CURVE SMOOTH",
"524 -22 OFFCURVE",
"631 56 OFFCURVE",
"631 175 CURVE SMOOTH",
"631 278 OFFCURVE",
"541 339 OFFCURVE",
"432 349 CURVE",
"510 350 OFFCURVE",
"593 418 OFFCURVE",
"593 498 CURVE SMOOTH",
"593 563 OFFCURVE",
"551 611 OFFCURVE",
"468 640 CURVE",
"486 665 OFFCURVE",
"512 674 OFFCURVE",
"534 674 CURVE SMOOTH",
"540 674 OFFCURVE",
"548 673 OFFCURVE",
"559 672 CURVE SMOOTH",
"563 672 OFFCURVE",
"566 674 OFFCURVE",
"566 678 CURVE SMOOTH",
"566 684 OFFCURVE",
"558 687 OFFCURVE",
"537 687 CURVE SMOOTH",
"507 687 OFFCURVE",
"478 674 OFFCURVE",
"450 647 CURVE",
"412 660 OFFCURVE",
"368 666 OFFCURVE",
"317 666 CURVE SMOOTH",
"147 666 OFFCURVE",
"0 562 OFFCURVE",
"0 392 CURVE SMOOTH",
"0 305 OFFCURVE",
"50 224 OFFCURVE",
"147 224 CURVE SMOOTH",
"234 224 OFFCURVE",
"299 285 OFFCURVE",
"299 380 CURVE SMOOTH",
"299 442 OFFCURVE",
"269 505 OFFCURVE",
"206 505 CURVE SMOOTH",
"156 505 OFFCURVE",
"125 467 OFFCURVE",
"122 434 CURVE SMOOTH",
"119 404 OFFCURVE",
"132 381 OFFCURVE",
"158 381 CURVE SMOOTH",
"169 381 OFFCURVE",
"174 388 OFFCURVE",
"174 391 CURVE SMOOTH",
"174 393 OFFCURVE",
"173 394 OFFCURVE",
"172 394 CURVE SMOOTH",
"171 394 LINE",
"168 391 OFFCURVE",
"164 390 OFFCURVE",
"159 390 CURVE SMOOTH",
"144 390 OFFCURVE",
"134 404 OFFCURVE",
"134 424 CURVE SMOOTH",
"134 453 OFFCURVE",
"156 493 OFFCURVE",
"204 493 CURVE SMOOTH",
"253 493 OFFCURVE",
"276 441 OFFCURVE",
"276 388 CURVE SMOOTH",
"276 308 OFFCURVE",
"227 240 OFFCURVE",
"154 240 CURVE SMOOTH",
"82 240 OFFCURVE",
"41 317 OFFCURVE",
"41 394 CURVE SMOOTH",
"41 542 OFFCURVE",
"161 652 OFFCURVE",
"320 652 CURVE SMOOTH",
"364 652 OFFCURVE",
"403 646 OFFCURVE",
"437 634 CURVE",
"388 578 OFFCURVE",
"353 483 OFFCURVE",
"330 349 CURVE SMOOTH",
"314 253 OFFCURVE",
"304 198 OFFCURVE",
"300 183 CURVE SMOOTH",
"285 114 OFFCURVE",
"265 63 OFFCURVE",
"242 29 CURVE",
"189 51 OFFCURVE",
"146 63 OFFCURVE",
"121 63 CURVE SMOOTH",
"82 63 OFFCURVE",
"65 33 OFFCURVE",
"65 12 CURVE SMOOTH",
"65 -15 OFFCURVE",
"87 -40 OFFCURVE",
"136 -40 CURVE SMOOTH"
);
},
{
closed = 1;
nodes = (
"107 -26 OFFCURVE",
"87 -16 OFFCURVE",
"87 5 CURVE SMOOTH",
"87 30 OFFCURVE",
"105 42 OFFCURVE",
"140 42 CURVE SMOOTH",
"161 42 OFFCURVE",
"191 34 OFFCURVE",
"232 19 CURVE",
"209 -11 OFFCURVE",
"180 -26 OFFCURVE",
"146 -26 CURVE SMOOTH"
);
},
{
closed = 1;
nodes = (
"350 -2 OFFCURVE",
"314 5 OFFCURVE",
"272 20 CURVE",
"311 56 OFFCURVE",
"338 106 OFFCURVE",
"354 170 CURVE SMOOTH",
"360 193 OFFCURVE",
"369 251 OFFCURVE",
"380 342 CURVE",
"480 336 OFFCURVE",
"573 290 OFFCURVE",
"573 194 CURVE SMOOTH",
"573 77 OFFCURVE",
"496 -2 OFFCURVE",
"380 -2 CURVE SMOOTH"
);
},
{
closed = 1;
nodes = (
"381 359 OFFCURVE",
"381 365 OFFCURVE",
"382 370 CURVE SMOOTH",
"397 487 OFFCURVE",
"422 573 OFFCURVE",
"457 626 CURVE",
"518 599 OFFCURVE",
"548 554 OFFCURVE",
"548 493 CURVE SMOOTH",
"548 413 OFFCURVE",
"451 353 OFFCURVE",
"381 353 CURVE"
);
}
);
userData = {
assembly = "NPUSHB[ ]	/* 61 values pushed */\0121 132 132 64 133 0 130 126 117 111 110 103 89 85 77 69 62 56 52 50 44 35 25 17 15 6 128 124 120 115 111 110 108 104 103 101 97 93 91 83 73 66 59 54 47 40 31 23 13 0 81 11 108 2 79 3 4 1 1 73 70 \012SROUND[ ]	/* SuperRound */\012MDAP[1]	/* MoveDirectAbsPt */\012SHZ[1]	/* ShiftZoneByLastPoint */\012RTG[ ]	/* RoundToGrid */\012SVTCA[0]	/* SetFreedomAndProjectionVectorToAxis */\012MIAP[1]	/* MoveIndirectAbsPt */\012MIAP[1]	/* MoveIndirectAbsPt */\012MIAP[1]	/* MoveIndirectAbsPt */\012MDAP[1]	/* MoveDirectAbsPt */\012MDAP[1]	/* MoveDirectAbsPt */\012SVTCA[1]	/* SetFreedomAndProjectionVectorToAxis */\012MDAP[0]	/* MoveDirectAbsPt */\012MDAP[0]	/* MoveDirectAbsPt */\012MDAP[0]	/* MoveDirectAbsPt */\012MDAP[0]	/* MoveDirectAbsPt */\012MDAP[0]	/* MoveDirectAbsPt */\012MDAP[0]	/* MoveDirectAbsPt */\012MDAP[0]	/* MoveDirectAbsPt */\012MDAP[0]	/* MoveDirectAbsPt */\012MDAP[0]	/* MoveDirectAbsPt */\012MDAP[0]	/* MoveDirectAbsPt */\012MDAP[0]	/* MoveDirectAbsPt */\012MDAP[0]	/* MoveDirectAbsPt */\012MDAP[0]	/* MoveDirectAbsPt */\012MDAP[0]	/* MoveDirectAbsPt */\012MDAP[0]	/* MoveDirectAbsPt */\012MDAP[0]	/* MoveDirectAbsPt */\012MDAP[0]	/* MoveDirectAbsPt */\012MDAP[0]	/* MoveDirectAbsPt */\012MDAP[0]	/* MoveDirectAbsPt */\012MDAP[0]	/* MoveDirectAbsPt */\012MDAP[0]	/* MoveDirectAbsPt */\012MDAP[0]	/* MoveDirectAbsPt */\012MDAP[0]	/* MoveDirectAbsPt */\012MDAP[0]	/* MoveDirectAbsPt */\012SVTCA[0]	/* SetFreedomAndProjectionVectorToAxis */\012MDAP[0]	/* MoveDirectAbsPt */\012MDAP[0]	/* MoveDirectAbsPt */\012MDAP[0]	/* MoveDirectAbsPt */\012MDAP[0]	/* MoveDirectAbsPt */\012MDAP[0]	/* MoveDirectAbsPt */\012MDAP[0]	/* MoveDirectAbsPt */\012MDAP[0]	/* MoveDirectAbsPt */\012MDAP[0]	/* MoveDirectAbsPt */\012MDAP[0]	/* MoveDirectAbsPt */\012MDAP[0]	/* MoveDirectAbsPt */\012MDAP[0]	/* MoveDirectAbsPt */\012MDAP[0]	/* MoveDirectAbsPt */\012MDAP[0]	/* MoveDirectAbsPt */\012MDAP[0]	/* MoveDirectAbsPt */\012MDAP[0]	/* MoveDirectAbsPt */\012MDAP[0]	/* MoveDirectAbsPt */\012MDAP[0]	/* MoveDirectAbsPt */\012MDAP[0]	/* MoveDirectAbsPt */\012MDAP[0]	/* MoveDirectAbsPt */\012MDAP[0]	/* MoveDirectAbsPt */\012IUP[1]	/* InterpolateUntPts */\012IUP[0]	/* InterpolateUntPts */\012SVTCA[1]	/* SetFreedomAndProjectionVectorToAxis */\012MD[0]	/* MeasureDistance */\012ROUND[00]	/* Round */\012PUSHW[ ]	/* 2 values pushed */\01273 132 \012MD[0]	/* MeasureDistance */\012ROUND[00]	/* Round */\012SUB[ ]	/* Subtract */\012PUSHB[ ]	/* 1 value pushed */\01264 \012GT[ ]	/* GreaterThan */\012IF[ ]	/* If */\012SHPIX[ ]	/* ShiftZoneByPixel */\012SRP1[ ]	/* SetRefPoint1 */\012SHZ[1]	/* ShiftZoneByLastPoint */\012PUSHW[ ]	/* 2 values pushed */\012132 -64 \012SHPIX[ ]	/* ShiftZoneByPixel */\012EIF[ ]	/* EndIf */";
};
width = 675;
}
);
note = B;
unicode = 0042;
},
{
glyphname = C;
lastChange = "2022-03-02 21:03:53 +0000";
layers = (
{
layerId = "423D2297-FAE2-4393-80D6-0A1E9777D337";
paths = (
{
closed = 1;
nodes = (
"500 -44 OFFCURVE",
"634 21 OFFCURVE",
"634 133 CURVE SMOOTH",
"634 190 OFFCURVE",
"593 234 OFFCURVE",
"536 234 CURVE SMOOTH",
"501 234 OFFCURVE",
"474 211 OFFCURVE",
"474 176 CURVE SMOOTH",
"474 158 OFFCURVE",
"478 150 OFFCURVE",
"484 150 CURVE SMOOTH",
"487 150 OFFCURVE",
"490 153 OFFCURVE",
"490 160 CURVE SMOOTH",
"490 164 OFFCURVE",
"489 171 OFFCURVE",
"489 176 CURVE SMOOTH",
"489 197 OFFCURVE",
"515 213 OFFCURVE",
"536 213 CURVE SMOOTH",
"576 213 OFFCURVE",
"597 176 OFFCURVE",
"597 134 CURVE SMOOTH",
"597 37 OFFCURVE",
"504 -26 OFFCURVE",
"386 -26 CURVE SMOOTH",
"227 -26 OFFCURVE",
"134 85 OFFCURVE",
"134 261 CURVE SMOOTH",
"134 282 OFFCURVE",
"136 306 OFFCURVE",
"139 331 CURVE",
"185 311 OFFCURVE",
"253 297 OFFCURVE",
"333 297 CURVE SMOOTH",
"475 297 OFFCURVE",
"645 369 OFFCURVE",
"645 507 CURVE SMOOTH",
"645 599 OFFCURVE",
"559 635 OFFCURVE",
"453 635 CURVE SMOOTH",
"293 635 OFFCURVE",
"149 548 OFFCURVE",
"93 392 CURVE",
"44 434 OFFCURVE",
"20 482 OFFCURVE",
"20 528 CURVE SMOOTH",
"20 612 OFFCURVE",
"93 692 OFFCURVE",
"193 692 CURVE SMOOTH",
"295 692 OFFCURVE",
"356 638 OFFCURVE",
"356 547 CURVE SMOOTH",
"356 508 OFFCURVE",
"333 451 OFFCURVE",
"284 451 CURVE SMOOTH",
"280 451 OFFCURVE",
"278 449 OFFCURVE",
"278 446 CURVE SMOOTH",
"278 442 OFFCURVE",
"282 438 OFFCURVE",
"288 438 CURVE SMOOTH",
"342 438 OFFCURVE",
"375 496 OFFCURVE",
"375 549 CURVE SMOOTH",
"375 665 OFFCURVE",
"285 710 OFFCURVE",
"195 710 CURVE SMOOTH",
"54 710 OFFCURVE",
"-12 623 OFFCURVE",
"-12 523 CURVE SMOOTH",
"-12 464 OFFCURVE",
"15 410 OFFCURVE",
"86 363 CURVE",
"76 331 OFFCURVE",
"71 298 OFFCURVE",
"71 265 CURVE SMOOTH",
"71 84 OFFCURVE",
"200 -44 OFFCURVE",
"383 -44 CURVE SMOOTH"
);
},
{
closed = 1;
nodes = (
"263 317 OFFCURVE",
"188 333 OFFCURVE",
"142 357 CURVE",
"172 516 OFFCURVE",
"286 616 OFFCURVE",
"444 616 CURVE SMOOTH",
"528 616 OFFCURVE",
"599 565 OFFCURVE",
"599 487 CURVE SMOOTH",
"599 376 OFFCURVE",
"459 317 OFFCURVE",
"329 317 CURVE SMOOTH"
);
}
);
userData = {
assembly = "NPUSHB[ ]	/* 44 values pushed */\0121 100 100 64 101 53 94 90 80 76 67 59 47 28 23 15 7 2 0 98 92 86 78 74 69 63 61 53 42 40 38 31 25 21 18 11 4 45 35 49 3 1 42 70 \012SROUND[ ]	/* SuperRound */\012MDAP[1]	/* MoveDirectAbsPt */\012SHZ[1]	/* ShiftZoneByLastPoint */\012RTG[ ]	/* RoundToGrid */\012SVTCA[0]	/* SetFreedomAndProjectionVectorToAxis */\012MIAP[1]	/* MoveIndirectAbsPt */\012MDAP[1]	/* MoveDirectAbsPt */\012MDAP[1]	/* MoveDirectAbsPt */\012SVTCA[1]	/* SetFreedomAndProjectionVectorToAxis */\012MDAP[0]	/* MoveDirectAbsPt */\012MDAP[0]	/* MoveDirectAbsPt */\012MDAP[0]	/* MoveDirectAbsPt */\012MDAP[0]	/* MoveDirectAbsPt */\012MDAP[0]	/* MoveDirectAbsPt */\012MDAP[0]	/* MoveDirectAbsPt */\012MDAP[0]	/* MoveDirectAbsPt */\012MDAP[0]	/* MoveDirectAbsPt */\012MDAP[0]	/* MoveDirectAbsPt */\012MDAP[0]	/* MoveDirectAbsPt */\012MDAP[0]	/* MoveDirectAbsPt */\012MDAP[0]	/* MoveDirectAbsPt */\012MDAP[0]	/* MoveDirectAbsPt */\012MDAP[0]	/* MoveDirectAbsPt */\012MDAP[0]	/* MoveDirectAbsPt */\012MDAP[0]	/* MoveDirectAbsPt */\012MDAP[0]	/* MoveDirectAbsPt */\012MDAP[0]	/* MoveDirectAbsPt */\012SVTCA[0]	/* SetFreedomAndProjectionVectorToAxis */\012MDAP[0]	/* MoveDirectAbsPt */\012MDAP[0]	/* MoveDirectAbsPt */\012MDAP[0]	/* MoveDirectAbsPt */\012MDAP[0]	/* MoveDirectAbsPt */\012MDAP[0]	/* MoveDirectAbsPt */\012MDAP[0]	/* MoveDirectAbsPt */\012MDAP[0]	/* MoveDirectAbsPt */\012MDAP[0]	/* MoveDirectAbsPt */\012MDAP[0]	/* MoveDirectAbsPt */\012MDAP[0]	/* MoveDirectAbsPt */\012MDAP[0]	/* MoveDirectAbsPt */\012MDAP[0]	/* MoveDirectAbsPt */\012MDAP[0]	/* MoveDirectAbsPt */\012IUP[1]	/* InterpolateUntPts */\012IUP[0]	/* InterpolateUntPts */\012SVTCA[1]	/* SetFreedomAndProjectionVectorToAxis */\012MD[0]	/* MeasureDistance */\012ROUND[00]	/* Round */\012PUSHW[ ]	/* 2 values pushed */\01242 100 \012MD[0]	/* MeasureDistance */\012ROUND[00]	/* Round */\012SUB[ ]	/* Subtract */\012PUSHB[ ]	/* 1 value pushed */\01264 \012GT[ ]	/* GreaterThan */\012IF[ ]	/* If */\012SHPIX[ ]	/* ShiftZoneByPixel */\012SRP1[ ]	/* SetRefPoint1 */\012SHZ[1]	/* ShiftZoneByLastPoint */\012PUSHW[ ]	/* 2 values pushed */\012100 -64 \012SHPIX[ ]	/* ShiftZoneByPixel */\012EIF[ ]	/* EndIf */";
};
width = 703;
}
);
note = C;
unicode = 0043;
},
{
glyphname = D;
lastChange = "2022-03-02 21:03:53 +0000";
layers = (
{
layerId = "423D2297-FAE2-4393-80D6-0A1E9777D337";
paths = (
{
closed = 1;
nodes = (
"184 -41 OFFCURVE",
"203 -26 OFFCURVE",
"239 5 CURVE",
"295 -14 OFFCURVE",
"344 -24 OFFCURVE",
"387 -24 CURVE SMOOTH",
"578 -24 OFFCURVE",
"710 106 OFFCURVE",
"710 297 CURVE SMOOTH",
"710 462 OFFCURVE",
"608 564 OFFCURVE",
"441 606 CURVE",
"459 626 OFFCURVE",
"478 634 OFFCURVE",
"499 634 CURVE SMOOTH",
"502 634 OFFCURVE",
"507 634 OFFCURVE",
"513 633 CURVE SMOOTH",
"519 632 OFFCURVE",
"523 632 OFFCURVE",
"526 632 CURVE SMOOTH",
"529 632 OFFCURVE",
"531 633 OFFCURVE",
"531 636 CURVE SMOOTH",
"531 642 OFFCURVE",
"521 645 OFFCURVE",
"500 645 CURVE SMOOTH",
"474 645 OFFCURVE",
"448 634 OFFCURVE",
"423 612 CURVE",
"382 620 OFFCURVE",
"341 624 OFFCURVE",
"298 624 CURVE SMOOTH",
"139 624 OFFCURVE",
"-3 525 OFFCURVE",
"-3 365 CURVE SMOOTH",
"-3 280 OFFCURVE",
"47 207 OFFCURVE",
"138 207 CURVE SMOOTH",
"216 207 OFFCURVE",
"277 263 OFFCURVE",
"277 351 CURVE SMOOTH",
"277 407 OFFCURVE",
"248 470 OFFCURVE",
"190 470 CURVE SMOOTH",
"149 470 OFFCURVE",
"112 435 OFFCURVE",
"112 392 CURVE SMOOTH",
"112 367 OFFCURVE",
"124 352 OFFCURVE",
"147 352 CURVE SMOOTH",
"154 352 OFFCURVE",
"158 356 OFFCURVE",
"158 358 CURVE SMOOTH",
"158 362 OFFCURVE",
"151 361 OFFCURVE",
"146 361 CURVE SMOOTH",
"132 361 OFFCURVE",
"122 373 OFFCURVE",
"122 392 CURVE SMOOTH",
"122 428 OFFCURVE",
"153 459 OFFCURVE",
"188 459 CURVE SMOOTH",
"233 459 OFFCURVE",
"254 413 OFFCURVE",
"254 363 CURVE SMOOTH",
"254 290 OFFCURVE",
"215 221 OFFCURVE",
"149 221 CURVE SMOOTH",
"77 221 OFFCURVE",
"36 288 OFFCURVE",
"36 367 CURVE SMOOTH",
"36 506 OFFCURVE",
"146 608 OFFCURVE",
"297 608 CURVE SMOOTH",
"332 608 OFFCURVE",
"370 604 OFFCURVE",
"410 595 CURVE",
"330 506 OFFCURVE",
"319 383 OFFCURVE",
"288 205 CURVE SMOOTH",
"273 124 OFFCURVE",
"252 64 OFFCURVE",
"225 25 CURVE",
"197 38 OFFCURVE",
"149 56 OFFCURVE",
"113 56 CURVE SMOOTH",
"80 56 OFFCURVE",
"47 35 OFFCURVE",
"47 8 CURVE SMOOTH",
"47 -26 OFFCURVE",
"93 -41 OFFCURVE",
"130 -41 CURVE SMOOTH"
);
},
{
closed = 1;
nodes = (
"116 -28 OFFCURVE",
"78 -21 OFFCURVE",
"78 3 CURVE SMOOTH",
"78 21 OFFCURVE",
"95 37 OFFCURVE",
"130 37 CURVE SMOOTH",
"150 37 OFFCURVE",
"179 30 OFFCURVE",
"216 15 CURVE",
"192 -14 OFFCURVE",
"166 -28 OFFCURVE",
"137 -28 CURVE SMOOTH"
);
},
{
closed = 1;
nodes = (
"328 -4 OFFCURVE",
"292 3 OFFCURVE",
"253 17 CURVE",
"326 86 OFFCURVE",
"343 202 OFFCURVE",
"353 276 CURVE SMOOTH",
"372 415 OFFCURVE",
"398 542 OFFCURVE",
"430 591 CURVE",
"583 548 OFFCURVE",
"659 450 OFFCURVE",
"659 295 CURVE SMOOTH",
"659 127 OFFCURVE",
"531 -4 OFFCURVE",
"363 -4 CURVE SMOOTH"
);
}
);
userData = {
assembly = "NPUSHB[ ]	/* 55 values pushed */\0121 116 116 64 117 0 114 108 103 94 88 87 85 82 76 74 66 59 54 43 35 25 17 15 5 110 106 101 95 94 92 88 80 63 56 52 46 39 23 11 0 31 5 70 7 78 3 50 48 2 3 1 1 70 70 \012SROUND[ ]	/* SuperRound */\012MDAP[1]	/* MoveDirectAbsPt */\012SHZ[1]	/* ShiftZoneByLastPoint */\012RTG[ ]	/* RoundToGrid */\012SVTCA[0]	/* SetFreedomAndProjectionVectorToAxis */\012MIAP[1]	/* MoveIndirectAbsPt */\012MIAP[1]	/* MoveIndirectAbsPt */\012ALIGNRP[ ]	/* AlignRelativePt */\012MIAP[1]	/* MoveIndirectAbsPt */\012MDAP[1]	/* MoveDirectAbsPt */\012SVTCA[1]	/* SetFreedomAndProjectionVectorToAxis */\012MDAP[1]	/* MoveDirectAbsPt */\012MIRP[11101]	/* MoveIndirectRelPt */\012MDAP[0]	/* MoveDirectAbsPt */\012MDAP[0]	/* MoveDirectAbsPt */\012MDAP[0]	/* MoveDirectAbsPt */\012MDAP[0]	/* MoveDirectAbsPt */\012MDAP[0]	/* MoveDirectAbsPt */\012MDAP[0]	/* MoveDirectAbsPt */\012MDAP[0]	/* MoveDirectAbsPt */\012MDAP[0]	/* MoveDirectAbsPt */\012MDAP[0]	/* MoveDirectAbsPt */\012MDAP[0]	/* MoveDirectAbsPt */\012MDAP[0]	/* MoveDirectAbsPt */\012MDAP[0]	/* MoveDirectAbsPt */\012MDAP[0]	/* MoveDirectAbsPt */\012MDAP[0]	/* MoveDirectAbsPt */\012MDAP[0]	/* MoveDirectAbsPt */\012MDAP[0]	/* MoveDirectAbsPt */\012SVTCA[0]	/* SetFreedomAndProjectionVectorToAxis */\012MDAP[0]	/* MoveDirectAbsPt */\012MDAP[0]	/* MoveDirectAbsPt */\012MDAP[0]	/* MoveDirectAbsPt */\012MDAP[0]	/* MoveDirectAbsPt */\012MDAP[0]	/* MoveDirectAbsPt */\012MDAP[0]	/* MoveDirectAbsPt */\012MDAP[0]	/* MoveDirectAbsPt */\012MDAP[0]	/* MoveDirectAbsPt */\012MDAP[0]	/* MoveDirectAbsPt */\012MDAP[0]	/* MoveDirectAbsPt */\012MDAP[0]	/* MoveDirectAbsPt */\012MDAP[0]	/* MoveDirectAbsPt */\012MDAP[0]	/* MoveDirectAbsPt */\012MDAP[0]	/* MoveDirectAbsPt */\012MDAP[0]	/* MoveDirectAbsPt */\012MDAP[0]	/* MoveDirectAbsPt */\012MDAP[0]	/* MoveDirectAbsPt */\012MDAP[0]	/* MoveDirectAbsPt */\012MDAP[0]	/* MoveDirectAbsPt */\012IUP[1]	/* InterpolateUntPts */\012IUP[0]	/* InterpolateUntPts */\012SVTCA[1]	/* SetFreedomAndProjectionVectorToAxis */\012MD[0]	/* MeasureDistance */\012ROUND[00]	/* Round */\012PUSHW[ ]	/* 2 values pushed */\01270 116 \012MD[0]	/* MeasureDistance */\012ROUND[00]	/* Round */\012SUB[ ]	/* Subtract */\012PUSHB[ ]	/* 1 value pushed */\01264 \012GT[ ]	/* GreaterThan */\012IF[ ]	/* If */\012SHPIX[ ]	/* ShiftZoneByPixel */\012SRP1[ ]	/* SetRefPoint1 */\012SHZ[1]	/* ShiftZoneByLastPoint */\012PUSHW[ ]	/* 2 values pushed */\012116 -64 \012SHPIX[ ]	/* ShiftZoneByPixel */\012EIF[ ]	/* EndIf */";
};
width = 738;
}
);
note = D;
unicode = 0044;
},
{
glyphname = E;
lastChange = "2022-03-02 21:03:53 +0000";
layers = (
{
layerId = "423D2297-FAE2-4393-80D6-0A1E9777D337";
paths = (
{
closed = 1;
nodes = (
"451 -42 OFFCURVE",
"570 34 OFFCURVE",
"570 168 CURVE SMOOTH",
"570 249 OFFCURVE",
"518 306 OFFCURVE",
"435 306 CURVE SMOOTH",
"396 306 OFFCURVE",
"360 280 OFFCURVE",
"360 243 CURVE SMOOTH",
"360 222 OFFCURVE",
"369 213 OFFCURVE",
"379 213 CURVE SMOOTH",
"384 213 OFFCURVE",
"387 215 OFFCURVE",
"387 219 CURVE SMOOTH",
"387 220 OFFCURVE",
"387 220 OFFCURVE",
"386 220 CURVE SMOOTH",
"380 220 OFFCURVE",
"373 224 OFFCURVE",
"373 237 CURVE SMOOTH",
"373 268 OFFCURVE",
"398 289 OFFCURVE",
"437 289 CURVE SMOOTH",
"500 289 OFFCURVE",
"537 238 OFFCURVE",
"537 174 CURVE SMOOTH",
"537 47 OFFCURVE",
"435 -27 OFFCURVE",
"305 -27 CURVE SMOOTH",
"187 -27 OFFCURVE",
"91 56 OFFCURVE",
"91 170 CURVE SMOOTH",
"91 270 OFFCURVE",
"139 364 OFFCURVE",
"228 396 CURVE",
"259 374 OFFCURVE",
"290 359 OFFCURVE",
"331 359 CURVE SMOOTH",
"362 359 OFFCURVE",
"387 372 OFFCURVE",
"387 392 CURVE SMOOTH",
"387 412 OFFCURVE",
"366 425 OFFCURVE",
"320 425 CURVE SMOOTH",
"297 425 OFFCURVE",
"269 421 OFFCURVE",
"250 416 CURVE",
"233 437 OFFCURVE",
"224 464 OFFCURVE",
"224 497 CURVE SMOOTH",
"224 576 OFFCURVE",
"272 629 OFFCURVE",
"349 629 CURVE SMOOTH",
"401 629 OFFCURVE",
"449 595 OFFCURVE",
"449 543 CURVE SMOOTH",
"449 515 OFFCURVE",
"429 489 OFFCURVE",
"404 489 CURVE SMOOTH",
"388 489 OFFCURVE",
"374 504 OFFCURVE",
"369 517 CURVE SMOOTH",
"366 524 OFFCURVE",
"365 527 OFFCURVE",
"361 527 CURVE SMOOTH",
"358 527 OFFCURVE",
"356 526 OFFCURVE",
"356 519 CURVE SMOOTH",
"356 500 OFFCURVE",
"373 476 OFFCURVE",
"403 476 CURVE SMOOTH",
"443 476 OFFCURVE",
"473 509 OFFCURVE",
"473 545 CURVE SMOOTH",
"473 606 OFFCURVE",
"409 642 OFFCURVE",
"344 642 CURVE SMOOTH",
"255 642 OFFCURVE",
"176 594 OFFCURVE",
"176 505 CURVE SMOOTH",
"176 466 OFFCURVE",
"189 433 OFFCURVE",
"216 406 CURVE",
"109 372 OFFCURVE",
"38 292 OFFCURVE",
"38 184 CURVE SMOOTH",
"38 37 OFFCURVE",
"162 -42 OFFCURVE",
"317 -42 CURVE SMOOTH"
);
},
{
closed = 1;
nodes = (
"302 372 OFFCURVE",
"280 384 OFFCURVE",
"259 404 CURVE",
"280 409 OFFCURVE",
"300 412 OFFCURVE",
"320 412 CURVE SMOOTH",
"349 412 OFFCURVE",
"369 405 OFFCURVE",
"369 391 CURVE SMOOTH",
"369 380 OFFCURVE",
"352 372 OFFCURVE",
"331 372 CURVE SMOOTH"
);
}
);
userData = {
assembly = "NPUSHB[ ]	/* 45 values pushed */\0121 94 94 64 95 81 90 88 87 85 78 73 63 56 48 46 42 40 35 29 25 21 92 88 87 81 75 71 67 60 52 44 38 32 23 18 10 8 4 0 14 3 1 4 70 \012SROUND[ ]	/* SuperRound */\012MDAP[1]	/* MoveDirectAbsPt */\012SHZ[1]	/* ShiftZoneByLastPoint */\012RTG[ ]	/* RoundToGrid */\012SVTCA[0]	/* SetFreedomAndProjectionVectorToAxis */\012MIAP[1]	/* MoveIndirectAbsPt */\012MDAP[1]	/* MoveDirectAbsPt */\012SVTCA[1]	/* SetFreedomAndProjectionVectorToAxis */\012MDAP[0]	/* MoveDirectAbsPt */\012MDAP[0]	/* MoveDirectAbsPt */\012MDAP[0]	/* MoveDirectAbsPt */\012MDAP[0]	/* MoveDirectAbsPt */\012MDAP[0]	/* MoveDirectAbsPt */\012MDAP[0]	/* MoveDirectAbsPt */\012MDAP[0]	/* MoveDirectAbsPt */\012MDAP[0]	/* MoveDirectAbsPt */\012MDAP[0]	/* MoveDirectAbsPt */\012MDAP[0]	/* MoveDirectAbsPt */\012MDAP[0]	/* MoveDirectAbsPt */\012MDAP[0]	/* MoveDirectAbsPt */\012MDAP[0]	/* MoveDirectAbsPt */\012MDAP[0]	/* MoveDirectAbsPt */\012MDAP[0]	/* MoveDirectAbsPt */\012MDAP[0]	/* MoveDirectAbsPt */\012MDAP[0]	/* MoveDirectAbsPt */\012SVTCA[0]	/* SetFreedomAndProjectionVectorToAxis */\012MDAP[0]	/* MoveDirectAbsPt */\012MDAP[0]	/* MoveDirectAbsPt */\012MDAP[0]	/* MoveDirectAbsPt */\012MDAP[0]	/* MoveDirectAbsPt */\012MDAP[0]	/* MoveDirectAbsPt */\012MDAP[0]	/* MoveDirectAbsPt */\012MDAP[0]	/* MoveDirectAbsPt */\012MDAP[0]	/* MoveDirectAbsPt */\012MDAP[0]	/* MoveDirectAbsPt */\012MDAP[0]	/* MoveDirectAbsPt */\012MDAP[0]	/* MoveDirectAbsPt */\012MDAP[0]	/* MoveDirectAbsPt */\012MDAP[0]	/* MoveDirectAbsPt */\012MDAP[0]	/* MoveDirectAbsPt */\012MDAP[0]	/* MoveDirectAbsPt */\012MDAP[0]	/* MoveDirectAbsPt */\012IUP[1]	/* InterpolateUntPts */\012IUP[0]	/* InterpolateUntPts */\012SVTCA[1]	/* SetFreedomAndProjectionVectorToAxis */\012MD[0]	/* MeasureDistance */\012ROUND[00]	/* Round */\012PUSHW[ ]	/* 2 values pushed */\0124 94 \012MD[0]	/* MeasureDistance */\012ROUND[00]	/* Round */\012SUB[ ]	/* Subtract */\012PUSHB[ ]	/* 1 value pushed */\01264 \012GT[ ]	/* GreaterThan */\012IF[ ]	/* If */\012SHPIX[ ]	/* ShiftZoneByPixel */\012SRP1[ ]	/* SetRefPoint1 */\012SHZ[1]	/* ShiftZoneByLastPoint */\012PUSHW[ ]	/* 2 values pushed */\01294 -64 \012SHPIX[ ]	/* ShiftZoneByPixel */\012EIF[ ]	/* EndIf */";
};
width = 584;
}
);
note = E;
unicode = 0045;
},
{
glyphname = F;
lastChange = "2022-03-02 21:03:53 +0000";
layers = (
{
layerId = "423D2297-FAE2-4393-80D6-0A1E9777D337";
paths = (
{
closed = 1;
nodes = (
"372 -58 OFFCURVE",
"467 77 OFFCURVE",
"493 288 CURVE",
"560 289 LINE SMOOTH",
"569 289 OFFCURVE",
"573 292 OFFCURVE",
"573 298 CURVE SMOOTH",
"573 302 OFFCURVE",
"570 304 OFFCURVE",
"564 304 CURVE SMOOTH",
"494 304 LINE",
"510 423 OFFCURVE",
"529 504 OFFCURVE",
"551 545 CURVE",
"643 514 OFFCURVE",
"719 503 OFFCURVE",
"768 503 CURVE SMOOTH",
"837 503 OFFCURVE",
"888 521 OFFCURVE",
"888 554 CURVE SMOOTH",
"888 561 OFFCURVE",
"886 564 OFFCURVE",
"881 564 CURVE SMOOTH",
"872 564 OFFCURVE",
"868 559 OFFCURVE",
"868 550 CURVE SMOOTH",
"868 527 OFFCURVE",
"796 517 OFFCURVE",
"777 517 CURVE SMOOTH",
"712 517 OFFCURVE",
"644 531 OFFCURVE",
"563 563 CURVE",
"577 580 OFFCURVE",
"600 597 OFFCURVE",
"618 597 CURVE SMOOTH",
"621 597 OFFCURVE",
"622 599 OFFCURVE",
"622 600 CURVE SMOOTH",
"622 603 OFFCURVE",
"618 604 OFFCURVE",
"614 604 CURVE SMOOTH",
"595 604 OFFCURVE",
"571 592 OFFCURVE",
"549 569 CURVE",
"443 613 OFFCURVE",
"357 648 OFFCURVE",
"271 648 CURVE SMOOTH",
"164 648 OFFCURVE",
"83 576 OFFCURVE",
"83 471 CURVE SMOOTH",
"83 382 OFFCURVE",
"143 320 OFFCURVE",
"231 320 CURVE SMOOTH",
"304 320 OFFCURVE",
"361 371 OFFCURVE",
"361 437 CURVE SMOOTH",
"361 450 OFFCURVE",
"358 459 OFFCURVE",
"353 459 CURVE SMOOTH",
"348 459 OFFCURVE",
"347 454 OFFCURVE",
"347 448 CURVE SMOOTH",
"347 383 OFFCURVE",
"300 334 OFFCURVE",
"232 334 CURVE SMOOTH",
"161 334 OFFCURVE",
"118 380 OFFCURVE",
"118 451 CURVE SMOOTH",
"118 544 OFFCURVE",
"182 617 OFFCURVE",
"286 617 CURVE SMOOTH",
"339 617 OFFCURVE",
"422 595 OFFCURVE",
"535 552 CURVE",
"499 486 OFFCURVE",
"484 421 OFFCURVE",
"457 304 CURVE",
"372 304 LINE SMOOTH",
"363 304 OFFCURVE",
"358 301 OFFCURVE",
"358 295 CURVE SMOOTH",
"358 291 OFFCURVE",
"361 289 OFFCURVE",
"368 289 CURVE SMOOTH",
"453 289 LINE",
"410 103 OFFCURVE",
"337 -41 OFFCURVE",
"174 -41 CURVE SMOOTH",
"75 -41 OFFCURVE",
"11 26 OFFCURVE",
"11 125 CURVE SMOOTH",
"11 193 OFFCURVE",
"58 255 OFFCURVE",
"118 255 CURVE SMOOTH",
"169 255 OFFCURVE",
"201 228 OFFCURVE",
"201 174 CURVE SMOOTH",
"201 135 OFFCURVE",
"176 99 OFFCURVE",
"139 99 CURVE SMOOTH",
"131 99 OFFCURVE",
"127 97 OFFCURVE",
"127 94 CURVE SMOOTH",
"127 89 OFFCURVE",
"130 87 OFFCURVE",
"137 87 CURVE SMOOTH",
"185 87 OFFCURVE",
"220 128 OFFCURVE",
"220 177 CURVE SMOOTH",
"220 235 OFFCURVE",
"174 270 OFFCURVE",
"118 270 CURVE SMOOTH",
"38 270 OFFCURVE",
"-20 197 OFFCURVE",
"-20 126 CURVE SMOOTH",
"-20 17 OFFCURVE",
"65 -58 OFFCURVE",
"187 -58 CURVE SMOOTH"
);
}
);
userData = {
assembly = "NPUSHB[ ]	/* 60 values pushed */\0121 117 117 64 118 115 113 100 96 81 66 48 30 2 115 105 102 89 83 79 77 75 69 64 57 54 45 43 37 32 27 20 7 4 55 10 9 3 54 7 60 59 5 3 4 23 7 39 86 7 72 0 7 107 15 92 3 1 20 70 \012SROUND[ ]	/* SuperRound */\012MDAP[1]	/* MoveDirectAbsPt */\012SHZ[1]	/* ShiftZoneByLastPoint */\012RTG[ ]	/* RoundToGrid */\012SVTCA[0]	/* SetFreedomAndProjectionVectorToAxis */\012MIAP[1]	/* MoveIndirectAbsPt */\012MDAP[1]	/* MoveDirectAbsPt */\012MDAP[1]	/* MoveDirectAbsPt */\012MIRP[11101]	/* MoveIndirectRelPt */\012MDAP[1]	/* MoveDirectAbsPt */\012MIRP[11101]	/* MoveIndirectRelPt */\012MDAP[1]	/* MoveDirectAbsPt */\012MIRP[11101]	/* MoveIndirectRelPt */\012MDAP[1]	/* MoveDirectAbsPt */\012SLOOP[ ]	/* SetLoopVariable */\012ALIGNRP[ ]	/* AlignRelativePt */\012MIRP[11101]	/* MoveIndirectRelPt */\012SLOOP[ ]	/* SetLoopVariable */\012ALIGNRP[ ]	/* AlignRelativePt */\012SVTCA[1]	/* SetFreedomAndProjectionVectorToAxis */\012MDAP[0]	/* MoveDirectAbsPt */\012MDAP[0]	/* MoveDirectAbsPt */\012MDAP[0]	/* MoveDirectAbsPt */\012MDAP[0]	/* MoveDirectAbsPt */\012MDAP[0]	/* MoveDirectAbsPt */\012MDAP[0]	/* MoveDirectAbsPt */\012MDAP[0]	/* MoveDirectAbsPt */\012MDAP[0]	/* MoveDirectAbsPt */\012MDAP[0]	/* MoveDirectAbsPt */\012MDAP[0]	/* MoveDirectAbsPt */\012MDAP[0]	/* MoveDirectAbsPt */\012MDAP[0]	/* MoveDirectAbsPt */\012MDAP[0]	/* MoveDirectAbsPt */\012MDAP[0]	/* MoveDirectAbsPt */\012MDAP[0]	/* MoveDirectAbsPt */\012MDAP[0]	/* MoveDirectAbsPt */\012MDAP[0]	/* MoveDirectAbsPt */\012MDAP[0]	/* MoveDirectAbsPt */\012MDAP[0]	/* MoveDirectAbsPt */\012MDAP[0]	/* MoveDirectAbsPt */\012SVTCA[0]	/* SetFreedomAndProjectionVectorToAxis */\012MDAP[0]	/* MoveDirectAbsPt */\012MDAP[0]	/* MoveDirectAbsPt */\012MDAP[0]	/* MoveDirectAbsPt */\012MDAP[0]	/* MoveDirectAbsPt */\012MDAP[0]	/* MoveDirectAbsPt */\012MDAP[0]	/* MoveDirectAbsPt */\012MDAP[0]	/* MoveDirectAbsPt */\012MDAP[0]	/* MoveDirectAbsPt */\012IUP[1]	/* InterpolateUntPts */\012IUP[0]	/* InterpolateUntPts */\012SVTCA[1]	/* SetFreedomAndProjectionVectorToAxis */\012MD[0]	/* MeasureDistance */\012ROUND[00]	/* Round */\012PUSHW[ ]	/* 2 values pushed */\01220 117 \012MD[0]	/* MeasureDistance */\012ROUND[00]	/* Round */\012SUB[ ]	/* Subtract */\012PUSHB[ ]	/* 1 value pushed */\01264 \012GT[ ]	/* GreaterThan */\012IF[ ]	/* If */\012SHPIX[ ]	/* ShiftZoneByPixel */\012SRP1[ ]	/* SetRefPoint1 */\012SHZ[1]	/* ShiftZoneByLastPoint */\012PUSHW[ ]	/* 2 values pushed */\012117 -64 \012SHPIX[ ]	/* ShiftZoneByPixel */\012EIF[ ]	/* EndIf */";
};
width = 590;
}
);
note = F;
unicode = 0046;
},
{
glyphname = G;
lastChange = "2022-03-02 21:03:53 +0000";
layers = (
{
layerId = "423D2297-FAE2-4393-80D6-0A1E9777D337";
paths = (
{
closed = 1;
nodes = (
"348 -303 OFFCURVE",
"500 -221 OFFCURVE",
"552 -79 CURVE",
"635 -100 OFFCURVE",
"700 -110 OFFCURVE",
"747 -110 CURVE SMOOTH",
"817 -110 OFFCURVE",
"864 -91 OFFCURVE",
"887 -52 CURVE SMOOTH",
"890 -47 OFFCURVE",
"892 -43 OFFCURVE",
"892 -40 CURVE SMOOTH",
"892 -31 OFFCURVE",
"884 -32 OFFCURVE",
"869 -45 CURVE SMOOTH",
"836 -74 OFFCURVE",
"795 -88 OFFCURVE",
"747 -88 CURVE SMOOTH",
"712 -88 OFFCURVE",
"650 -78 OFFCURVE",
"559 -59 CURVE",
"571 -22 OFFCURVE",
"580 36 OFFCURVE",
"589 96 CURVE",
"652 155 OFFCURVE",
"683 217 OFFCURVE",
"683 270 CURVE SMOOTH",
"683 295 OFFCURVE",
"670 318 OFFCURVE",
"641 318 CURVE SMOOTH",
"575 318 OFFCURVE",
"567 207 OFFCURVE",
"560 104 CURVE",
"512 60 OFFCURVE",
"459 38 OFFCURVE",
"401 38 CURVE SMOOTH",
"341 38 OFFCURVE",
"294 59 OFFCURVE",
"259 102 CURVE SMOOTH",
"228 140 OFFCURVE",
"210 190 OFFCURVE",
"206 252 CURVE",
"231 247 OFFCURVE",
"259 244 OFFCURVE",
"290 244 CURVE SMOOTH",
"455 244 OFFCURVE",
"669 341 OFFCURVE",
"669 481 CURVE SMOOTH",
"669 566 OFFCURVE",
"589 611 OFFCURVE",
"500 611 CURVE SMOOTH",
"456 611 OFFCURVE",
"410 602 OFFCURVE",
"363 583 CURVE",
"342 614 OFFCURVE",
"298 638 OFFCURVE",
"254 638 CURVE SMOOTH",
"139 638 OFFCURVE",
"55 552 OFFCURVE",
"55 439 CURVE SMOOTH",
"55 372 OFFCURVE",
"85 318 OFFCURVE",
"146 279 CURVE",
"143 126 OFFCURVE",
"240 21 OFFCURVE",
"392 21 CURVE SMOOTH",
"451 21 OFFCURVE",
"505 37 OFFCURVE",
"554 70 CURVE",
"547 12 OFFCURVE",
"533 -19 OFFCURVE",
"520 -46 CURVE",
"371 -5 OFFCURVE",
"256 24 OFFCURVE",
"156 24 CURVE SMOOTH",
"43 24 OFFCURVE",
"-49 -26 OFFCURVE",
"-49 -127 CURVE SMOOTH",
"-49 -243 OFFCURVE",
"52 -303 OFFCURVE",
"188 -303 CURVE SMOOTH"
);
},
{
closed = 1;
nodes = (
"60 -284 OFFCURVE",
"-9 -213 OFFCURVE",
"-9 -121 CURVE SMOOTH",
"-9 -31 OFFCURVE",
"68 3 OFFCURVE",
"169 3 CURVE SMOOTH",
"243 3 OFFCURVE",
"364 -20 OFFCURVE",
"513 -66 CURVE",
"479 -179 OFFCURVE",
"298 -284 OFFCURVE",
"178 -284 CURVE SMOOTH"
);
},
{
closed = 1;
nodes = (
"145 310 LINE",
"98 341 OFFCURVE",
"75 386 OFFCURVE",
"75 443 CURVE SMOOTH",
"75 538 OFFCURVE",
"151 604 OFFCURVE",
"246 604 CURVE SMOOTH",
"284 604 OFFCURVE",
"314 593 OFFCURVE",
"336 572 CURVE",
"228 524 OFFCURVE",
"157 427 OFFCURVE",
"146 310 CURVE"
);
},
{
closed = 1;
nodes = (
"591 206 OFFCURVE",
"596 303 OFFCURVE",
"640 303 CURVE SMOOTH",
"652 303 OFFCURVE",
"658 293 OFFCURVE",
"658 274 CURVE SMOOTH",
"658 236 OFFCURVE",
"624 171 OFFCURVE",
"589 136 CURVE"
);
},
{
closed = 1;
nodes = (
"251 272 OFFCURVE",
"227 274 OFFCURVE",
"205 279 CURVE",
"206 391 OFFCURVE",
"261 489 OFFCURVE",
"356 545 CURVE",
"364 531 OFFCURVE",
"367 516 OFFCURVE",
"367 501 CURVE SMOOTH",
"367 456 OFFCURVE",
"334 407 OFFCURVE",
"293 407 CURVE SMOOTH",
"287 407 OFFCURVE",
"282 403 OFFCURVE",
"282 398 CURVE SMOOTH",
"282 394 OFFCURVE",
"288 390 OFFCURVE",
"300 390 CURVE SMOOTH",
"346 390 OFFCURVE",
"390 446 OFFCURVE",
"390 504 CURVE SMOOTH",
"390 521 OFFCURVE",
"386 539 OFFCURVE",
"378 556 CURVE",
"423 577 OFFCURVE",
"465 588 OFFCURVE",
"504 588 CURVE SMOOTH",
"568 588 OFFCURVE",
"631 555 OFFCURVE",
"631 489 CURVE SMOOTH",
"631 366 OFFCURVE",
"428 272 OFFCURVE",
"276 272 CURVE SMOOTH"
);
}
);
userData = {
assembly = "NPUSHB[ ]	/* 57 values pushed */\0121 152 152 64 153 148 148 144 132 126 122 120 110 108 97 95 93 89 75 73 69 59 52 47 46 44 34 29 19 7 0 148 142 136 122 114 102 95 85 63 57 55 50 40 32 27 21 15 13 5 0 79 105 3 1 85 70 \012SROUND[ ]	/* SuperRound */\012MDAP[1]	/* MoveDirectAbsPt */\012SHZ[1]	/* ShiftZoneByLastPoint */\012RTG[ ]	/* RoundToGrid */\012SVTCA[0]	/* SetFreedomAndProjectionVectorToAxis */\012MIAP[1]	/* MoveIndirectAbsPt */\012MDAP[1]	/* MoveDirectAbsPt */\012SVTCA[1]	/* SetFreedomAndProjectionVectorToAxis */\012MDAP[0]	/* MoveDirectAbsPt */\012MDAP[0]	/* MoveDirectAbsPt */\012MDAP[0]	/* MoveDirectAbsPt */\012MDAP[0]	/* MoveDirectAbsPt */\012MDAP[0]	/* MoveDirectAbsPt */\012MDAP[0]	/* MoveDirectAbsPt */\012MDAP[0]	/* MoveDirectAbsPt */\012MDAP[0]	/* MoveDirectAbsPt */\012MDAP[0]	/* MoveDirectAbsPt */\012MDAP[0]	/* MoveDirectAbsPt */\012MDAP[0]	/* MoveDirectAbsPt */\012MDAP[0]	/* MoveDirectAbsPt */\012MDAP[0]	/* MoveDirectAbsPt */\012MDAP[0]	/* MoveDirectAbsPt */\012MDAP[0]	/* MoveDirectAbsPt */\012MDAP[0]	/* MoveDirectAbsPt */\012MDAP[0]	/* MoveDirectAbsPt */\012MDAP[0]	/* MoveDirectAbsPt */\012MDAP[0]	/* MoveDirectAbsPt */\012MDAP[0]	/* MoveDirectAbsPt */\012SVTCA[0]	/* SetFreedomAndProjectionVectorToAxis */\012MDAP[0]	/* MoveDirectAbsPt */\012MDAP[0]	/* MoveDirectAbsPt */\012MDAP[0]	/* MoveDirectAbsPt */\012MDAP[0]	/* MoveDirectAbsPt */\012MDAP[0]	/* MoveDirectAbsPt */\012MDAP[0]	/* MoveDirectAbsPt */\012MDAP[0]	/* MoveDirectAbsPt */\012MDAP[0]	/* MoveDirectAbsPt */\012MDAP[0]	/* MoveDirectAbsPt */\012MDAP[0]	/* MoveDirectAbsPt */\012MDAP[0]	/* MoveDirectAbsPt */\012MDAP[0]	/* MoveDirectAbsPt */\012MDAP[0]	/* MoveDirectAbsPt */\012MDAP[0]	/* MoveDirectAbsPt */\012MDAP[0]	/* MoveDirectAbsPt */\012MDAP[0]	/* MoveDirectAbsPt */\012MDAP[0]	/* MoveDirectAbsPt */\012MDAP[0]	/* MoveDirectAbsPt */\012MDAP[0]	/* MoveDirectAbsPt */\012MDAP[0]	/* MoveDirectAbsPt */\012MDAP[0]	/* MoveDirectAbsPt */\012MDAP[0]	/* MoveDirectAbsPt */\012MDAP[0]	/* MoveDirectAbsPt */\012MDAP[0]	/* MoveDirectAbsPt */\012MDAP[0]	/* MoveDirectAbsPt */\012IUP[1]	/* InterpolateUntPts */\012IUP[0]	/* InterpolateUntPts */\012SVTCA[1]	/* SetFreedomAndProjectionVectorToAxis */\012MD[0]	/* MeasureDistance */\012ROUND[00]	/* Round */\012PUSHW[ ]	/* 2 values pushed */\01285 152 \012MD[0]	/* MeasureDistance */\012ROUND[00]	/* Round */\012SUB[ ]	/* Subtract */\012PUSHB[ ]	/* 1 value pushed */\01264 \012GT[ ]	/* GreaterThan */\012IF[ ]	/* If */\012SHPIX[ ]	/* ShiftZoneByPixel */\012SRP1[ ]	/* SetRefPoint1 */\012SHZ[1]	/* ShiftZoneByLastPoint */\012PUSHW[ ]	/* 2 values pushed */\012152 -64 \012SHPIX[ ]	/* ShiftZoneByPixel */\012EIF[ ]	/* EndIf */";
};
width = 716;
}
);
note = G;
unicode = 0047;
},
{
glyphname = H;
lastChange = "2022-03-02 21:03:53 +0000";
layers = (
{
layerId = "423D2297-FAE2-4393-80D6-0A1E9777D337";
paths = (
{
closed = 1;
nodes = (
"370 -51 OFFCURVE",
"452 80 OFFCURVE",
"466 287 CURVE",
"691 287 LINE",
"677 216 OFFCURVE",
"670 156 OFFCURVE",
"670 108 CURVE SMOOTH",
"670 27 OFFCURVE",
"691 -19 OFFCURVE",
"738 -19 CURVE SMOOTH",
"761 -19 OFFCURVE",
"782 -5 OFFCURVE",
"802 22 CURVE SMOOTH",
"817 43 OFFCURVE",
"829 67 OFFCURVE",
"837 94 CURVE",
"837 99 LINE SMOOTH",
"837 108 OFFCURVE",
"835 113 OFFCURVE",
"832 113 CURVE SMOOTH",
"829 113 OFFCURVE",
"827 108 OFFCURVE",
"824 99 CURVE SMOOTH",
"813 57 OFFCURVE",
"778 0 OFFCURVE",
"749 0 CURVE SMOOTH",
"728 0 OFFCURVE",
"718 34 OFFCURVE",
"718 103 CURVE SMOOTH",
"718 242 OFFCURVE",
"772 601 OFFCURVE",
"860 601 CURVE SMOOTH",
"863 601 LINE SMOOTH",
"897 601 OFFCURVE",
"914 581 OFFCURVE",
"914 542 CURVE SMOOTH",
"914 531 OFFCURVE",
"912 519 OFFCURVE",
"909 508 CURVE SMOOTH",
"906 500 OFFCURVE",
"907 496 OFFCURVE",
"912 496 CURVE SMOOTH",
"915 496 OFFCURVE",
"917 499 OFFCURVE",
"920 505 CURVE",
"924 521 OFFCURVE",
"926 534 OFFCURVE",
"926 543 CURVE SMOOTH",
"926 583 OFFCURVE",
"902 615 OFFCURVE",
"863 615 CURVE SMOOTH",
"848 615 OFFCURVE",
"832 608 OFFCURVE",
"814 595 CURVE SMOOTH",
"757 553 OFFCURVE",
"725 444 OFFCURVE",
"693 302 CURVE",
"467 302 LINE",
"468 315 OFFCURVE",
"469 326 OFFCURVE",
"469 334 CURVE SMOOTH",
"470 414 OFFCURVE",
"483 474 OFFCURVE",
"508 515 CURVE",
"537 504 OFFCURVE",
"561 498 OFFCURVE",
"580 498 CURVE SMOOTH",
"615 498 OFFCURVE",
"636 514 OFFCURVE",
"636 540 CURVE SMOOTH",
"636 565 OFFCURVE",
"610 580 OFFCURVE",
"585 580 CURVE SMOOTH",
"558 580 OFFCURVE",
"529 565 OFFCURVE",
"500 534 CURVE",
"382 587 OFFCURVE",
"295 628 OFFCURVE",
"203 628 CURVE SMOOTH",
"92 628 OFFCURVE",
"16 547 OFFCURVE",
"16 436 CURVE SMOOTH",
"16 401 OFFCURVE",
"23 369 OFFCURVE",
"38 340 CURVE",
"-19 303 OFFCURVE",
"-47 246 OFFCURVE",
"-47 171 CURVE SMOOTH",
"-47 44 OFFCURVE",
"51 -51 OFFCURVE",
"179 -51 CURVE SMOOTH"
);
},
{
closed = 1;
nodes = (
"116 274 OFFCURVE",
"85 293 OFFCURVE",
"64 330 CURVE",
"77 339 OFFCURVE",
"91 343 OFFCURVE",
"107 343 CURVE SMOOTH",
"161 343 OFFCURVE",
"199 324 OFFCURVE",
"220 287 CURVE",
"202 278 OFFCURVE",
"182 274 OFFCURVE",
"159 274 CURVE SMOOTH"
);
},
{
closed = 1;
nodes = (
"66 -32 OFFCURVE",
"-11 53 OFFCURVE",
"-11 162 CURVE SMOOTH",
"-11 232 OFFCURVE",
"9 284 OFFCURVE",
"48 318 CURVE",
"73 279 OFFCURVE",
"110 259 OFFCURVE",
"161 259 CURVE SMOOTH",
"184 259 OFFCURVE",
"205 264 OFFCURVE",
"226 273 CURVE",
"232 258 OFFCURVE",
"237 241 OFFCURVE",
"237 220 CURVE SMOOTH",
"237 160 OFFCURVE",
"201 109 OFFCURVE",
"149 109 CURVE SMOOTH",
"141 109 OFFCURVE",
"137 106 OFFCURVE",
"137 101 CURVE SMOOTH",
"137 96 OFFCURVE",
"140 93 OFFCURVE",
"145 93 CURVE SMOOTH",
"214 93 OFFCURVE",
"256 154 OFFCURVE",
"256 225 CURVE SMOOTH",
"256 245 OFFCURVE",
"251 264 OFFCURVE",
"242 283 CURVE",
"276 306 OFFCURVE",
"293 339 OFFCURVE",
"293 382 CURVE SMOOTH",
"293 391 OFFCURVE",
"291 395 OFFCURVE",
"288 395 CURVE SMOOTH",
"283 395 OFFCURVE",
"280 391 OFFCURVE",
"280 382 CURVE SMOOTH",
"280 343 OFFCURVE",
"266 314 OFFCURVE",
"237 294 CURVE",
"212 339 OFFCURVE",
"170 362 OFFCURVE",
"113 362 CURVE SMOOTH",
"92 362 OFFCURVE",
"72 358 OFFCURVE",
"55 349 CURVE",
"46 370 OFFCURVE",
"42 394 OFFCURVE",
"42 419 CURVE SMOOTH",
"42 524 OFFCURVE",
"114 596 OFFCURVE",
"219 596 CURVE SMOOTH",
"296 596 OFFCURVE",
"372 570 OFFCURVE",
"488 521 CURVE",
"448 470 OFFCURVE",
"433 391 OFFCURVE",
"422 308 CURVE SMOOTH",
"400 119 OFFCURVE",
"350 -32 OFFCURVE",
"174 -32 CURVE SMOOTH"
);
},
{
closed = 1;
nodes = (
"562 510 OFFCURVE",
"541 516 OFFCURVE",
"518 528 CURVE",
"535 549 OFFCURVE",
"557 564 OFFCURVE",
"583 564 CURVE SMOOTH",
"607 564 OFFCURVE",
"622 553 OFFCURVE",
"622 539 CURVE SMOOTH",
"622 522 OFFCURVE",
"606 510 OFFCURVE",
"581 510 CURVE SMOOTH"
);
}
);
userData = {
assembly = "NPUSHB[ ]	/* 72 values pushed */\0121 149 149 64 150 76 147 143 131 126 124 122 113 103 99 90 84 80 73 69 68 64 62 57 55 37 36 23 9 8 2 145 141 120 115 109 107 105 93 86 82 78 76 68 60 48 46 36 34 26 25 15 6 4 128 5 44 17 7 30 41 97 2 95 2 51 3 30 1 1 44 70 \012SROUND[ ]	/* SuperRound */\012MDAP[1]	/* MoveDirectAbsPt */\012SHZ[1]	/* ShiftZoneByLastPoint */\012RTG[ ]	/* RoundToGrid */\012SVTCA[0]	/* SetFreedomAndProjectionVectorToAxis */\012MIAP[1]	/* MoveIndirectAbsPt */\012MIAP[1]	/* MoveIndirectAbsPt */\012MIAP[1]	/* MoveIndirectAbsPt */\012MIAP[1]	/* MoveIndirectAbsPt */\012MDAP[1]	/* MoveDirectAbsPt */\012SRP0[ ]	/* SetRefPoint0 */\012MIRP[11101]	/* MoveIndirectRelPt */\012SVTCA[1]	/* SetFreedomAndProjectionVectorToAxis */\012MDAP[1]	/* MoveDirectAbsPt */\012MIRP[11101]	/* MoveIndirectRelPt */\012MDAP[0]	/* MoveDirectAbsPt */\012MDAP[0]	/* MoveDirectAbsPt */\012MDAP[0]	/* MoveDirectAbsPt */\012MDAP[0]	/* MoveDirectAbsPt */\012MDAP[0]	/* MoveDirectAbsPt */\012MDAP[0]	/* MoveDirectAbsPt */\012MDAP[0]	/* MoveDirectAbsPt */\012MDAP[0]	/* MoveDirectAbsPt */\012MDAP[0]	/* MoveDirectAbsPt */\012MDAP[0]	/* MoveDirectAbsPt */\012MDAP[0]	/* MoveDirectAbsPt */\012MDAP[0]	/* MoveDirectAbsPt */\012MDAP[0]	/* MoveDirectAbsPt */\012MDAP[0]	/* MoveDirectAbsPt */\012MDAP[0]	/* MoveDirectAbsPt */\012MDAP[0]	/* MoveDirectAbsPt */\012MDAP[0]	/* MoveDirectAbsPt */\012MDAP[0]	/* MoveDirectAbsPt */\012MDAP[0]	/* MoveDirectAbsPt */\012MDAP[0]	/* MoveDirectAbsPt */\012MDAP[0]	/* MoveDirectAbsPt */\012MDAP[0]	/* MoveDirectAbsPt */\012MDAP[0]	/* MoveDirectAbsPt */\012SVTCA[0]	/* SetFreedomAndProjectionVectorToAxis */\012MDAP[0]	/* MoveDirectAbsPt */\012MDAP[0]	/* MoveDirectAbsPt */\012MDAP[0]	/* MoveDirectAbsPt */\012MDAP[0]	/* MoveDirectAbsPt */\012MDAP[0]	/* MoveDirectAbsPt */\012MDAP[0]	/* MoveDirectAbsPt */\012MDAP[0]	/* MoveDirectAbsPt */\012MDAP[0]	/* MoveDirectAbsPt */\012MDAP[0]	/* MoveDirectAbsPt */\012MDAP[0]	/* MoveDirectAbsPt */\012MDAP[0]	/* MoveDirectAbsPt */\012MDAP[0]	/* MoveDirectAbsPt */\012MDAP[0]	/* MoveDirectAbsPt */\012MDAP[0]	/* MoveDirectAbsPt */\012MDAP[0]	/* MoveDirectAbsPt */\012MDAP[0]	/* MoveDirectAbsPt */\012MDAP[0]	/* MoveDirectAbsPt */\012MDAP[0]	/* MoveDirectAbsPt */\012MDAP[0]	/* MoveDirectAbsPt */\012MDAP[0]	/* MoveDirectAbsPt */\012MDAP[0]	/* MoveDirectAbsPt */\012MDAP[0]	/* MoveDirectAbsPt */\012MDAP[0]	/* MoveDirectAbsPt */\012MDAP[0]	/* MoveDirectAbsPt */\012MDAP[0]	/* MoveDirectAbsPt */\012IUP[1]	/* InterpolateUntPts */\012IUP[0]	/* InterpolateUntPts */\012SVTCA[1]	/* SetFreedomAndProjectionVectorToAxis */\012MD[0]	/* MeasureDistance */\012ROUND[00]	/* Round */\012PUSHW[ ]	/* 2 values pushed */\01244 149 \012MD[0]	/* MeasureDistance */\012ROUND[00]	/* Round */\012SUB[ ]	/* Subtract */\012PUSHB[ ]	/* 1 value pushed */\01264 \012GT[ ]	/* GreaterThan */\012IF[ ]	/* If */\012SHPIX[ ]	/* ShiftZoneByPixel */\012SRP1[ ]	/* SetRefPoint1 */\012SHZ[1]	/* ShiftZoneByLastPoint */\012PUSHW[ ]	/* 2 values pushed */\012149 -64 \012SHPIX[ ]	/* ShiftZoneByPixel */\012EIF[ ]	/* EndIf */";
};
width = 809;
}
);
note = H;
unicode = 0048;
},
{
glyphname = I;
lastChange = "2022-03-02 21:03:53 +0000";
layers = (
{
layerId = "423D2297-FAE2-4393-80D6-0A1E9777D337";
paths = (
{
closed = 1;
nodes = (
"352 -57 OFFCURVE",
"428 102 OFFCURVE",
"433 301 CURVE",
"478 322 OFFCURVE",
"501 360 OFFCURVE",
"501 415 CURVE SMOOTH",
"501 448 OFFCURVE",
"488 473 OFFCURVE",
"463 492 CURVE",
"479 540 OFFCURVE",
"521 603 OFFCURVE",
"561 607 CURVE SMOOTH",
"570 608 OFFCURVE",
"574 609 OFFCURVE",
"574 612 CURVE SMOOTH",
"574 613 OFFCURVE",
"573 615 OFFCURVE",
"572 616 CURVE",
"549 626 OFFCURVE",
"520 631 OFFCURVE",
"486 631 CURVE SMOOTH",
"350 631 OFFCURVE",
"224 556 OFFCURVE",
"224 421 CURVE SMOOTH",
"224 340 OFFCURVE",
"284 286 OFFCURVE",
"350 286 CURVE SMOOTH",
"369 286 OFFCURVE",
"382 287 OFFCURVE",
"386 288 CURVE",
"369 110 OFFCURVE",
"332 -44 OFFCURVE",
"191 -44 CURVE SMOOTH",
"85 -44 OFFCURVE",
"36 34 OFFCURVE",
"36 147 CURVE SMOOTH",
"36 229 OFFCURVE",
"83 307 OFFCURVE",
"167 307 CURVE SMOOTH",
"224 307 OFFCURVE",
"266 252 OFFCURVE",
"266 193 CURVE SMOOTH",
"266 142 OFFCURVE",
"230 102 OFFCURVE",
"179 102 CURVE SMOOTH",
"143 102 OFFCURVE",
"119 136 OFFCURVE",
"119 173 CURVE SMOOTH",
"119 177 OFFCURVE",
"119 193 OFFCURVE",
"123 202 CURVE",
"123 205 OFFCURVE",
"122 207 OFFCURVE",
"120 207 CURVE SMOOTH",
"113 207 OFFCURVE",
"107 197 OFFCURVE",
"107 177 CURVE SMOOTH",
"107 132 OFFCURVE",
"131 93 OFFCURVE",
"183 93 CURVE SMOOTH",
"242 93 OFFCURVE",
"283 135 OFFCURVE",
"283 192 CURVE SMOOTH",
"283 260 OFFCURVE",
"233 319 OFFCURVE",
"166 319 CURVE SMOOTH",
"67 319 OFFCURVE",
"-4 227 OFFCURVE",
"-4 129 CURVE SMOOTH",
"-4 22 OFFCURVE",
"79 -57 OFFCURVE",
"186 -57 CURVE SMOOTH"
);
},
{
closed = 1;
nodes = (
"296 297 OFFCURVE",
"254 336 OFFCURVE",
"254 412 CURVE SMOOTH",
"254 427 OFFCURVE",
"255 439 OFFCURVE",
"256 448 CURVE SMOOTH",
"272 553 OFFCURVE",
"369 618 OFFCURVE",
"479 618 CURVE SMOOTH",
"501 618 OFFCURVE",
"521 616 OFFCURVE",
"540 611 CURVE",
"499 610 OFFCURVE",
"463 574 OFFCURVE",
"432 505 CURVE",
"429 506 OFFCURVE",
"422 507 OFFCURVE",
"415 507 CURVE SMOOTH",
"380 507 OFFCURVE",
"348 481 OFFCURVE",
"348 446 CURVE SMOOTH",
"348 429 OFFCURVE",
"356 409 OFFCURVE",
"369 409 CURVE SMOOTH",
"372 409 OFFCURVE",
"374 410 OFFCURVE",
"374 413 CURVE SMOOTH",
"374 414 OFFCURVE",
"372 416 OFFCURVE",
"368 418 CURVE",
"362 424 OFFCURVE",
"359 434 OFFCURVE",
"359 447 CURVE SMOOTH",
"359 475 OFFCURVE",
"382 496 OFFCURVE",
"410 496 CURVE SMOOTH",
"417 496 OFFCURVE",
"424 495 OFFCURVE",
"427 494 CURVE",
"405 441 OFFCURVE",
"392 393 OFFCURVE",
"390 352 CURVE SMOOTH",
"387 299 LINE",
"383 298 OFFCURVE",
"370 297 OFFCURVE",
"362 297 CURVE SMOOTH"
);
},
{
closed = 1;
nodes = (
"436 377 OFFCURVE",
"443 433 OFFCURVE",
"459 482 CURVE",
"474 467 OFFCURVE",
"488 444 OFFCURVE",
"488 414 CURVE SMOOTH",
"488 372 OFFCURVE",
"474 339 OFFCURVE",
"433 316 CURVE"
);
}
);
userData = {
assembly = "NPUSHB[ ]	/* 60 values pushed */\0121 122 122 64 123 2 120 118 111 102 95 94 86 77 75 64 63 51 45 37 32 26 15 14 115 109 105 100 96 95 92 84 77 75 73 67 63 55 48 42 39 35 29 22 15 14 10 2 79 6 12 59 7 19 19 71 3 1 22 70 \012SROUND[ ]	/* SuperRound */\012MDAP[1]	/* MoveDirectAbsPt */\012SHZ[1]	/* ShiftZoneByLastPoint */\012RTG[ ]	/* RoundToGrid */\012SVTCA[0]	/* SetFreedomAndProjectionVectorToAxis */\012MIAP[1]	/* MoveIndirectAbsPt */\012MDAP[1]	/* MoveDirectAbsPt */\012SRP0[ ]	/* SetRefPoint0 */\012MIRP[11101]	/* MoveIndirectRelPt */\012SVTCA[1]	/* SetFreedomAndProjectionVectorToAxis */\012MDAP[1]	/* MoveDirectAbsPt */\012MIRP[11101]	/* MoveIndirectRelPt */\012MDAP[0]	/* MoveDirectAbsPt */\012MDAP[0]	/* MoveDirectAbsPt */\012MDAP[0]	/* MoveDirectAbsPt */\012MDAP[0]	/* MoveDirectAbsPt */\012MDAP[0]	/* MoveDirectAbsPt */\012MDAP[0]	/* MoveDirectAbsPt */\012MDAP[0]	/* MoveDirectAbsPt */\012MDAP[0]	/* MoveDirectAbsPt */\012MDAP[0]	/* MoveDirectAbsPt */\012MDAP[0]	/* MoveDirectAbsPt */\012MDAP[0]	/* MoveDirectAbsPt */\012MDAP[0]	/* MoveDirectAbsPt */\012MDAP[0]	/* MoveDirectAbsPt */\012MDAP[0]	/* MoveDirectAbsPt */\012MDAP[0]	/* MoveDirectAbsPt */\012MDAP[0]	/* MoveDirectAbsPt */\012MDAP[0]	/* MoveDirectAbsPt */\012MDAP[0]	/* MoveDirectAbsPt */\012MDAP[0]	/* MoveDirectAbsPt */\012MDAP[0]	/* MoveDirectAbsPt */\012MDAP[0]	/* MoveDirectAbsPt */\012MDAP[0]	/* MoveDirectAbsPt */\012MDAP[0]	/* MoveDirectAbsPt */\012MDAP[0]	/* MoveDirectAbsPt */\012SVTCA[0]	/* SetFreedomAndProjectionVectorToAxis */\012MDAP[0]	/* MoveDirectAbsPt */\012MDAP[0]	/* MoveDirectAbsPt */\012MDAP[0]	/* MoveDirectAbsPt */\012MDAP[0]	/* MoveDirectAbsPt */\012MDAP[0]	/* MoveDirectAbsPt */\012MDAP[0]	/* MoveDirectAbsPt */\012MDAP[0]	/* MoveDirectAbsPt */\012MDAP[0]	/* MoveDirectAbsPt */\012MDAP[0]	/* MoveDirectAbsPt */\012MDAP[0]	/* MoveDirectAbsPt */\012MDAP[0]	/* MoveDirectAbsPt */\012MDAP[0]	/* MoveDirectAbsPt */\012MDAP[0]	/* MoveDirectAbsPt */\012MDAP[0]	/* MoveDirectAbsPt */\012MDAP[0]	/* MoveDirectAbsPt */\012MDAP[0]	/* MoveDirectAbsPt */\012MDAP[0]	/* MoveDirectAbsPt */\012MDAP[0]	/* MoveDirectAbsPt */\012IUP[1]	/* InterpolateUntPts */\012IUP[0]	/* InterpolateUntPts */\012SVTCA[1]	/* SetFreedomAndProjectionVectorToAxis */\012MD[0]	/* MeasureDistance */\012ROUND[00]	/* Round */\012PUSHW[ ]	/* 2 values pushed */\01222 122 \012MD[0]	/* MeasureDistance */\012ROUND[00]	/* Round */\012SUB[ ]	/* Subtract */\012PUSHB[ ]	/* 1 value pushed */\01264 \012GT[ ]	/* GreaterThan */\012IF[ ]	/* If */\012SHPIX[ ]	/* ShiftZoneByPixel */\012SRP1[ ]	/* SetRefPoint1 */\012SHZ[1]	/* ShiftZoneByLastPoint */\012PUSHW[ ]	/* 2 values pushed */\012122 -64 \012SHPIX[ ]	/* ShiftZoneByPixel */\012EIF[ ]	/* EndIf */";
};
width = 484;
}
);
note = I;
unicode = 0049;
},
{
glyphname = J;
lastChange = "2022-03-02 21:03:53 +0000";
layers = (
{
layerId = "423D2297-FAE2-4393-80D6-0A1E9777D337";
paths = (
{
closed = 1;
nodes = (
"343 -277 OFFCURVE",
"447 -30 OFFCURVE",
"447 237 CURVE SMOOTH",
"447 306 OFFCURVE",
"444 361 OFFCURVE",
"444 406 CURVE SMOOTH",
"444 475 OFFCURVE",
"451 525 OFFCURVE",
"487 578 CURVE SMOOTH",
"496 592 OFFCURVE",
"508 600 OFFCURVE",
"508 601 CURVE SMOOTH",
"508 602 OFFCURVE",
"508 603 OFFCURVE",
"507 604 CURVE",
"504 604 LINE SMOOTH",
"500 604 OFFCURVE",
"466 612 OFFCURVE",
"446 612 CURVE SMOOTH",
"325 612 OFFCURVE",
"214 531 OFFCURVE",
"214 418 CURVE SMOOTH",
"214 374 OFFCURVE",
"236 339 OFFCURVE",
"286 339 CURVE SMOOTH",
"333 339 OFFCURVE",
"367 378 OFFCURVE",
"367 423 CURVE SMOOTH",
"367 454 OFFCURVE",
"358 467 OFFCURVE",
"352 467 CURVE SMOOTH",
"349 467 OFFCURVE",
"346 465 OFFCURVE",
"346 461 CURVE SMOOTH",
"346 460 OFFCURVE",
"347 458 OFFCURVE",
"348 456 CURVE SMOOTH",
"350 453 OFFCURVE",
"354 436 OFFCURVE",
"354 424 CURVE SMOOTH",
"354 387 OFFCURVE",
"324 351 OFFCURVE",
"288 351 CURVE SMOOTH",
"249 351 OFFCURVE",
"236 386 OFFCURVE",
"236 424 CURVE SMOOTH",
"236 531 OFFCURVE",
"336 604 OFFCURVE",
"444 604 CURVE SMOOTH",
"467 604 OFFCURVE",
"485 600 OFFCURVE",
"490 599 CURVE",
"434 573 OFFCURVE",
"401 469 OFFCURVE",
"401 309 CURVE SMOOTH",
"401 38 OFFCURVE",
"328 -261 OFFCURVE",
"107 -261 CURVE SMOOTH",
"-4 -261 OFFCURVE",
"-81 -162 OFFCURVE",
"-81 -50 CURVE SMOOTH",
"-81 56 OFFCURVE",
"-16 142 OFFCURVE",
"85 142 CURVE SMOOTH",
"160 142 OFFCURVE",
"210 80 OFFCURVE",
"210 4 CURVE SMOOTH",
"210 -64 OFFCURVE",
"170 -114 OFFCURVE",
"105 -114 CURVE SMOOTH",
"87 -114 OFFCURVE",
"70 -110 OFFCURVE",
"61 -93 CURVE",
"57 -93 OFFCURVE",
"55 -96 OFFCURVE",
"55 -102 CURVE SMOOTH",
"55 -112 OFFCURVE",
"72 -126 OFFCURVE",
"106 -126 CURVE SMOOTH",
"176 -126 OFFCURVE",
"227 -75 OFFCURVE",
"227 4 CURVE SMOOTH",
"227 88 OFFCURVE",
"168 155 OFFCURVE",
"85 155 CURVE SMOOTH",
"-28 155 OFFCURVE",
"-108 59 OFFCURVE",
"-108 -57 CURVE SMOOTH",
"-108 -180 OFFCURVE",
"-15 -277 OFFCURVE",
"106 -277 CURVE SMOOTH"
);
}
);
userData = {
assembly = "NPUSHB[ ]	/* 45 values pushed */\0121 94 94 64 95 0 86 81 65 39 35 29 1 0 88 83 79 75 69 63 59 58 50 43 33 25 19 12 9 3 1 0 54 7 16 46 7 22 92 16 71 2 1 19 70 \012SROUND[ ]	/* SuperRound */\012MDAP[1]	/* MoveDirectAbsPt */\012SHZ[1]	/* ShiftZoneByLastPoint */\012RTG[ ]	/* RoundToGrid */\012SVTCA[0]	/* SetFreedomAndProjectionVectorToAxis */\012MIAP[1]	/* MoveIndirectAbsPt */\012MDAP[1]	/* MoveDirectAbsPt */\012MDAP[1]	/* MoveDirectAbsPt */\012MDAP[1]	/* MoveDirectAbsPt */\012MIRP[11101]	/* MoveIndirectRelPt */\012SRP0[ ]	/* SetRefPoint0 */\012MIRP[11101]	/* MoveIndirectRelPt */\012SVTCA[1]	/* SetFreedomAndProjectionVectorToAxis */\012MDAP[0]	/* MoveDirectAbsPt */\012MDAP[0]	/* MoveDirectAbsPt */\012MDAP[0]	/* MoveDirectAbsPt */\012MDAP[0]	/* MoveDirectAbsPt */\012MDAP[0]	/* MoveDirectAbsPt */\012MDAP[0]	/* MoveDirectAbsPt */\012MDAP[0]	/* MoveDirectAbsPt */\012MDAP[0]	/* MoveDirectAbsPt */\012MDAP[0]	/* MoveDirectAbsPt */\012MDAP[0]	/* MoveDirectAbsPt */\012MDAP[0]	/* MoveDirectAbsPt */\012MDAP[0]	/* MoveDirectAbsPt */\012MDAP[0]	/* MoveDirectAbsPt */\012MDAP[0]	/* MoveDirectAbsPt */\012MDAP[0]	/* MoveDirectAbsPt */\012MDAP[0]	/* MoveDirectAbsPt */\012MDAP[0]	/* MoveDirectAbsPt */\012MDAP[0]	/* MoveDirectAbsPt */\012SVTCA[0]	/* SetFreedomAndProjectionVectorToAxis */\012MDAP[0]	/* MoveDirectAbsPt */\012MDAP[0]	/* MoveDirectAbsPt */\012MDAP[0]	/* MoveDirectAbsPt */\012MDAP[0]	/* MoveDirectAbsPt */\012MDAP[0]	/* MoveDirectAbsPt */\012MDAP[0]	/* MoveDirectAbsPt */\012MDAP[0]	/* MoveDirectAbsPt */\012MDAP[0]	/* MoveDirectAbsPt */\012IUP[1]	/* InterpolateUntPts */\012IUP[0]	/* InterpolateUntPts */\012SVTCA[1]	/* SetFreedomAndProjectionVectorToAxis */\012MD[0]	/* MeasureDistance */\012ROUND[00]	/* Round */\012PUSHW[ ]	/* 2 values pushed */\01219 94 \012MD[0]	/* MeasureDistance */\012ROUND[00]	/* Round */\012SUB[ ]	/* Subtract */\012PUSHB[ ]	/* 1 value pushed */\01264 \012GT[ ]	/* GreaterThan */\012IF[ ]	/* If */\012SHPIX[ ]	/* ShiftZoneByPixel */\012SRP1[ ]	/* SetRefPoint1 */\012SHZ[1]	/* ShiftZoneByLastPoint */\012PUSHW[ ]	/* 2 values pushed */\01294 -64 \012SHPIX[ ]	/* ShiftZoneByPixel */\012EIF[ ]	/* EndIf */";
};
width = 486;
}
);
note = J;
unicode = 004A;
},
{
glyphname = K;
lastChange = "2022-03-02 21:03:53 +0000";
layers = (
{
layerId = "423D2297-FAE2-4393-80D6-0A1E9777D337";
paths = (
{
closed = 1;
nodes = (
"458 -119 OFFCURVE",
"576 32 OFFCURVE",
"582 277 CURVE",
"644 264 OFFCURVE",
"685 207 OFFCURVE",
"718 117 CURVE SMOOTH",
"755 15 OFFCURVE",
"800 -61 OFFCURVE",
"905 -61 CURVE SMOOTH",
"954 -61 OFFCURVE",
"978 -46 OFFCURVE",
"978 -16 CURVE SMOOTH",
"978 1 OFFCURVE",
"975 10 OFFCURVE",
"969 10 CURVE SMOOTH",
"966 10 OFFCURVE",
"964 7 OFFCURVE",
"963 0 CURVE SMOOTH",
"962 -4 OFFCURVE",
"962 -8 OFFCURVE",
"961 -12 CURVE",
"959 -36 OFFCURVE",
"947 -48 OFFCURVE",
"918 -48 CURVE SMOOTH",
"867 -48 OFFCURVE",
"802 54 OFFCURVE",
"767 127 CURVE SMOOTH",
"733 198 OFFCURVE",
"709 276 OFFCURVE",
"614 280 CURVE",
"707 290 OFFCURVE",
"797 363 OFFCURVE",
"849 450 CURVE SMOOTH",
"866 478 OFFCURVE",
"881 510 OFFCURVE",
"895 545 CURVE SMOOTH",
"912 588 OFFCURVE",
"931 609 OFFCURVE",
"953 609 CURVE SMOOTH",
"964 609 OFFCURVE",
"973 605 OFFCURVE",
"982 596 CURVE SMOOTH",
"994 583 LINE",
"997 583 OFFCURVE",
"999 585 OFFCURVE",
"999 589 CURVE SMOOTH",
"999 608 OFFCURVE",
"965 622 OFFCURVE",
"945 622 CURVE SMOOTH",
"886 622 OFFCURVE",
"858 564 OFFCURVE",
"819 484 CURVE SMOOTH",
"772 380 OFFCURVE",
"687 286 OFFCURVE",
"582 286 CURVE",
"582 301 OFFCURVE",
"576 410 OFFCURVE",
"576 424 CURVE SMOOTH",
"576 510 OFFCURVE",
"594 575 OFFCURVE",
"633 617 CURVE SMOOTH",
"647 632 LINE",
"647 634 OFFCURVE",
"631 634 OFFCURVE",
"622 634 CURVE SMOOTH",
"506 634 OFFCURVE",
"340 567 OFFCURVE",
"340 460 CURVE SMOOTH",
"340 416 OFFCURVE",
"369 385 OFFCURVE",
"413 385 CURVE SMOOTH",
"458 385 OFFCURVE",
"497 417 OFFCURVE",
"497 461 CURVE SMOOTH",
"497 469 OFFCURVE",
"493 494 OFFCURVE",
"485 494 CURVE SMOOTH",
"481 494 OFFCURVE",
"479 492 OFFCURVE",
"479 489 CURVE SMOOTH",
"479 487 OFFCURVE",
"484 471 OFFCURVE",
"484 463 CURVE SMOOTH",
"484 426 OFFCURVE",
"456 400 OFFCURVE",
"421 400 CURVE SMOOTH",
"388 400 OFFCURVE",
"362 425 OFFCURVE",
"362 458 CURVE SMOOTH",
"362 560 OFFCURVE",
"500 623 OFFCURVE",
"614 623 CURVE SMOOTH",
"619 623 LINE",
"554 589 OFFCURVE",
"535 515 OFFCURVE",
"535 348 CURVE SMOOTH",
"535 106 OFFCURVE",
"448 -106 OFFCURVE",
"228 -106 CURVE SMOOTH",
"120 -106 OFFCURVE",
"35 -18 OFFCURVE",
"35 91 CURVE SMOOTH",
"35 195 OFFCURVE",
"105 274 OFFCURVE",
"208 274 CURVE SMOOTH",
"284 274 OFFCURVE",
"338 219 OFFCURVE",
"338 144 CURVE SMOOTH",
"338 77 OFFCURVE",
"297 31 OFFCURVE",
"230 31 CURVE SMOOTH",
"210 31 OFFCURVE",
"198 38 OFFCURVE",
"192 43 CURVE SMOOTH",
"184 49 OFFCURVE",
"183 54 OFFCURVE",
"181 54 CURVE SMOOTH",
"179 54 OFFCURVE",
"178 53 OFFCURVE",
"178 50 CURVE SMOOTH",
"178 37 OFFCURVE",
"195 21 OFFCURVE",
"230 21 CURVE SMOOTH",
"301 21 OFFCURVE",
"352 69 OFFCURVE",
"352 144 CURVE SMOOTH",
"352 227 OFFCURVE",
"291 285 OFFCURVE",
"208 285 CURVE SMOOTH",
"97 285 OFFCURVE",
"9 202 OFFCURVE",
"9 91 CURVE SMOOTH",
"9 -32 OFFCURVE",
"109 -119 OFFCURVE",
"230 -119 CURVE SMOOTH"
);
}
);
userData = {
assembly = "NPUSHB[ ]	/* 51 values pushed */\0121 140 140 64 141 0 137 129 111 104 96 88 87 80 74 68 65 61 55 43 29 5 2 126 122 114 108 102 99 93 92 87 85 84 77 71 63 58 52 31 13 0 23 7 33 48 118 3 1 52 70 \012SROUND[ ]	/* SuperRound */\012MDAP[1]	/* MoveDirectAbsPt */\012SHZ[1]	/* ShiftZoneByLastPoint */\012RTG[ ]	/* RoundToGrid */\012SVTCA[0]	/* SetFreedomAndProjectionVectorToAxis */\012MIAP[1]	/* MoveIndirectAbsPt */\012MDAP[1]	/* MoveDirectAbsPt */\012MDAP[1]	/* MoveDirectAbsPt */\012MIRP[11101]	/* MoveIndirectRelPt */\012SVTCA[1]	/* SetFreedomAndProjectionVectorToAxis */\012MDAP[0]	/* MoveDirectAbsPt */\012MDAP[0]	/* MoveDirectAbsPt */\012MDAP[0]	/* MoveDirectAbsPt */\012MDAP[0]	/* MoveDirectAbsPt */\012MDAP[0]	/* MoveDirectAbsPt */\012MDAP[0]	/* MoveDirectAbsPt */\012MDAP[0]	/* MoveDirectAbsPt */\012MDAP[0]	/* MoveDirectAbsPt */\012MDAP[0]	/* MoveDirectAbsPt */\012MDAP[0]	/* MoveDirectAbsPt */\012MDAP[0]	/* MoveDirectAbsPt */\012MDAP[0]	/* MoveDirectAbsPt */\012MDAP[0]	/* MoveDirectAbsPt */\012MDAP[0]	/* MoveDirectAbsPt */\012MDAP[0]	/* MoveDirectAbsPt */\012MDAP[0]	/* MoveDirectAbsPt */\012MDAP[0]	/* MoveDirectAbsPt */\012MDAP[0]	/* MoveDirectAbsPt */\012MDAP[0]	/* MoveDirectAbsPt */\012SVTCA[0]	/* SetFreedomAndProjectionVectorToAxis */\012MDAP[0]	/* MoveDirectAbsPt */\012MDAP[0]	/* MoveDirectAbsPt */\012MDAP[0]	/* MoveDirectAbsPt */\012MDAP[0]	/* MoveDirectAbsPt */\012MDAP[0]	/* MoveDirectAbsPt */\012MDAP[0]	/* MoveDirectAbsPt */\012MDAP[0]	/* MoveDirectAbsPt */\012MDAP[0]	/* MoveDirectAbsPt */\012MDAP[0]	/* MoveDirectAbsPt */\012MDAP[0]	/* MoveDirectAbsPt */\012MDAP[0]	/* MoveDirectAbsPt */\012MDAP[0]	/* MoveDirectAbsPt */\012MDAP[0]	/* MoveDirectAbsPt */\012MDAP[0]	/* MoveDirectAbsPt */\012MDAP[0]	/* MoveDirectAbsPt */\012MDAP[0]	/* MoveDirectAbsPt */\012MDAP[0]	/* MoveDirectAbsPt */\012IUP[1]	/* InterpolateUntPts */\012IUP[0]	/* InterpolateUntPts */\012SVTCA[1]	/* SetFreedomAndProjectionVectorToAxis */\012MD[0]	/* MeasureDistance */\012ROUND[00]	/* Round */\012PUSHW[ ]	/* 2 values pushed */\01252 140 \012MD[0]	/* MeasureDistance */\012ROUND[00]	/* Round */\012SUB[ ]	/* Subtract */\012PUSHB[ ]	/* 1 value pushed */\01264 \012GT[ ]	/* GreaterThan */\012IF[ ]	/* If */\012SHPIX[ ]	/* ShiftZoneByPixel */\012SRP1[ ]	/* SetRefPoint1 */\012SHZ[1]	/* ShiftZoneByLastPoint */\012PUSHW[ ]	/* 2 values pushed */\012140 -64 \012SHPIX[ ]	/* ShiftZoneByPixel */\012EIF[ ]	/* EndIf */";
};
width = 884;
}
);
note = K;
unicode = 004B;
},
{
glyphname = L;
lastChange = "2022-03-02 21:03:53 +0000";
layers = (
{
layerId = "423D2297-FAE2-4393-80D6-0A1E9777D337";
paths = (
{
closed = 1;
nodes = (
"543 -124 OFFCURVE",
"591 -80 OFFCURVE",
"591 -19 CURVE SMOOTH",
"591 0 OFFCURVE",
"588 17 OFFCURVE",
"580 17 CURVE SMOOTH",
"576 17 OFFCURVE",
"575 14 OFFCURVE",
"575 11 CURVE",
"577 2 OFFCURVE",
"578 -7 OFFCURVE",
"578 -15 CURVE SMOOTH",
"578 -56 OFFCURVE",
"552 -85 OFFCURVE",
"498 -85 CURVE SMOOTH",
"423 -85 OFFCURVE",
"293 -31 OFFCURVE",
"223 16 CURVE",
"292 89 OFFCURVE",
"314 180 OFFCURVE",
"327 311 CURVE",
"386 320 OFFCURVE",
"441 358 OFFCURVE",
"479 406 CURVE SMOOTH",
"515 453 OFFCURVE",
"537 508 OFFCURVE",
"537 552 CURVE SMOOTH",
"537 597 OFFCURVE",
"513 631 OFFCURVE",
"458 631 CURVE SMOOTH",
"349 631 OFFCURVE",
"296 471 OFFCURVE",
"280 325 CURVE",
"157 325 OFFCURVE",
"53 406 OFFCURVE",
"53 523 CURVE SMOOTH",
"53 587 OFFCURVE",
"75 619 OFFCURVE",
"118 619 CURVE SMOOTH",
"154 619 OFFCURVE",
"182 598 OFFCURVE",
"202 555 CURVE SMOOTH",
"203 552 OFFCURVE",
"205 548 OFFCURVE",
"211 548 CURVE SMOOTH",
"215 548 OFFCURVE",
"217 551 OFFCURVE",
"217 558 CURVE",
"202 602 OFFCURVE",
"161 635 OFFCURVE",
"116 635 CURVE SMOOTH",
"89 635 OFFCURVE",
"69 624 OFFCURVE",
"54 603 CURVE SMOOTH",
"42 584 OFFCURVE",
"36 561 OFFCURVE",
"36 532 CURVE SMOOTH",
"36 406 OFFCURVE",
"135 309 OFFCURVE",
"278 309 CURVE",
"254 170 OFFCURVE",
"227 80 OFFCURVE",
"196 37 CURVE",
"103 102 OFFCURVE",
"34 134 OFFCURVE",
"-13 134 CURVE SMOOTH",
"-46 134 OFFCURVE",
"-62 120 OFFCURVE",
"-62 92 CURVE SMOOTH",
"-62 10 OFFCURVE",
"10 -35 OFFCURVE",
"93 -35 CURVE SMOOTH",
"134 -35 OFFCURVE",
"169 -24 OFFCURVE",
"200 -2 CURVE",
"308 -75 OFFCURVE",
"390 -124 OFFCURVE",
"474 -124 CURVE SMOOTH"
);
},
{
closed = 1;
nodes = (
"31 -19 OFFCURVE",
"-42 34 OFFCURVE",
"-42 83 CURVE SMOOTH",
"-42 98 OFFCURVE",
"-33 106 OFFCURVE",
"-14 106 CURVE SMOOTH",
"22 106 OFFCURVE",
"85 75 OFFCURVE",
"175 14 CURVE",
"151 -8 OFFCURVE",
"122 -19 OFFCURVE",
"87 -19 CURVE SMOOTH"
);
},
{
closed = 1;
nodes = (
"340 453 OFFCURVE",
"375 608 OFFCURVE",
"473 608 CURVE SMOOTH",
"505 608 OFFCURVE",
"518 582 OFFCURVE",
"518 548 CURVE SMOOTH",
"518 507 OFFCURVE",
"500 455 OFFCURVE",
"470 417 CURVE SMOOTH",
"435 372 OFFCURVE",
"384 337 OFFCURVE",
"328 328 CURVE"
);
}
);
userData = {
assembly = "NPUSHB[ ]	/* 45 values pushed */\0121 100 100 64 101 20 98 96 88 80 74 66 60 56 40 38 28 26 18 11 90 86 84 80 62 54 53 46 42 36 20 16 13 7 0 22 72 3 50 3 24 1 1 36 70 \012SROUND[ ]	/* SuperRound */\012MDAP[1]	/* MoveDirectAbsPt */\012SHZ[1]	/* ShiftZoneByLastPoint */\012RTG[ ]	/* RoundToGrid */\012SVTCA[0]	/* SetFreedomAndProjectionVectorToAxis */\012MIAP[1]	/* MoveIndirectAbsPt */\012MIAP[1]	/* MoveIndirectAbsPt */\012MIAP[1]	/* MoveIndirectAbsPt */\012MDAP[1]	/* MoveDirectAbsPt */\012SVTCA[1]	/* SetFreedomAndProjectionVectorToAxis */\012MDAP[0]	/* MoveDirectAbsPt */\012MDAP[0]	/* MoveDirectAbsPt */\012MDAP[0]	/* MoveDirectAbsPt */\012MDAP[0]	/* MoveDirectAbsPt */\012MDAP[0]	/* MoveDirectAbsPt */\012MDAP[0]	/* MoveDirectAbsPt */\012MDAP[0]	/* MoveDirectAbsPt */\012MDAP[0]	/* MoveDirectAbsPt */\012MDAP[0]	/* MoveDirectAbsPt */\012MDAP[0]	/* MoveDirectAbsPt */\012MDAP[0]	/* MoveDirectAbsPt */\012MDAP[0]	/* MoveDirectAbsPt */\012MDAP[0]	/* MoveDirectAbsPt */\012MDAP[0]	/* MoveDirectAbsPt */\012MDAP[0]	/* MoveDirectAbsPt */\012SVTCA[0]	/* SetFreedomAndProjectionVectorToAxis */\012MDAP[0]	/* MoveDirectAbsPt */\012MDAP[0]	/* MoveDirectAbsPt */\012MDAP[0]	/* MoveDirectAbsPt */\012MDAP[0]	/* MoveDirectAbsPt */\012MDAP[0]	/* MoveDirectAbsPt */\012MDAP[0]	/* MoveDirectAbsPt */\012MDAP[0]	/* MoveDirectAbsPt */\012MDAP[0]	/* MoveDirectAbsPt */\012MDAP[0]	/* MoveDirectAbsPt */\012MDAP[0]	/* MoveDirectAbsPt */\012MDAP[0]	/* MoveDirectAbsPt */\012MDAP[0]	/* MoveDirectAbsPt */\012MDAP[0]	/* MoveDirectAbsPt */\012MDAP[0]	/* MoveDirectAbsPt */\012IUP[1]	/* InterpolateUntPts */\012IUP[0]	/* InterpolateUntPts */\012SVTCA[1]	/* SetFreedomAndProjectionVectorToAxis */\012MD[0]	/* MeasureDistance */\012ROUND[00]	/* Round */\012PUSHW[ ]	/* 2 values pushed */\01236 100 \012MD[0]	/* MeasureDistance */\012ROUND[00]	/* Round */\012SUB[ ]	/* Subtract */\012PUSHB[ ]	/* 1 value pushed */\01264 \012GT[ ]	/* GreaterThan */\012IF[ ]	/* If */\012SHPIX[ ]	/* ShiftZoneByPixel */\012SRP1[ ]	/* SetRefPoint1 */\012SHZ[1]	/* ShiftZoneByLastPoint */\012PUSHW[ ]	/* 2 values pushed */\012100 -64 \012SHPIX[ ]	/* ShiftZoneByPixel */\012EIF[ ]	/* EndIf */";
};
width = 465;
}
);
note = L;
unicode = 004C;
},
{
glyphname = M;
lastChange = "2022-03-02 21:03:53 +0000";
layers = (
{
layerId = "423D2297-FAE2-4393-80D6-0A1E9777D337";
paths = (
{
closed = 1;
nodes = (
"215 -57 OFFCURVE",
"278 -21 OFFCURVE",
"313 36 CURVE SMOOTH",
"370 129 OFFCURVE",
"355 304 OFFCURVE",
"385 430 CURVE SMOOTH",
"406 520 OFFCURVE",
"434 581 OFFCURVE",
"468 613 CURVE",
"457 580 OFFCURVE",
"451 547 OFFCURVE",
"451 515 CURVE SMOOTH",
"451 406 OFFCURVE",
"471 283 OFFCURVE",
"510 148 CURVE SMOOTH",
"523 103 OFFCURVE",
"530 76 OFFCURVE",
"535 48 CURVE SMOOTH",
"538 35 OFFCURVE",
"541 18 OFFCURVE",
"553 18 CURVE SMOOTH",
"560 18 OFFCURVE",
"566 31 OFFCURVE",
"585 67 CURVE SMOOTH",
"617 128 OFFCURVE",
"703 431 OFFCURVE",
"744 515 CURVE SMOOTH",
"785 600 OFFCURVE",
"826 642 OFFCURVE",
"865 641 CURVE",
"790 566 OFFCURVE",
"753 398 OFFCURVE",
"753 273 CURVE SMOOTH",
"753 130 OFFCURVE",
"782 35 OFFCURVE",
"839 -11 CURVE SMOOTH",
"857 -26 OFFCURVE",
"876 -33 OFFCURVE",
"897 -33 CURVE SMOOTH",
"941 -33 OFFCURVE",
"984 9 OFFCURVE",
"984 53 CURVE SMOOTH",
"984 79 OFFCURVE",
"975 92 OFFCURVE",
"957 92 CURVE SMOOTH",
"954 92 OFFCURVE",
"953 91 OFFCURVE",
"953 89 CURVE",
"962 80 LINE SMOOTH",
"969 73 OFFCURVE",
"971 64 OFFCURVE",
"971 52 CURVE SMOOTH",
"971 20 OFFCURVE",
"946 -14 OFFCURVE",
"914 -14 CURVE SMOOTH",
"901 -14 OFFCURVE",
"889 -8 OFFCURVE",
"877 3 CURVE SMOOTH",
"833 44 OFFCURVE",
"811 133 OFFCURVE",
"811 270 CURVE SMOOTH",
"811 384 OFFCURVE",
"837 559 OFFCURVE",
"892 639 CURVE",
"912 635 OFFCURVE",
"932 627 OFFCURVE",
"952 627 CURVE SMOOTH",
"986 627 OFFCURVE",
"1005 639 OFFCURVE",
"1005 662 CURVE SMOOTH",
"1005 681 OFFCURVE",
"990 692 OFFCURVE",
"964 692 CURVE SMOOTH",
"933 692 OFFCURVE",
"904 677 OFFCURVE",
"878 653 CURVE",
"870 653 LINE SMOOTH",
"807 653 OFFCURVE",
"750 594 OFFCURVE",
"700 476 CURVE SMOOTH",
"671 410 OFFCURVE",
"593 101 OFFCURVE",
"564 65 CURVE",
"564 110 OFFCURVE",
"555 183 OFFCURVE",
"550 206 CURVE SMOOTH",
"536 264 OFFCURVE",
"522 322 OFFCURVE",
"509 380 CURVE SMOOTH",
"494 449 OFFCURVE",
"486 508 OFFCURVE",
"486 557 CURVE SMOOTH",
"486 577 OFFCURVE",
"488 594 OFFCURVE",
"491 607 CURVE",
"534 605 OFFCURVE",
"584 615 OFFCURVE",
"584 645 CURVE SMOOTH",
"584 659 OFFCURVE",
"573 666 OFFCURVE",
"550 666 CURVE SMOOTH",
"520 666 OFFCURVE",
"490 652 OFFCURVE",
"459 624 CURVE",
"368 651 OFFCURVE",
"307 664 OFFCURVE",
"277 664 CURVE SMOOTH",
"160 664 OFFCURVE",
"55 593 OFFCURVE",
"55 475 CURVE SMOOTH",
"55 398 OFFCURVE",
"109 338 OFFCURVE",
"186 338 CURVE SMOOTH",
"264 338 OFFCURVE",
"331 388 OFFCURVE",
"331 466 CURVE SMOOTH",
"331 509 OFFCURVE",
"306 541 OFFCURVE",
"265 541 CURVE SMOOTH",
"242 541 OFFCURVE",
"215 522 OFFCURVE",
"216 501 CURVE",
"217 500 OFFCURVE",
"219 499 OFFCURVE",
"220 499 CURVE SMOOTH",
"223 499 OFFCURVE",
"224 500 OFFCURVE",
"224 502 CURVE",
"228 521 OFFCURVE",
"241 530 OFFCURVE",
"264 530 CURVE SMOOTH",
"297 530 OFFCURVE",
"315 502 OFFCURVE",
"315 467 CURVE SMOOTH",
"315 398 OFFCURVE",
"256 350 OFFCURVE",
"187 350 CURVE SMOOTH",
"123 350 OFFCURVE",
"84 407 OFFCURVE",
"84 473 CURVE SMOOTH",
"84 579 OFFCURVE",
"166 649 OFFCURVE",
"274 649 CURVE SMOOTH",
"344 649 OFFCURVE",
"400 621 OFFCURVE",
"449 614 CURVE",
"412 574 OFFCURVE",
"387 510 OFFCURVE",
"369 436 CURVE SMOOTH",
"357 384 OFFCURVE",
"350 330 OFFCURVE",
"344 277 CURVE SMOOTH",
"323 116 OFFCURVE",
"278 -47 OFFCURVE",
"139 -47 CURVE SMOOTH",
"65 -47 OFFCURVE",
"24 24 OFFCURVE",
"24 101 CURVE SMOOTH",
"24 200 OFFCURVE",
"83 300 OFFCURVE",
"170 300 CURVE SMOOTH",
"232 300 OFFCURVE",
"268 241 OFFCURVE",
"268 176 CURVE SMOOTH",
"268 122 OFFCURVE",
"239 51 OFFCURVE",
"184 51 CURVE SMOOTH",
"155 51 OFFCURVE",
"134 75 OFFCURVE",
"134 104 CURVE SMOOTH",
"134 109 OFFCURVE",
"135 115 OFFCURVE",
"137 122 CURVE SMOOTH",
"139 129 OFFCURVE",
"140 134 OFFCURVE",
"140 136 CURVE SMOOTH",
"140 138 OFFCURVE",
"139 139 OFFCURVE",
"137 139 CURVE SMOOTH",
"127 139 OFFCURVE",
"122 127 OFFCURVE",
"122 103 CURVE SMOOTH",
"122 68 OFFCURVE",
"150 44 OFFCURVE",
"185 44 CURVE SMOOTH",
"248 44 OFFCURVE",
"281 107 OFFCURVE",
"281 175 CURVE SMOOTH",
"281 246 OFFCURVE",
"244 308 OFFCURVE",
"172 308 CURVE SMOOTH",
"84 308 OFFCURVE",
"-7 210 OFFCURVE",
"-7 108 CURVE SMOOTH",
"-7 13 OFFCURVE",
"55 -57 OFFCURVE",
"149 -57 CURVE SMOOTH"
);
},
{
closed = 1;
nodes = (
"502 615 OFFCURVE",
"496 615 OFFCURVE",
"493 616 CURVE",
"500 637 OFFCURVE",
"523 658 OFFCURVE",
"546 658 CURVE SMOOTH",
"559 658 OFFCURVE",
"566 653 OFFCURVE",
"566 643 CURVE SMOOTH",
"566 624 OFFCURVE",
"533 615 OFFCURVE",
"509 615 CURVE SMOOTH"
);
},
{
closed = 1;
nodes = (
"942 639 OFFCURVE",
"919 646 OFFCURVE",
"902 651 CURVE",
"918 672 OFFCURVE",
"938 683 OFFCURVE",
"962 683 CURVE SMOOTH",
"981 683 OFFCURVE",
"991 676 OFFCURVE",
"991 661 CURVE SMOOTH",
"991 647 OFFCURVE",
"978 639 OFFCURVE",
"954 639 CURVE SMOOTH"
);
}
);
userData = {
assembly = "NPUSHB[ ]	/* 71 values pushed */\0121 206 206 64 207 160 202 197 187 180 172 164 162 156 155 149 136 134 132 125 118 113 109 95 79 69 61 53 48 40 24 16 0 200 195 189 185 182 178 175 168 160 143 138 128 121 115 106 99 89 75 65 58 55 51 44 36 24 22 8 4 158 32 103 2 193 8 3 1 36 70 \012SROUND[ ]	/* SuperRound */\012MDAP[1]	/* MoveDirectAbsPt */\012SHZ[1]	/* ShiftZoneByLastPoint */\012RTG[ ]	/* RoundToGrid */\012SVTCA[0]	/* SetFreedomAndProjectionVectorToAxis */\012MIAP[1]	/* MoveIndirectAbsPt */\012ALIGNRP[ ]	/* AlignRelativePt */\012MIAP[1]	/* MoveIndirectAbsPt */\012MDAP[1]	/* MoveDirectAbsPt */\012MDAP[1]	/* MoveDirectAbsPt */\012SVTCA[1]	/* SetFreedomAndProjectionVectorToAxis */\012MDAP[0]	/* MoveDirectAbsPt */\012MDAP[0]	/* MoveDirectAbsPt */\012MDAP[0]	/* MoveDirectAbsPt */\012MDAP[0]	/* MoveDirectAbsPt */\012MDAP[0]	/* MoveDirectAbsPt */\012MDAP[0]	/* MoveDirectAbsPt */\012MDAP[0]	/* MoveDirectAbsPt */\012MDAP[0]	/* MoveDirectAbsPt */\012MDAP[0]	/* MoveDirectAbsPt */\012MDAP[0]	/* MoveDirectAbsPt */\012MDAP[0]	/* MoveDirectAbsPt */\012MDAP[0]	/* MoveDirectAbsPt */\012MDAP[0]	/* MoveDirectAbsPt */\012MDAP[0]	/* MoveDirectAbsPt */\012MDAP[0]	/* MoveDirectAbsPt */\012MDAP[0]	/* MoveDirectAbsPt */\012MDAP[0]	/* MoveDirectAbsPt */\012MDAP[0]	/* MoveDirectAbsPt */\012MDAP[0]	/* MoveDirectAbsPt */\012MDAP[0]	/* MoveDirectAbsPt */\012MDAP[0]	/* MoveDirectAbsPt */\012MDAP[0]	/* MoveDirectAbsPt */\012MDAP[0]	/* MoveDirectAbsPt */\012MDAP[0]	/* MoveDirectAbsPt */\012MDAP[0]	/* MoveDirectAbsPt */\012MDAP[0]	/* MoveDirectAbsPt */\012MDAP[0]	/* MoveDirectAbsPt */\012MDAP[0]	/* MoveDirectAbsPt */\012SVTCA[0]	/* SetFreedomAndProjectionVectorToAxis */\012MDAP[0]	/* MoveDirectAbsPt */\012MDAP[0]	/* MoveDirectAbsPt */\012MDAP[0]	/* MoveDirectAbsPt */\012MDAP[0]	/* MoveDirectAbsPt */\012MDAP[0]	/* MoveDirectAbsPt */\012MDAP[0]	/* MoveDirectAbsPt */\012MDAP[0]	/* MoveDirectAbsPt */\012MDAP[0]	/* MoveDirectAbsPt */\012MDAP[0]	/* MoveDirectAbsPt */\012MDAP[0]	/* MoveDirectAbsPt */\012MDAP[0]	/* MoveDirectAbsPt */\012MDAP[0]	/* MoveDirectAbsPt */\012MDAP[0]	/* MoveDirectAbsPt */\012MDAP[0]	/* MoveDirectAbsPt */\012MDAP[0]	/* MoveDirectAbsPt */\012MDAP[0]	/* MoveDirectAbsPt */\012MDAP[0]	/* MoveDirectAbsPt */\012MDAP[0]	/* MoveDirectAbsPt */\012MDAP[0]	/* MoveDirectAbsPt */\012MDAP[0]	/* MoveDirectAbsPt */\012MDAP[0]	/* MoveDirectAbsPt */\012MDAP[0]	/* MoveDirectAbsPt */\012MDAP[0]	/* MoveDirectAbsPt */\012MDAP[0]	/* MoveDirectAbsPt */\012MDAP[0]	/* MoveDirectAbsPt */\012MDAP[0]	/* MoveDirectAbsPt */\012MDAP[0]	/* MoveDirectAbsPt */\012IUP[1]	/* InterpolateUntPts */\012IUP[0]	/* InterpolateUntPts */\012SVTCA[1]	/* SetFreedomAndProjectionVectorToAxis */\012MD[0]	/* MeasureDistance */\012ROUND[00]	/* Round */\012PUSHW[ ]	/* 2 values pushed */\01236 206 \012MD[0]	/* MeasureDistance */\012ROUND[00]	/* Round */\012SUB[ ]	/* Subtract */\012PUSHB[ ]	/* 1 value pushed */\01264 \012GT[ ]	/* GreaterThan */\012IF[ ]	/* If */\012SHPIX[ ]	/* ShiftZoneByPixel */\012SRP1[ ]	/* SetRefPoint1 */\012SHZ[1]	/* ShiftZoneByLastPoint */\012PUSHW[ ]	/* 2 values pushed */\012206 -64 \012SHPIX[ ]	/* ShiftZoneByPixel */\012EIF[ ]	/* EndIf */";
};
width = 985;
}
);
note = M;
unicode = 004D;
},
{
glyphname = N;
lastChange = "2022-03-02 21:03:53 +0000";
layers = (
{
layerId = "423D2297-FAE2-4393-80D6-0A1E9777D337";
paths = (
{
closed = 1;
nodes = (
"340 -68 OFFCURVE",
"423 -27 OFFCURVE",
"475 37 CURVE SMOOTH",
"588 178 OFFCURVE",
"546 358 OFFCURVE",
"586 509 CURVE SMOOTH",
"598 554 OFFCURVE",
"615 584 OFFCURVE",
"637 599 CURVE",
"622 565 OFFCURVE",
"614 530 OFFCURVE",
"614 493 CURVE SMOOTH",
"614 437 OFFCURVE",
"652 356 OFFCURVE",
"696 272 CURVE SMOOTH",
"742 186 OFFCURVE",
"795 98 OFFCURVE",
"823 30 CURVE SMOOTH",
"827 19 OFFCURVE",
"829 9 OFFCURVE",
"829 -1 CURVE SMOOTH",
"829 -10 OFFCURVE",
"826 -24 OFFCURVE",
"822 -27 CURVE",
"822 -29 OFFCURVE",
"830 -30 OFFCURVE",
"835 -30 CURVE SMOOTH",
"839 -30 OFFCURVE",
"841 -30 OFFCURVE",
"842 -29 CURVE",
"917 19 OFFCURVE",
"920 135 OFFCURVE",
"920 330 CURVE SMOOTH",
"920 481 OFFCURVE",
"943 652 OFFCURVE",
"1040 652 CURVE SMOOTH",
"1086 652 OFFCURVE",
"1112 611 OFFCURVE",
"1112 566 CURVE SMOOTH",
"1112 535 OFFCURVE",
"1107 514 OFFCURVE",
"1096 495 CURVE SMOOTH",
"1083 472 OFFCURVE",
"1060 461 OFFCURVE",
"1033 461 CURVE SMOOTH",
"1025 461 OFFCURVE",
"1020 459 OFFCURVE",
"1020 456 CURVE SMOOTH",
"1020 452 OFFCURVE",
"1023 450 OFFCURVE",
"1033 450 CURVE SMOOTH",
"1066 450 OFFCURVE",
"1090 461 OFFCURVE",
"1107 488 CURVE SMOOTH",
"1122 511 OFFCURVE",
"1126 539 OFFCURVE",
"1126 567 CURVE SMOOTH",
"1126 624 OFFCURVE",
"1092 663 OFFCURVE",
"1041 663 CURVE SMOOTH",
"914 663 OFFCURVE",
"901 496 OFFCURVE",
"901 329 CURVE SMOOTH",
"901 85 OFFCURVE",
"884 11 OFFCURVE",
"839 -17 CURVE",
"848 1 OFFCURVE",
"853 24 OFFCURVE",
"853 52 CURVE SMOOTH",
"853 107 OFFCURVE",
"803 208 OFFCURVE",
"744 315 CURVE SMOOTH",
"690 417 OFFCURVE",
"652 473 OFFCURVE",
"652 562 CURVE SMOOTH",
"652 575 OFFCURVE",
"654 585 OFFCURVE",
"657 593 CURVE",
"678 587 OFFCURVE",
"700 582 OFFCURVE",
"716 582 CURVE SMOOTH",
"743 582 OFFCURVE",
"758 594 OFFCURVE",
"758 610 CURVE SMOOTH",
"758 629 OFFCURVE",
"740 637 OFFCURVE",
"715 637 CURVE SMOOTH",
"690 637 OFFCURVE",
"653 631 OFFCURVE",
"632 610 CURVE",
"506 653 OFFCURVE",
"431 684 OFFCURVE",
"343 684 CURVE SMOOTH",
"156 684 OFFCURVE",
"12 586 OFFCURVE",
"12 412 CURVE SMOOTH",
"12 357 OFFCURVE",
"27 309 OFFCURVE",
"58 270 CURVE",
"33 234 OFFCURVE",
"21 194 OFFCURVE",
"21 149 CURVE SMOOTH",
"21 25 OFFCURVE",
"123 -68 OFFCURVE",
"248 -68 CURVE SMOOTH"
);
},
{
closed = 1;
nodes = (
"179 199 OFFCURVE",
"130 223 OFFCURVE",
"88 271 CURVE",
"120 311 OFFCURVE",
"159 331 OFFCURVE",
"206 331 CURVE SMOOTH",
"270 331 OFFCURVE",
"320 288 OFFCURVE",
"336 226 CURVE",
"303 208 OFFCURVE",
"270 199 OFFCURVE",
"235 199 CURVE SMOOTH"
);
},
{
closed = 1;
nodes = (
"128 -53 OFFCURVE",
"48 29 OFFCURVE",
"48 152 CURVE SMOOTH",
"48 188 OFFCURVE",
"57 221 OFFCURVE",
"75 251 CURVE",
"118 206 OFFCURVE",
"174 183 OFFCURVE",
"235 183 CURVE SMOOTH",
"278 183 OFFCURVE",
"310 191 OFFCURVE",
"340 207 CURVE",
"341 202 OFFCURVE",
"342 194 OFFCURVE",
"342 183 CURVE SMOOTH",
"342 126 OFFCURVE",
"302 78 OFFCURVE",
"246 78 CURVE SMOOTH",
"237 78 OFFCURVE",
"230 79 OFFCURVE",
"227 79 CURVE SMOOTH",
"222 79 OFFCURVE",
"221 77 OFFCURVE",
"221 73 CURVE SMOOTH",
"221 67 OFFCURVE",
"236 65 OFFCURVE",
"253 65 CURVE SMOOTH",
"284 65 OFFCURVE",
"310 78 OFFCURVE",
"330 104 CURVE SMOOTH",
"349 128 OFFCURVE",
"358 156 OFFCURVE",
"358 189 CURVE SMOOTH",
"358 195 OFFCURVE",
"357 204 OFFCURVE",
"356 216 CURVE",
"423 260 OFFCURVE",
"457 323 OFFCURVE",
"457 404 CURVE SMOOTH",
"457 499 OFFCURVE",
"394 559 OFFCURVE",
"299 559 CURVE SMOOTH",
"230 559 OFFCURVE",
"175 512 OFFCURVE",
"175 443 CURVE SMOOTH",
"175 411 OFFCURVE",
"187 388 OFFCURVE",
"212 373 CURVE SMOOTH",
"218 370 OFFCURVE",
"223 368 OFFCURVE",
"226 368 CURVE",
"229 369 OFFCURVE",
"231 370 OFFCURVE",
"231 372 CURVE SMOOTH",
"231 375 OFFCURVE",
"228 377 OFFCURVE",
"222 377 CURVE",
"199 390 OFFCURVE",
"188 411 OFFCURVE",
"188 438 CURVE SMOOTH",
"188 499 OFFCURVE",
"242 541 OFFCURVE",
"305 541 CURVE SMOOTH",
"385 541 OFFCURVE",
"441 477 OFFCURVE",
"441 396 CURVE SMOOTH",
"441 329 OFFCURVE",
"411 275 OFFCURVE",
"352 234 CURVE",
"331 303 OFFCURVE",
"272 345 OFFCURVE",
"199 345 CURVE SMOOTH",
"149 345 OFFCURVE",
"107 327 OFFCURVE",
"74 290 CURVE",
"52 323 OFFCURVE",
"41 361 OFFCURVE",
"41 403 CURVE SMOOTH",
"41 569 OFFCURVE",
"176 656 OFFCURVE",
"361 656 CURVE SMOOTH",
"436 656 OFFCURVE",
"518 632 OFFCURVE",
"623 604 CURVE",
"602 588 OFFCURVE",
"586 559 OFFCURVE",
"575 519 CURVE SMOOTH",
"537 387 OFFCURVE",
"534 204 OFFCURVE",
"466 90 CURVE SMOOTH",
"407 -9 OFFCURVE",
"335 -53 OFFCURVE",
"251 -53 CURVE SMOOTH"
);
},
{
closed = 1;
nodes = (
"704 592 OFFCURVE",
"690 596 OFFCURVE",
"663 603 CURVE",
"674 620 OFFCURVE",
"691 628 OFFCURVE",
"714 628 CURVE SMOOTH",
"730 628 OFFCURVE",
"745 622 OFFCURVE",
"745 609 CURVE SMOOTH",
"745 598 OFFCURVE",
"731 592 OFFCURVE",
"714 592 CURVE SMOOTH"
);
}
);
userData = {
assembly = "NPUSHB[ ]	/* 90 values pushed */\0121 194 194 64 195 0 193 191 187 184 173 171 169 164 162 160 156 155 153 142 135 126 121 116 110 106 105 103 99 97 96 91 72 70 64 40 23 15 4 193 189 184 175 167 158 149 147 145 139 133 129 123 114 105 101 97 96 94 82 80 74 68 55 53 51 40 38 30 25 11 6 0 84 87 6 19 178 7 48 60 48 118 2 82 1 66 3 1 55 70 \012SROUND[ ]	/* SuperRound */\012MDAP[1]	/* MoveDirectAbsPt */\012SHZ[1]	/* ShiftZoneByLastPoint */\012RTG[ ]	/* RoundToGrid */\012SVTCA[0]	/* SetFreedomAndProjectionVectorToAxis */\012MIAP[1]	/* MoveIndirectAbsPt */\012MIAP[1]	/* MoveIndirectAbsPt */\012MIAP[1]	/* MoveIndirectAbsPt */\012MDAP[1]	/* MoveDirectAbsPt */\012MDAP[1]	/* MoveDirectAbsPt */\012SRP0[ ]	/* SetRefPoint0 */\012MIRP[11101]	/* MoveIndirectRelPt */\012SVTCA[1]	/* SetFreedomAndProjectionVectorToAxis */\012MDAP[1]	/* MoveDirectAbsPt */\012MIRP[11101]	/* MoveIndirectRelPt */\012ALIGNRP[ ]	/* AlignRelativePt */\012MDAP[0]	/* MoveDirectAbsPt */\012MDAP[0]	/* MoveDirectAbsPt */\012MDAP[0]	/* MoveDirectAbsPt */\012MDAP[0]	/* MoveDirectAbsPt */\012MDAP[0]	/* MoveDirectAbsPt */\012MDAP[0]	/* MoveDirectAbsPt */\012MDAP[0]	/* MoveDirectAbsPt */\012MDAP[0]	/* MoveDirectAbsPt */\012MDAP[0]	/* MoveDirectAbsPt */\012MDAP[0]	/* MoveDirectAbsPt */\012MDAP[0]	/* MoveDirectAbsPt */\012MDAP[0]	/* MoveDirectAbsPt */\012MDAP[0]	/* MoveDirectAbsPt */\012MDAP[0]	/* MoveDirectAbsPt */\012MDAP[0]	/* MoveDirectAbsPt */\012MDAP[0]	/* MoveDirectAbsPt */\012MDAP[0]	/* MoveDirectAbsPt */\012MDAP[0]	/* MoveDirectAbsPt */\012MDAP[0]	/* MoveDirectAbsPt */\012MDAP[0]	/* MoveDirectAbsPt */\012MDAP[0]	/* MoveDirectAbsPt */\012MDAP[0]	/* MoveDirectAbsPt */\012MDAP[0]	/* MoveDirectAbsPt */\012MDAP[0]	/* MoveDirectAbsPt */\012MDAP[0]	/* MoveDirectAbsPt */\012MDAP[0]	/* MoveDirectAbsPt */\012MDAP[0]	/* MoveDirectAbsPt */\012MDAP[0]	/* MoveDirectAbsPt */\012MDAP[0]	/* MoveDirectAbsPt */\012MDAP[0]	/* MoveDirectAbsPt */\012MDAP[0]	/* MoveDirectAbsPt */\012MDAP[0]	/* MoveDirectAbsPt */\012MDAP[0]	/* MoveDirectAbsPt */\012SVTCA[0]	/* SetFreedomAndProjectionVectorToAxis */\012MDAP[0]	/* MoveDirectAbsPt */\012MDAP[0]	/* MoveDirectAbsPt */\012MDAP[0]	/* MoveDirectAbsPt */\012MDAP[0]	/* MoveDirectAbsPt */\012MDAP[0]	/* MoveDirectAbsPt */\012MDAP[0]	/* MoveDirectAbsPt */\012MDAP[0]	/* MoveDirectAbsPt */\012MDAP[0]	/* MoveDirectAbsPt */\012MDAP[0]	/* MoveDirectAbsPt */\012MDAP[0]	/* MoveDirectAbsPt */\012MDAP[0]	/* MoveDirectAbsPt */\012MDAP[0]	/* MoveDirectAbsPt */\012MDAP[0]	/* MoveDirectAbsPt */\012MDAP[0]	/* MoveDirectAbsPt */\012MDAP[0]	/* MoveDirectAbsPt */\012MDAP[0]	/* MoveDirectAbsPt */\012MDAP[0]	/* MoveDirectAbsPt */\012MDAP[0]	/* MoveDirectAbsPt */\012MDAP[0]	/* MoveDirectAbsPt */\012MDAP[0]	/* MoveDirectAbsPt */\012MDAP[0]	/* MoveDirectAbsPt */\012MDAP[0]	/* MoveDirectAbsPt */\012MDAP[0]	/* MoveDirectAbsPt */\012MDAP[0]	/* MoveDirectAbsPt */\012MDAP[0]	/* MoveDirectAbsPt */\012MDAP[0]	/* MoveDirectAbsPt */\012MDAP[0]	/* MoveDirectAbsPt */\012MDAP[0]	/* MoveDirectAbsPt */\012MDAP[0]	/* MoveDirectAbsPt */\012MDAP[0]	/* MoveDirectAbsPt */\012MDAP[0]	/* MoveDirectAbsPt */\012MDAP[0]	/* MoveDirectAbsPt */\012MDAP[0]	/* MoveDirectAbsPt */\012IUP[1]	/* InterpolateUntPts */\012IUP[0]	/* InterpolateUntPts */\012SVTCA[1]	/* SetFreedomAndProjectionVectorToAxis */\012MD[0]	/* MeasureDistance */\012ROUND[00]	/* Round */\012PUSHW[ ]	/* 2 values pushed */\01255 194 \012MD[0]	/* MeasureDistance */\012ROUND[00]	/* Round */\012SUB[ ]	/* Subtract */\012PUSHB[ ]	/* 1 value pushed */\01264 \012GT[ ]	/* GreaterThan */\012IF[ ]	/* If */\012SHPIX[ ]	/* ShiftZoneByPixel */\012SRP1[ ]	/* SetRefPoint1 */\012SHZ[1]	/* ShiftZoneByLastPoint */\012PUSHW[ ]	/* 2 values pushed */\012194 -64 \012SHPIX[ ]	/* ShiftZoneByPixel */\012EIF[ ]	/* EndIf */";
};
width = 976;
}
);
note = N;
unicode = 004E;
},
{
color = 1;
glyphname = Eng;
lastChange = "2022-03-02 21:03:53 +0000";
layers = (
{
layerId = "423D2297-FAE2-4393-80D6-0A1E9777D337";
paths = (
{
closed = 1;
nodes = (
"795 -376 OFFCURVE",
"866 -218 OFFCURVE",
"866 -71 CURVE SMOOTH",
"866 -36 OFFCURVE",
"865 -23 OFFCURVE",
"864 -11 CURVE",
"918 46 OFFCURVE",
"920 157 OFFCURVE",
"920 330 CURVE SMOOTH",
"920 481 OFFCURVE",
"943 652 OFFCURVE",
"1040 652 CURVE SMOOTH",
"1086 652 OFFCURVE",
"1112 611 OFFCURVE",
"1112 566 CURVE SMOOTH",
"1112 535 OFFCURVE",
"1107 514 OFFCURVE",
"1096 495 CURVE SMOOTH",
"1083 472 OFFCURVE",
"1060 461 OFFCURVE",
"1033 461 CURVE SMOOTH",
"1025 461 OFFCURVE",
"1020 459 OFFCURVE",
"1020 456 CURVE SMOOTH",
"1020 452 OFFCURVE",
"1023 450 OFFCURVE",
"1033 450 CURVE SMOOTH",
"1066 450 OFFCURVE",
"1090 461 OFFCURVE",
"1107 488 CURVE SMOOTH",
"1122 511 OFFCURVE",
"1126 539 OFFCURVE",
"1126 567 CURVE SMOOTH",
"1126 624 OFFCURVE",
"1092 663 OFFCURVE",
"1041 663 CURVE SMOOTH",
"914 663 OFFCURVE",
"901 496 OFFCURVE",
"901 329 CURVE SMOOTH",
"901 134 OFFCURVE",
"890 47 OFFCURVE",
"863 6 CURVE",
"848 112 OFFCURVE",
"815 187 OFFCURVE",
"744 315 CURVE SMOOTH",
"690 417 OFFCURVE",
"652 473 OFFCURVE",
"652 562 CURVE SMOOTH",
"652 575 OFFCURVE",
"654 585 OFFCURVE",
"657 593 CURVE",
"678 587 OFFCURVE",
"700 582 OFFCURVE",
"716 582 CURVE SMOOTH",
"743 582 OFFCURVE",
"758 594 OFFCURVE",
"758 610 CURVE SMOOTH",
"758 629 OFFCURVE",
"740 637 OFFCURVE",
"715 637 CURVE SMOOTH",
"690 637 OFFCURVE",
"653 631 OFFCURVE",
"632 610 CURVE",
"506 653 OFFCURVE",
"431 684 OFFCURVE",
"343 684 CURVE SMOOTH",
"156 684 OFFCURVE",
"12 586 OFFCURVE",
"12 412 CURVE SMOOTH",
"12 357 OFFCURVE",
"27 309 OFFCURVE",
"58 270 CURVE",
"33 234 OFFCURVE",
"21 194 OFFCURVE",
"21 149 CURVE SMOOTH",
"21 25 OFFCURVE",
"123 -68 OFFCURVE",
"248 -68 CURVE SMOOTH",
"340 -68 OFFCURVE",
"423 -27 OFFCURVE",
"475 37 CURVE SMOOTH",
"588 178 OFFCURVE",
"546 358 OFFCURVE",
"586 509 CURVE SMOOTH",
"598 554 OFFCURVE",
"615 584 OFFCURVE",
"637 599 CURVE",
"622 565 OFFCURVE",
"614 530 OFFCURVE",
"614 493 CURVE SMOOTH",
"614 437 OFFCURVE",
"652 356 OFFCURVE",
"696 272 CURVE SMOOTH",
"739 190 OFFCURVE",
"821 61 OFFCURVE",
"821 -84 CURVE SMOOTH",
"821 -174 OFFCURVE",
"781 -360 OFFCURVE",
"634 -360 CURVE SMOOTH",
"564 -360 OFFCURVE",
"515 -302 OFFCURVE",
"515 -229 CURVE SMOOTH",
"515 -161 OFFCURVE",
"555 -111 OFFCURVE",
"619 -111 CURVE SMOOTH",
"666 -111 OFFCURVE",
"695 -146 OFFCURVE",
"695 -195 CURVE SMOOTH",
"695 -238 OFFCURVE",
"673 -267 OFFCURVE",
"633 -267 CURVE SMOOTH",
"619 -267 OFFCURVE",
"609 -263 OFFCURVE",
"607 -258 CURVE SMOOTH",
"606 -255 OFFCURVE",
"605 -254 OFFCURVE",
"602 -254 CURVE SMOOTH",
"599 -254 OFFCURVE",
"596 -257 OFFCURVE",
"596 -262 CURVE SMOOTH",
"596 -273 OFFCURVE",
"612 -280 OFFCURVE",
"633 -280 CURVE SMOOTH",
"683 -280 OFFCURVE",
"721 -245 OFFCURVE",
"721 -195 CURVE SMOOTH",
"721 -140 OFFCURVE",
"676 -97 OFFCURVE",
"619 -97 CURVE SMOOTH",
"543 -97 OFFCURVE",
"486 -157 OFFCURVE",
"486 -234 CURVE SMOOTH",
"486 -314 OFFCURVE",
"551 -376 OFFCURVE",
"633 -376 CURVE SMOOTH"
);
},
{
closed = 1;
nodes = (
"179 199 OFFCURVE",
"130 223 OFFCURVE",
"88 271 CURVE",
"120 311 OFFCURVE",
"159 331 OFFCURVE",
"206 331 CURVE SMOOTH",
"270 331 OFFCURVE",
"320 288 OFFCURVE",
"336 226 CURVE",
"303 208 OFFCURVE",
"270 199 OFFCURVE",
"235 199 CURVE SMOOTH"
);
},
{
closed = 1;
nodes = (
"128 -53 OFFCURVE",
"48 29 OFFCURVE",
"48 152 CURVE SMOOTH",
"48 188 OFFCURVE",
"57 221 OFFCURVE",
"75 251 CURVE",
"118 206 OFFCURVE",
"174 183 OFFCURVE",
"235 183 CURVE SMOOTH",
"278 183 OFFCURVE",
"310 191 OFFCURVE",
"340 207 CURVE",
"341 202 OFFCURVE",
"342 194 OFFCURVE",
"342 183 CURVE SMOOTH",
"342 126 OFFCURVE",
"302 78 OFFCURVE",
"246 78 CURVE SMOOTH",
"237 78 OFFCURVE",
"230 79 OFFCURVE",
"227 79 CURVE SMOOTH",
"222 79 OFFCURVE",
"221 77 OFFCURVE",
"221 73 CURVE SMOOTH",
"221 67 OFFCURVE",
"236 65 OFFCURVE",
"253 65 CURVE SMOOTH",
"284 65 OFFCURVE",
"310 78 OFFCURVE",
"330 104 CURVE SMOOTH",
"349 128 OFFCURVE",
"358 156 OFFCURVE",
"358 189 CURVE SMOOTH",
"358 195 OFFCURVE",
"357 204 OFFCURVE",
"356 216 CURVE",
"423 260 OFFCURVE",
"457 323 OFFCURVE",
"457 404 CURVE SMOOTH",
"457 499 OFFCURVE",
"394 559 OFFCURVE",
"299 559 CURVE SMOOTH",
"230 559 OFFCURVE",
"175 512 OFFCURVE",
"175 443 CURVE SMOOTH",
"175 411 OFFCURVE",
"187 388 OFFCURVE",
"212 373 CURVE SMOOTH",
"218 370 OFFCURVE",
"223 368 OFFCURVE",
"226 368 CURVE",
"229 369 OFFCURVE",
"231 370 OFFCURVE",
"231 372 CURVE SMOOTH",
"231 375 OFFCURVE",
"228 377 OFFCURVE",
"222 377 CURVE",
"199 390 OFFCURVE",
"188 411 OFFCURVE",
"188 438 CURVE SMOOTH",
"188 499 OFFCURVE",
"242 541 OFFCURVE",
"305 541 CURVE SMOOTH",
"385 541 OFFCURVE",
"441 477 OFFCURVE",
"441 396 CURVE SMOOTH",
"441 329 OFFCURVE",
"411 275 OFFCURVE",
"352 234 CURVE",
"331 303 OFFCURVE",
"272 345 OFFCURVE",
"199 345 CURVE SMOOTH",
"149 345 OFFCURVE",
"107 327 OFFCURVE",
"74 290 CURVE",
"52 323 OFFCURVE",
"41 361 OFFCURVE",
"41 403 CURVE SMOOTH",
"41 569 OFFCURVE",
"176 656 OFFCURVE",
"361 656 CURVE SMOOTH",
"436 656 OFFCURVE",
"518 632 OFFCURVE",
"623 604 CURVE",
"602 588 OFFCURVE",
"586 559 OFFCURVE",
"575 519 CURVE SMOOTH",
"537 387 OFFCURVE",
"534 204 OFFCURVE",
"466 90 CURVE SMOOTH",
"407 -9 OFFCURVE",
"335 -53 OFFCURVE",
"251 -53 CURVE SMOOTH"
);
},
{
closed = 1;
nodes = (
"704 592 OFFCURVE",
"690 596 OFFCURVE",
"663 603 CURVE",
"674 620 OFFCURVE",
"691 628 OFFCURVE",
"714 628 CURVE SMOOTH",
"730 628 OFFCURVE",
"745 622 OFFCURVE",
"745 609 CURVE SMOOTH",
"745 598 OFFCURVE",
"731 592 OFFCURVE",
"714 592 CURVE SMOOTH"
);
}
);
width = 976;
}
);
unicode = 014A;
},
{
glyphname = O;
lastChange = "2022-03-02 21:03:53 +0000";
layers = (
{
layerId = "423D2297-FAE2-4393-80D6-0A1E9777D337";
paths = (
{
closed = 1;
nodes = (
"500 -43 OFFCURVE",
"618 106 OFFCURVE",
"618 316 CURVE SMOOTH",
"618 410 OFFCURVE",
"587 483 OFFCURVE",
"525 535 CURVE",
"525 574 OFFCURVE",
"509 603 OFFCURVE",
"476 624 CURVE SMOOTH",
"448 639 OFFCURVE",
"413 647 OFFCURVE",
"370 647 CURVE SMOOTH",
"249 647 OFFCURVE",
"158 601 OFFCURVE",
"95 508 CURVE",
"60 538 OFFCURVE",
"43 572 OFFCURVE",
"43 607 CURVE SMOOTH",
"44 660 OFFCURVE",
"79 690 OFFCURVE",
"132 690 CURVE SMOOTH",
"160 690 OFFCURVE",
"186 679 OFFCURVE",
"210 661 CURVE",
"211 661 OFFCURVE",
"217 660 OFFCURVE",
"217 663 CURVE SMOOTH",
"217 665 OFFCURVE",
"215 668 OFFCURVE",
"212 671 CURVE SMOOTH",
"192 691 OFFCURVE",
"164 700 OFFCURVE",
"131 700 CURVE SMOOTH",
"68 700 OFFCURVE",
"22 666 OFFCURVE",
"22 605 CURVE SMOOTH",
"22 566 OFFCURVE",
"44 528 OFFCURVE",
"86 493 CURVE",
"48 430 OFFCURVE",
"28 355 OFFCURVE",
"28 271 CURVE SMOOTH",
"28 93 OFFCURVE",
"129 -43 OFFCURVE",
"310 -43 CURVE SMOOTH"
);
},
{
closed = 1;
nodes = (
"169 -27 OFFCURVE",
"87 124 OFFCURVE",
"87 281 CURVE SMOOTH",
"87 347 OFFCURVE",
"100 408 OFFCURVE",
"128 463 CURVE",
"180 430 OFFCURVE",
"257 412 OFFCURVE",
"323 412 CURVE SMOOTH",
"406 412 OFFCURVE",
"481 440 OFFCURVE",
"513 504 CURVE",
"550 457 OFFCURVE",
"568 395 OFFCURVE",
"568 318 CURVE SMOOTH",
"568 138 OFFCURVE",
"473 -27 OFFCURVE",
"315 -27 CURVE SMOOTH"
);
},
{
closed = 1;
nodes = (
"253 430 OFFCURVE",
"190 449 OFFCURVE",
"136 479 CURVE",
"159 523 OFFCURVE",
"192 561 OFFCURVE",
"231 589 CURVE SMOOTH",
"275 619 OFFCURVE",
"321 635 OFFCURVE",
"369 635 CURVE SMOOTH",
"447 635 OFFCURVE",
"491 607 OFFCURVE",
"502 551 CURVE",
"472 574 OFFCURVE",
"443 579 OFFCURVE",
"414 579 CURVE SMOOTH",
"388 579 OFFCURVE",
"335 567 OFFCURVE",
"335 540 CURVE SMOOTH",
"335 535 OFFCURVE",
"337 533 OFFCURVE",
"340 533 CURVE",
"360 550 OFFCURVE",
"381 562 OFFCURVE",
"413 562 CURVE SMOOTH",
"445 562 OFFCURVE",
"475 548 OFFCURVE",
"501 520 CURVE",
"483 458 OFFCURVE",
"399 430 OFFCURVE",
"317 430 CURVE SMOOTH"
);
}
);
userData = {
assembly = "NPUSHB[ ]	/* 40 values pushed */\0121 79 79 64 80 0 69 67 65 61 55 50 44 36 28 24 22 71 63 57 48 42 36 26 20 12 10 8 0 38 7 30 75 7 4 16 4 1 12 70 \012SROUND[ ]	/* SuperRound */\012MDAP[1]	/* MoveDirectAbsPt */\012SHZ[1]	/* ShiftZoneByLastPoint */\012RTG[ ]	/* RoundToGrid */\012SVTCA[0]	/* SetFreedomAndProjectionVectorToAxis */\012MDAP[1]	/* MoveDirectAbsPt */\012MDAP[1]	/* MoveDirectAbsPt */\012SRP0[ ]	/* SetRefPoint0 */\012MIRP[11101]	/* MoveIndirectRelPt */\012MDAP[1]	/* MoveDirectAbsPt */\012MIRP[11101]	/* MoveIndirectRelPt */\012SVTCA[1]	/* SetFreedomAndProjectionVectorToAxis */\012MDAP[0]	/* MoveDirectAbsPt */\012MDAP[0]	/* MoveDirectAbsPt */\012MDAP[0]	/* MoveDirectAbsPt */\012MDAP[0]	/* MoveDirectAbsPt */\012MDAP[0]	/* MoveDirectAbsPt */\012MDAP[0]	/* MoveDirectAbsPt */\012MDAP[0]	/* MoveDirectAbsPt */\012MDAP[0]	/* MoveDirectAbsPt */\012MDAP[0]	/* MoveDirectAbsPt */\012MDAP[0]	/* MoveDirectAbsPt */\012MDAP[0]	/* MoveDirectAbsPt */\012MDAP[0]	/* MoveDirectAbsPt */\012SVTCA[0]	/* SetFreedomAndProjectionVectorToAxis */\012MDAP[0]	/* MoveDirectAbsPt */\012MDAP[0]	/* MoveDirectAbsPt */\012MDAP[0]	/* MoveDirectAbsPt */\012MDAP[0]	/* MoveDirectAbsPt */\012MDAP[0]	/* MoveDirectAbsPt */\012MDAP[0]	/* MoveDirectAbsPt */\012MDAP[0]	/* MoveDirectAbsPt */\012MDAP[0]	/* MoveDirectAbsPt */\012MDAP[0]	/* MoveDirectAbsPt */\012MDAP[0]	/* MoveDirectAbsPt */\012MDAP[0]	/* MoveDirectAbsPt */\012IUP[1]	/* InterpolateUntPts */\012IUP[0]	/* InterpolateUntPts */\012SVTCA[1]	/* SetFreedomAndProjectionVectorToAxis */\012MD[0]	/* MeasureDistance */\012ROUND[00]	/* Round */\012PUSHW[ ]	/* 2 values pushed */\01212 79 \012MD[0]	/* MeasureDistance */\012ROUND[00]	/* Round */\012SUB[ ]	/* Subtract */\012PUSHB[ ]	/* 1 value pushed */\01264 \012GT[ ]	/* GreaterThan */\012IF[ ]	/* If */\012SHPIX[ ]	/* ShiftZoneByPixel */\012SRP1[ ]	/* SetRefPoint1 */\012SHZ[1]	/* ShiftZoneByLastPoint */\012PUSHW[ ]	/* 2 values pushed */\01279 -64 \012SHPIX[ ]	/* ShiftZoneByPixel */\012EIF[ ]	/* EndIf */";
};
width = 659;
}
);
note = O;
unicode = 004F;
},
{
glyphname = OE;
lastChange = "2022-03-02 21:03:53 +0000";
layers = (
{
background = {
paths = (
{
closed = 1;
nodes = (
"324 -43 OFFCURVE",
"362.333 -34.333 OFFCURVE",
"399 -17 CURVE SMOOTH",
"445 5 OFFCURVE",
"481 38 OFFCURVE",
"507 82 CURVE",
"529 41.333 OFFCURVE",
"564.333 10 OFFCURVE",
"613 -12 CURVE SMOOTH",
"657 -32 OFFCURVE",
"706.667 -42 OFFCURVE",
"762 -42 CURVE",
"762 -42 LINE",
"830.667 -42 OFFCURVE",
"889 -24.333 OFFCURVE",
"937 11 CURVE SMOOTH",
"989.667 49.667 OFFCURVE",
"1016 102 OFFCURVE",
"1016 168 CURVE SMOOTH",
"1016 249.333 OFFCURVE",
"962.667 306 OFFCURVE",
"880 306 CURVE SMOOTH",
"841.333 306 OFFCURVE",
"805 280.333 OFFCURVE",
"805 243 CURVE SMOOTH",
"805 221.667 OFFCURVE",
"810 211 OFFCURVE",
"820 211 CURVE SMOOTH",
"825.333 211 OFFCURVE",
"828 213 OFFCURVE",
"828 217 CURVE SMOOTH",
"828 217.667 OFFCURVE",
"827.667 218 OFFCURVE",
"827 218 CURVE SMOOTH",
"821 218 OFFCURVE",
"818 224.333 OFFCURVE",
"818 237 CURVE SMOOTH",
"818 253.667 OFFCURVE",
"824.667 267 OFFCURVE",
"838 277 CURVE SMOOTH",
"850 285 OFFCURVE",
"864.667 289 OFFCURVE",
"882 289 CURVE SMOOTH",
"944.667 289 OFFCURVE",
"983 238 OFFCURVE",
"983 174 CURVE SMOOTH",
"983 110.667 OFFCURVE",
"959.667 60.667 OFFCURVE",
"913 24 CURVE SMOOTH",
"869.667 -10 OFFCURVE",
"815.333 -27 OFFCURVE",
"750 -27 CURVE SMOOTH",
"684 -27 OFFCURVE",
"631.333 -4.333 OFFCURVE",
"592 41 CURVE SMOOTH",
"556.667 82.333 OFFCURVE",
"539 132.667 OFFCURVE",
"539 192 CURVE SMOOTH",
"539 237.333 OFFCURVE",
"550 278 OFFCURVE",
"572 314 CURVE SMOOTH",
"596 353.333 OFFCURVE",
"629.667 380.667 OFFCURVE",
"673 396 CURVE",
"704.333 374 OFFCURVE",
"740.333 363 OFFCURVE",
"781 363 CURVE SMOOTH",
"822.333 363 OFFCURVE",
"843 372 OFFCURVE",
"843 390 CURVE SMOOTH",
"843 412 OFFCURVE",
"815 423 OFFCURVE",
"759 423 CURVE SMOOTH",
"735.667 423 OFFCURVE",
"714.333 420.667 OFFCURVE",
"695 416 CURVE",
"677.667 438 OFFCURVE",
"669 465 OFFCURVE",
"669 497 CURVE SMOOTH",
"669 575.667 OFFCURVE",
"716.333 629 OFFCURVE",
"795 629 CURVE SMOOTH",
"847 629 OFFCURVE",
"894 595 OFFCURVE",
"894 543 CURVE SMOOTH",
"894 515 OFFCURVE",
"875 489 OFFCURVE",
"847 489 CURVE SMOOTH",
"827.175 489 OFFCURVE",
"816.34 530 OFFCURVE",
"807 530 CURVE SMOOTH",
"803 530 OFFCURVE",
"801 526.333 OFFCURVE",
"801 519 CURVE SMOOTH",
"801 489 OFFCURVE",
"818.333 474 OFFCURVE",
"853 474 CURVE SMOOTH",
"887.667 474 OFFCURVE",
"918 509 OFFCURVE",
"918 545 CURVE SMOOTH",
"918 575 OFFCURVE",
"903.667 599.333 OFFCURVE",
"875 618 CURVE SMOOTH",
"850.333 634 OFFCURVE",
"822 642 OFFCURVE",
"790 642 CURVE SMOOTH",
"744.667 642 OFFCURVE",
"706 630.667 OFFCURVE",
"674 608 CURVE SMOOTH",
"638.667 582.667 OFFCURVE",
"621 548.333 OFFCURVE",
"621 505 CURVE SMOOTH",
"621 465.667 OFFCURVE",
"634.333 432.667 OFFCURVE",
"661 406 CURVE",
"615.667 392 OFFCURVE",
"577 369 OFFCURVE",
"545 337 CURVE",
"531.667 394.333 OFFCURVE",
"505.333 439.333 OFFCURVE",
"466 472 CURVE",
"466 506.667 OFFCURVE",
"451 533 OFFCURVE",
"421 551 CURVE SMOOTH",
"396.333 565 OFFCURVE",
"365 572 OFFCURVE",
"327 572 CURVE SMOOTH",
"219 572 OFFCURVE",
"138 530.667 OFFCURVE",
"84 448 CURVE",
"52 475.333 OFFCURVE",
"36 504.667 OFFCURVE",
"36 536 CURVE SMOOTH",
"36 583.333 OFFCURVE",
"59.333 607 OFFCURVE",
"106 607 CURVE SMOOTH",
"126 607 OFFCURVE",
"152.667 598.333 OFFCURVE",
"186 581 CURVE",
"188.667 581 OFFCURVE",
"190 582.667 OFFCURVE",
"190 586 CURVE SMOOTH",
"190 588 OFFCURVE",
"189.333 589.667 OFFCURVE",
"188 591 CURVE SMOOTH",
"167.333 609.667 OFFCURVE",
"142.333 619 OFFCURVE",
"113 619 CURVE SMOOTH",
"85.667 619 OFFCURVE",
"63.333 612.333 OFFCURVE",
"46 599 CURVE SMOOTH",
"26.667 584.333 OFFCURVE",
"17 563.667 OFFCURVE",
"17 537 CURVE SMOOTH",
"17 501 OFFCURVE",
"36.667 467 OFFCURVE",
"76 435 CURVE",
"44 379.667 OFFCURVE",
"28 316 OFFCURVE",
"28 244 CURVE SMOOTH",
"28 162 OFFCURVE",
"49.667 94.667 OFFCURVE",
"93 42 CURVE SMOOTH",
"139.667 -14.667 OFFCURVE",
"203.333 -43 OFFCURVE",
"284 -43 CURVE SMOOTH"
);
},
{
closed = 1;
nodes = (
"222 -29 OFFCURVE",
"169.333 2.667 OFFCURVE",
"130 66 CURVE SMOOTH",
"96.667 120 OFFCURVE",
"80 182.333 OFFCURVE",
"80 253 CURVE SMOOTH",
"80 309 OFFCURVE",
"91.333 360.667 OFFCURVE",
"114 408 CURVE",
"162 380.667 OFFCURVE",
"214.667 367 OFFCURVE",
"272 367 CURVE SMOOTH",
"370 367 OFFCURVE",
"431.333 392.667 OFFCURVE",
"456 444 CURVE",
"456 444 LINE",
"487.333 406 OFFCURVE",
"503 352.333 OFFCURVE",
"503 283 CURVE SMOOTH",
"503 223.667 OFFCURVE",
"492 167.333 OFFCURVE",
"470 114 CURVE SMOOTH",
"446 58 OFFCURVE",
"415.667 19 OFFCURVE",
"379 -3 CURVE SMOOTH",
"349.667 -20.333 OFFCURVE",
"319.333 -29 OFFCURVE",
"288 -29 CURVE SMOOTH"
);
},
{
closed = 1;
nodes = (
"220 377 OFFCURVE",
"168 391.333 OFFCURVE",
"120 420 CURVE",
"141.333 461.333 OFFCURVE",
"169.333 494.667 OFFCURVE",
"204 520 CURVE SMOOTH",
"242 547.333 OFFCURVE",
"282.667 561 OFFCURVE",
"326 561 CURVE SMOOTH",
"394.667 561 OFFCURVE",
"434.667 536 OFFCURVE",
"446 486 CURVE",
"446 486 LINE",
"419.333 502.667 OFFCURVE",
"393 511 OFFCURVE",
"367 511 CURVE SMOOTH",
"353.667 511 OFFCURVE",
"339.667 508.333 OFFCURVE",
"325 503 CURVE SMOOTH",
"306.333 495.667 OFFCURVE",
"297 486.667 OFFCURVE",
"297 476 CURVE SMOOTH",
"297 472 OFFCURVE",
"298.667 470 OFFCURVE",
"302 470 CURVE SMOOTH",
"303.333 470 OFFCURVE",
"307.667 472.833 OFFCURVE",
"315 478.5 CURVE SMOOTH",
"322.333 484.167 OFFCURVE",
"327.333 487.667 OFFCURVE",
"330 489 CURVE SMOOTH",
"340.667 493.667 OFFCURVE",
"352.667 496 OFFCURVE",
"366 496 CURVE SMOOTH",
"395.333 496 OFFCURVE",
"421.667 483.667 OFFCURVE",
"445 459 CURVE",
"437.667 433 OFFCURVE",
"413.667 412 OFFCURVE",
"373 396 CURVE SMOOTH",
"340.333 383.333 OFFCURVE",
"308 377 OFFCURVE",
"276 377 CURVE SMOOTH"
);
},
{
closed = 1;
nodes = (
"704 404 LINE",
"704 405 LINE",
"705 405 LINE",
"704 404 LINE"
);
}
);
};
layerId = "423D2297-FAE2-4393-80D6-0A1E9777D337";
paths = (
{
closed = 1;
nodes = (
"416 -43 OFFCURVE",
"499 3 OFFCURVE",
"552 79 CURVE",
"529 129 LINE",
"487 37 OFFCURVE",
"413 -27 OFFCURVE",
"315 -27 CURVE SMOOTH",
"169 -27 OFFCURVE",
"87 124 OFFCURVE",
"87 281 CURVE SMOOTH",
"87 347 OFFCURVE",
"100 408 OFFCURVE",
"128 463 CURVE",
"180 430 OFFCURVE",
"257 412 OFFCURVE",
"323 412 CURVE SMOOTH",
"406 412 OFFCURVE",
"481 440 OFFCURVE",
"513 504 CURVE",
"549 459 OFFCURVE",
"567 399 OFFCURVE",
"568 326 CURVE",
"615 368 LINE",
"605 437 OFFCURVE",
"575 493 OFFCURVE",
"525 535 CURVE",
"525 574 OFFCURVE",
"509 603 OFFCURVE",
"476 624 CURVE SMOOTH",
"448 639 OFFCURVE",
"413 647 OFFCURVE",
"370 647 CURVE SMOOTH",
"249 647 OFFCURVE",
"158 601 OFFCURVE",
"95 508 CURVE",
"60 538 OFFCURVE",
"43 572 OFFCURVE",
"43 607 CURVE SMOOTH",
"44 660 OFFCURVE",
"79 690 OFFCURVE",
"132 690 CURVE SMOOTH",
"160 690 OFFCURVE",
"186 679 OFFCURVE",
"210 661 CURVE",
"211 661 OFFCURVE",
"217 660 OFFCURVE",
"217 663 CURVE SMOOTH",
"217 665 OFFCURVE",
"215 668 OFFCURVE",
"212 671 CURVE SMOOTH",
"192 691 OFFCURVE",
"164 700 OFFCURVE",
"131 700 CURVE SMOOTH",
"68 700 OFFCURVE",
"22 666 OFFCURVE",
"22 605 CURVE SMOOTH",
"22 566 OFFCURVE",
"44 528 OFFCURVE",
"86 493 CURVE",
"48 430 OFFCURVE",
"28 355 OFFCURVE",
"28 271 CURVE SMOOTH",
"28 93 OFFCURVE",
"129 -43 OFFCURVE",
"310 -43 CURVE SMOOTH"
);
},
{
closed = 1;
nodes = (
"253 430 OFFCURVE",
"190 449 OFFCURVE",
"136 479 CURVE",
"159 523 OFFCURVE",
"192 561 OFFCURVE",
"231 589 CURVE SMOOTH",
"275 619 OFFCURVE",
"321 635 OFFCURVE",
"369 635 CURVE SMOOTH",
"447 635 OFFCURVE",
"491 607 OFFCURVE",
"502 551 CURVE",
"472 574 OFFCURVE",
"443 579 OFFCURVE",
"414 579 CURVE SMOOTH",
"388 579 OFFCURVE",
"335 567 OFFCURVE",
"335 540 CURVE SMOOTH",
"335 535 OFFCURVE",
"337 533 OFFCURVE",
"340 533 CURVE",
"360 550 OFFCURVE",
"381 562 OFFCURVE",
"413 562 CURVE SMOOTH",
"445 562 OFFCURVE",
"475 548 OFFCURVE",
"501 520 CURVE",
"483 458 OFFCURVE",
"399 430 OFFCURVE",
"317 430 CURVE SMOOTH"
);
},
{
closed = 1;
nodes = (
"913 -42 OFFCURVE",
"1032 34 OFFCURVE",
"1032 168 CURVE SMOOTH",
"1032 249 OFFCURVE",
"980 306 OFFCURVE",
"897 306 CURVE SMOOTH",
"858 306 OFFCURVE",
"822 280 OFFCURVE",
"822 243 CURVE SMOOTH",
"822 222 OFFCURVE",
"831 213 OFFCURVE",
"841 213 CURVE SMOOTH",
"846 213 OFFCURVE",
"849 215 OFFCURVE",
"849 219 CURVE SMOOTH",
"849 220 OFFCURVE",
"849 220 OFFCURVE",
"848 220 CURVE SMOOTH",
"842 220 OFFCURVE",
"835 224 OFFCURVE",
"835 237 CURVE SMOOTH",
"835 268 OFFCURVE",
"860 289 OFFCURVE",
"899 289 CURVE SMOOTH",
"962 289 OFFCURVE",
"999 238 OFFCURVE",
"999 174 CURVE SMOOTH",
"999 47 OFFCURVE",
"897 -27 OFFCURVE",
"767 -27 CURVE SMOOTH",
"649 -27 OFFCURVE",
"553 56 OFFCURVE",
"553 170 CURVE SMOOTH",
"553 270 OFFCURVE",
"601 364 OFFCURVE",
"690 396 CURVE",
"721 374 OFFCURVE",
"752 359 OFFCURVE",
"793 359 CURVE SMOOTH",
"824 359 OFFCURVE",
"849 372 OFFCURVE",
"849 392 CURVE SMOOTH",
"849 412 OFFCURVE",
"828 425 OFFCURVE",
"782 425 CURVE SMOOTH",
"759 425 OFFCURVE",
"731 421 OFFCURVE",
"712 416 CURVE",
"695 437 OFFCURVE",
"686 464 OFFCURVE",
"686 497 CURVE SMOOTH",
"686 576 OFFCURVE",
"734 629 OFFCURVE",
"811 629 CURVE SMOOTH",
"863 629 OFFCURVE",
"911 595 OFFCURVE",
"911 543 CURVE SMOOTH",
"911 515 OFFCURVE",
"891 489 OFFCURVE",
"866 489 CURVE SMOOTH",
"850 489 OFFCURVE",
"836 504 OFFCURVE",
"831 517 CURVE SMOOTH",
"828 524 OFFCURVE",
"827 527 OFFCURVE",
"823 527 CURVE SMOOTH",
"820 527 OFFCURVE",
"818 526 OFFCURVE",
"818 519 CURVE SMOOTH",
"818 500 OFFCURVE",
"835 476 OFFCURVE",
"865 476 CURVE SMOOTH",
"905 476 OFFCURVE",
"935 509 OFFCURVE",
"935 545 CURVE SMOOTH",
"935 606 OFFCURVE",
"871 642 OFFCURVE",
"806 642 CURVE SMOOTH",
"717 642 OFFCURVE",
"638 594 OFFCURVE",
"638 505 CURVE SMOOTH",
"638 466 OFFCURVE",
"651 433 OFFCURVE",
"678 406 CURVE",
"571 372 OFFCURVE",
"500 292 OFFCURVE",
"500 184 CURVE SMOOTH",
"500 37 OFFCURVE",
"624 -42 OFFCURVE",
"779 -42 CURVE SMOOTH"
);
},
{
closed = 1;
nodes = (
"764 372 OFFCURVE",
"742 384 OFFCURVE",
"721 404 CURVE",
"742 409 OFFCURVE",
"762 412 OFFCURVE",
"782 412 CURVE SMOOTH",
"811 412 OFFCURVE",
"831 405 OFFCURVE",
"831 391 CURVE SMOOTH",
"831 380 OFFCURVE",
"814 372 OFFCURVE",
"793 372 CURVE SMOOTH"
);
}
);
userData = {
assembly = "NPUSHB[ ]	/* 75 values pushed */\0121 167 167 64 168 160 166 165 164 157 152 142 127 125 121 119 114 108 104 100 85 77 73 71 65 49 31 29 27 25 19 14 8 0 166 165 164 160 154 150 146 139 131 123 117 111 102 97 89 87 75 69 61 59 57 43 33 21 12 6 0 2 7 79 135 37 7 53 45 53 93 3 1 61 70 \012SROUND[ ]	/* SuperRound */\012MDAP[1]	/* MoveDirectAbsPt */\012SHZ[1]	/* ShiftZoneByLastPoint */\012RTG[ ]	/* RoundToGrid */\012SVTCA[0]	/* SetFreedomAndProjectionVectorToAxis */\012MIAP[1]	/* MoveIndirectAbsPt */\012MDAP[1]	/* MoveDirectAbsPt */\012ALIGNRP[ ]	/* AlignRelativePt */\012SRP0[ ]	/* SetRefPoint0 */\012MIRP[11101]	/* MoveIndirectRelPt */\012ALIGNRP[ ]	/* AlignRelativePt */\012MDAP[1]	/* MoveDirectAbsPt */\012MIRP[11101]	/* MoveIndirectRelPt */\012SVTCA[1]	/* SetFreedomAndProjectionVectorToAxis */\012MDAP[0]	/* MoveDirectAbsPt */\012MDAP[0]	/* MoveDirectAbsPt */\012MDAP[0]	/* MoveDirectAbsPt */\012MDAP[0]	/* MoveDirectAbsPt */\012MDAP[0]	/* MoveDirectAbsPt */\012MDAP[0]	/* MoveDirectAbsPt */\012MDAP[0]	/* MoveDirectAbsPt */\012MDAP[0]	/* MoveDirectAbsPt */\012MDAP[0]	/* MoveDirectAbsPt */\012MDAP[0]	/* MoveDirectAbsPt */\012MDAP[0]	/* MoveDirectAbsPt */\012MDAP[0]	/* MoveDirectAbsPt */\012MDAP[0]	/* MoveDirectAbsPt */\012MDAP[0]	/* MoveDirectAbsPt */\012MDAP[0]	/* MoveDirectAbsPt */\012MDAP[0]	/* MoveDirectAbsPt */\012MDAP[0]	/* MoveDirectAbsPt */\012MDAP[0]	/* MoveDirectAbsPt */\012MDAP[0]	/* MoveDirectAbsPt */\012MDAP[0]	/* MoveDirectAbsPt */\012MDAP[0]	/* MoveDirectAbsPt */\012MDAP[0]	/* MoveDirectAbsPt */\012MDAP[0]	/* MoveDirectAbsPt */\012MDAP[0]	/* MoveDirectAbsPt */\012MDAP[0]	/* MoveDirectAbsPt */\012MDAP[0]	/* MoveDirectAbsPt */\012MDAP[0]	/* MoveDirectAbsPt */\012SVTCA[0]	/* SetFreedomAndProjectionVectorToAxis */\012MDAP[0]	/* MoveDirectAbsPt */\012MDAP[0]	/* MoveDirectAbsPt */\012MDAP[0]	/* MoveDirectAbsPt */\012MDAP[0]	/* MoveDirectAbsPt */\012MDAP[0]	/* MoveDirectAbsPt */\012MDAP[0]	/* MoveDirectAbsPt */\012MDAP[0]	/* MoveDirectAbsPt */\012MDAP[0]	/* MoveDirectAbsPt */\012MDAP[0]	/* MoveDirectAbsPt */\012MDAP[0]	/* MoveDirectAbsPt */\012MDAP[0]	/* MoveDirectAbsPt */\012MDAP[0]	/* MoveDirectAbsPt */\012MDAP[0]	/* MoveDirectAbsPt */\012MDAP[0]	/* MoveDirectAbsPt */\012MDAP[0]	/* MoveDirectAbsPt */\012MDAP[0]	/* MoveDirectAbsPt */\012MDAP[0]	/* MoveDirectAbsPt */\012MDAP[0]	/* MoveDirectAbsPt */\012MDAP[0]	/* MoveDirectAbsPt */\012MDAP[0]	/* MoveDirectAbsPt */\012MDAP[0]	/* MoveDirectAbsPt */\012MDAP[0]	/* MoveDirectAbsPt */\012MDAP[0]	/* MoveDirectAbsPt */\012MDAP[0]	/* MoveDirectAbsPt */\012MDAP[0]	/* MoveDirectAbsPt */\012MDAP[0]	/* MoveDirectAbsPt */\012MDAP[0]	/* MoveDirectAbsPt */\012MDAP[0]	/* MoveDirectAbsPt */\012IUP[1]	/* InterpolateUntPts */\012IUP[0]	/* InterpolateUntPts */\012SVTCA[1]	/* SetFreedomAndProjectionVectorToAxis */\012MD[0]	/* MeasureDistance */\012ROUND[00]	/* Round */\012PUSHW[ ]	/* 2 values pushed */\01261 167 \012MD[0]	/* MeasureDistance */\012ROUND[00]	/* Round */\012SUB[ ]	/* Subtract */\012PUSHB[ ]	/* 1 value pushed */\01264 \012GT[ ]	/* GreaterThan */\012IF[ ]	/* If */\012SHPIX[ ]	/* ShiftZoneByPixel */\012SRP1[ ]	/* SetRefPoint1 */\012SHZ[1]	/* ShiftZoneByLastPoint */\012PUSHW[ ]	/* 2 values pushed */\012167 -64 \012SHPIX[ ]	/* ShiftZoneByPixel */\012EIF[ ]	/* EndIf */";
};
width = 1046;
}
);
note = OE;
unicode = 0152;
},
{
glyphname = P;
lastChange = "2022-03-02 21:03:53 +0000";
layers = (
{
layerId = "423D2297-FAE2-4393-80D6-0A1E9777D337";
paths = (
{
closed = 1;
nodes = (
"157 -41 OFFCURVE",
"168 -39 OFFCURVE",
"178 -35 CURVE SMOOTH",
"238 -11 OFFCURVE",
"283 28 OFFCURVE",
"312 85 CURVE SMOOTH",
"334 128 OFFCURVE",
"349 186 OFFCURVE",
"359 262 CURVE",
"472 264 OFFCURVE",
"605 336 OFFCURVE",
"605 447 CURVE SMOOTH",
"605 526 OFFCURVE",
"555 584 OFFCURVE",
"453 621 CURVE",
"472 644 OFFCURVE",
"494 656 OFFCURVE",
"522 656 CURVE SMOOTH",
"528 656 OFFCURVE",
"533 658 OFFCURVE",
"533 661 CURVE SMOOTH",
"533 665 OFFCURVE",
"526 667 OFFCURVE",
"517 667 CURVE SMOOTH",
"487 667 OFFCURVE",
"459 653 OFFCURVE",
"432 626 CURVE",
"395 639 OFFCURVE",
"352 645 OFFCURVE",
"305 645 CURVE SMOOTH",
"138 645 OFFCURVE",
"-2 547 OFFCURVE",
"-2 380 CURVE SMOOTH",
"-2 296 OFFCURVE",
"46 216 OFFCURVE",
"133 216 CURVE SMOOTH",
"224 216 OFFCURVE",
"288 278 OFFCURVE",
"288 369 CURVE SMOOTH",
"288 427 OFFCURVE",
"258 490 OFFCURVE",
"197 490 CURVE SMOOTH",
"154 490 OFFCURVE",
"113 451 OFFCURVE",
"113 409 CURVE SMOOTH",
"113 388 OFFCURVE",
"131 369 OFFCURVE",
"149 369 CURVE SMOOTH",
"161 369 OFFCURVE",
"166 373 OFFCURVE",
"166 378 CURVE SMOOTH",
"166 381 OFFCURVE",
"164 382 OFFCURVE",
"161 382 CURVE",
"158 380 OFFCURVE",
"154 379 OFFCURVE",
"151 379 CURVE SMOOTH",
"137 380 OFFCURVE",
"130 390 OFFCURVE",
"130 410 CURVE SMOOTH",
"130 447 OFFCURVE",
"158 477 OFFCURVE",
"195 477 CURVE SMOOTH",
"244 477 OFFCURVE",
"264 429 OFFCURVE",
"264 377 CURVE SMOOTH",
"264 299 OFFCURVE",
"217 233 OFFCURVE",
"147 233 CURVE SMOOTH",
"77 233 OFFCURVE",
"36 305 OFFCURVE",
"36 381 CURVE SMOOTH",
"36 526 OFFCURVE",
"152 633 OFFCURVE",
"308 633 CURVE SMOOTH",
"352 633 OFFCURVE",
"390 626 OFFCURVE",
"420 615 CURVE",
"373 561 OFFCURVE",
"340 469 OFFCURVE",
"318 338 CURVE SMOOTH",
"299 221 OFFCURVE",
"284 149 OFFCURVE",
"275 120 CURVE SMOOTH",
"244 23 OFFCURVE",
"198 -25 OFFCURVE",
"139 -25 CURVE SMOOTH",
"103 -25 OFFCURVE",
"84 -11 OFFCURVE",
"84 17 CURVE SMOOTH",
"84 20 OFFCURVE",
"84 25 OFFCURVE",
"85 32 CURVE SMOOTH",
"86 38 OFFCURVE",
"86 42 OFFCURVE",
"86 45 CURVE SMOOTH",
"86 52 OFFCURVE",
"84 55 OFFCURVE",
"80 55 CURVE SMOOTH",
"66 55 OFFCURVE",
"60 44 OFFCURVE",
"60 21 CURVE SMOOTH",
"60 -20 OFFCURVE",
"88 -41 OFFCURVE",
"145 -41 CURVE SMOOTH"
);
},
{
closed = 1;
nodes = (
"374 436 OFFCURVE",
"402 547 OFFCURVE",
"442 607 CURVE",
"522 574 OFFCURVE",
"563 521 OFFCURVE",
"563 448 CURVE SMOOTH",
"563 336 OFFCURVE",
"475 280 OFFCURVE",
"359 274 CURVE"
);
}
);
userData = {
assembly = "NPUSHB[ ]	/* 48 values pushed */\0121 101 101 64 102 0 95 93 91 90 82 80 72 65 59 48 39 29 21 14 95 91 90 86 76 69 62 57 51 44 35 27 19 16 12 99 5 0 10 84 3 55 2 53 2 1 76 70 \012SROUND[ ]	/* SuperRound */\012MDAP[1]	/* MoveDirectAbsPt */\012SHZ[1]	/* ShiftZoneByLastPoint */\012RTG[ ]	/* RoundToGrid */\012SVTCA[0]	/* SetFreedomAndProjectionVectorToAxis */\012MIAP[1]	/* MoveIndirectAbsPt */\012MIAP[1]	/* MoveIndirectAbsPt */\012MIAP[1]	/* MoveIndirectAbsPt */\012MDAP[1]	/* MoveDirectAbsPt */\012SVTCA[1]	/* SetFreedomAndProjectionVectorToAxis */\012MDAP[1]	/* MoveDirectAbsPt */\012MIRP[11101]	/* MoveIndirectRelPt */\012MDAP[0]	/* MoveDirectAbsPt */\012MDAP[0]	/* MoveDirectAbsPt */\012MDAP[0]	/* MoveDirectAbsPt */\012MDAP[0]	/* MoveDirectAbsPt */\012MDAP[0]	/* MoveDirectAbsPt */\012MDAP[0]	/* MoveDirectAbsPt */\012MDAP[0]	/* MoveDirectAbsPt */\012MDAP[0]	/* MoveDirectAbsPt */\012MDAP[0]	/* MoveDirectAbsPt */\012MDAP[0]	/* MoveDirectAbsPt */\012MDAP[0]	/* MoveDirectAbsPt */\012MDAP[0]	/* MoveDirectAbsPt */\012MDAP[0]	/* MoveDirectAbsPt */\012MDAP[0]	/* MoveDirectAbsPt */\012MDAP[0]	/* MoveDirectAbsPt */\012SVTCA[0]	/* SetFreedomAndProjectionVectorToAxis */\012MDAP[0]	/* MoveDirectAbsPt */\012MDAP[0]	/* MoveDirectAbsPt */\012MDAP[0]	/* MoveDirectAbsPt */\012MDAP[0]	/* MoveDirectAbsPt */\012MDAP[0]	/* MoveDirectAbsPt */\012MDAP[0]	/* MoveDirectAbsPt */\012MDAP[0]	/* MoveDirectAbsPt */\012MDAP[0]	/* MoveDirectAbsPt */\012MDAP[0]	/* MoveDirectAbsPt */\012MDAP[0]	/* MoveDirectAbsPt */\012MDAP[0]	/* MoveDirectAbsPt */\012MDAP[0]	/* MoveDirectAbsPt */\012MDAP[0]	/* MoveDirectAbsPt */\012MDAP[0]	/* MoveDirectAbsPt */\012IUP[1]	/* InterpolateUntPts */\012IUP[0]	/* InterpolateUntPts */\012SVTCA[1]	/* SetFreedomAndProjectionVectorToAxis */\012MD[0]	/* MeasureDistance */\012ROUND[00]	/* Round */\012PUSHW[ ]	/* 2 values pushed */\01276 101 \012MD[0]	/* MeasureDistance */\012ROUND[00]	/* Round */\012SUB[ ]	/* Subtract */\012PUSHB[ ]	/* 1 value pushed */\01264 \012GT[ ]	/* GreaterThan */\012IF[ ]	/* If */\012SHPIX[ ]	/* ShiftZoneByPixel */\012SRP1[ ]	/* SetRefPoint1 */\012SHZ[1]	/* ShiftZoneByLastPoint */\012PUSHW[ ]	/* 2 values pushed */\012101 -64 \012SHPIX[ ]	/* ShiftZoneByPixel */\012EIF[ ]	/* EndIf */";
};
width = 567;
}
);
note = P;
unicode = 0050;
},
{
glyphname = Thorn;
lastChange = "2022-03-02 21:03:53 +0000";
layers = (
{
background = {
paths = (
{
closed = 1;
nodes = (
"369 197 OFFCURVE",
"359 348 OFFCURVE",
"387 471 CURVE SMOOTH",
"412 576 OFFCURVE",
"455 656 OFFCURVE",
"522 656 CURVE SMOOTH",
"528 656 OFFCURVE",
"533 658 OFFCURVE",
"533 661 CURVE SMOOTH",
"533 665 OFFCURVE",
"526 667 OFFCURVE",
"517 667 CURVE SMOOTH",
"407 667 OFFCURVE",
"346 503 OFFCURVE",
"318 338 CURVE SMOOTH",
"299 221 OFFCURVE",
"284 149 OFFCURVE",
"275 120 CURVE SMOOTH",
"244 23 OFFCURVE",
"198 -25 OFFCURVE",
"139 -25 CURVE SMOOTH",
"103 -25 OFFCURVE",
"84 -11 OFFCURVE",
"84 17 CURVE SMOOTH",
"84 20 OFFCURVE",
"84 25 OFFCURVE",
"85 32 CURVE SMOOTH",
"86 38 OFFCURVE",
"86 42 OFFCURVE",
"86 45 CURVE SMOOTH",
"86 52 OFFCURVE",
"84 55 OFFCURVE",
"80 55 CURVE SMOOTH",
"66 55 OFFCURVE",
"60 44 OFFCURVE",
"60 21 CURVE SMOOTH",
"60 -20 OFFCURVE",
"88 -41 OFFCURVE",
"145 -41 CURVE SMOOTH",
"157 -41 OFFCURVE",
"168 -39 OFFCURVE",
"178 -35 CURVE SMOOTH",
"238 -11 OFFCURVE",
"283 28 OFFCURVE",
"312 85 CURVE SMOOTH"
);
}
);
};
layerId = "423D2297-FAE2-4393-80D6-0A1E9777D337";
paths = (
{
closed = 1;
nodes = (
"157 -41 OFFCURVE",
"168 -39 OFFCURVE",
"178 -35 CURVE SMOOTH",
"238 -11 OFFCURVE",
"283 28 OFFCURVE",
"312 85 CURVE SMOOTH",
"369 197 OFFCURVE",
"363 360 OFFCURVE",
"391 505 CURVE SMOOTH",
"416 627 OFFCURVE",
"459 720 OFFCURVE",
"526 720 CURVE SMOOTH",
"532 720 OFFCURVE",
"537 722 OFFCURVE",
"537 725 CURVE SMOOTH",
"537 730 OFFCURVE",
"530 732 OFFCURVE",
"521 732 CURVE SMOOTH",
"411 732 OFFCURVE",
"350 542 OFFCURVE",
"322 350 CURVE SMOOTH",
"303 233 OFFCURVE",
"284 149 OFFCURVE",
"275 120 CURVE SMOOTH",
"244 23 OFFCURVE",
"198 -25 OFFCURVE",
"139 -25 CURVE SMOOTH",
"103 -25 OFFCURVE",
"84 -11 OFFCURVE",
"84 17 CURVE SMOOTH",
"84 20 OFFCURVE",
"84 25 OFFCURVE",
"85 32 CURVE SMOOTH",
"86 38 OFFCURVE",
"86 42 OFFCURVE",
"86 45 CURVE SMOOTH",
"86 52 OFFCURVE",
"84 55 OFFCURVE",
"80 55 CURVE SMOOTH",
"66 55 OFFCURVE",
"60 44 OFFCURVE",
"60 21 CURVE SMOOTH",
"60 -20 OFFCURVE",
"88 -41 OFFCURVE",
"145 -41 CURVE SMOOTH"
);
},
{
closed = 1;
nodes = (
"224 151 OFFCURVE",
"288 213 OFFCURVE",
"288 304 CURVE SMOOTH",
"288 317 OFFCURVE",
"283 323 OFFCURVE",
"279 323 CURVE SMOOTH",
"276 323 OFFCURVE",
"273 319 OFFCURVE",
"273 312 CURVE SMOOTH",
"273 234 OFFCURVE",
"217 168 OFFCURVE",
"147 168 CURVE SMOOTH",
"77 168 OFFCURVE",
"36 240 OFFCURVE",
"36 316 CURVE SMOOTH",
"36 461 OFFCURVE",
"152 568 OFFCURVE",
"308 568 CURVE SMOOTH",
"494 568 OFFCURVE",
"568 477 OFFCURVE",
"568 390 CURVE SMOOTH",
"568 312 OFFCURVE",
"509 217 OFFCURVE",
"344 217 CURVE",
"341 205 LINE",
"520 208 OFFCURVE",
"608 290 OFFCURVE",
"608 393 CURVE SMOOTH",
"608 497 OFFCURVE",
"506 580 OFFCURVE",
"305 580 CURVE SMOOTH",
"138 580 OFFCURVE",
"-2 482 OFFCURVE",
"-2 315 CURVE SMOOTH",
"-2 231 OFFCURVE",
"46 151 OFFCURVE",
"133 151 CURVE SMOOTH"
);
}
);
width = 607;
}
);
unicode = 00DE;
},
{
glyphname = Q;
lastChange = "2022-03-02 21:03:53 +0000";
layers = (
{
layerId = "423D2297-FAE2-4393-80D6-0A1E9777D337";
paths = (
{
closed = 1;
nodes = (
"630 -96 OFFCURVE",
"670 -80 OFFCURVE",
"694 -48 CURVE",
"694 -45 OFFCURVE",
"692 -39 OFFCURVE",
"688 -39 CURVE",
"661 -70 OFFCURVE",
"624 -83 OFFCURVE",
"590 -83 CURVE SMOOTH",
"513 -83 OFFCURVE",
"461 -45 OFFCURVE",
"431 -20 CURVE",
"549 30 OFFCURVE",
"618 154 OFFCURVE",
"618 316 CURVE SMOOTH",
"618 410 OFFCURVE",
"587 483 OFFCURVE",
"525 535 CURVE",
"525 574 OFFCURVE",
"509 603 OFFCURVE",
"476 624 CURVE SMOOTH",
"448 639 OFFCURVE",
"413 647 OFFCURVE",
"370 647 CURVE SMOOTH",
"249 647 OFFCURVE",
"158 601 OFFCURVE",
"95 508 CURVE",
"60 538 OFFCURVE",
"43 572 OFFCURVE",
"43 607 CURVE SMOOTH",
"44 660 OFFCURVE",
"79 690 OFFCURVE",
"132 690 CURVE SMOOTH",
"160 690 OFFCURVE",
"186 679 OFFCURVE",
"210 661 CURVE",
"211 661 OFFCURVE",
"217 660 OFFCURVE",
"217 663 CURVE SMOOTH",
"217 665 OFFCURVE",
"215 668 OFFCURVE",
"212 671 CURVE SMOOTH",
"192 691 OFFCURVE",
"164 700 OFFCURVE",
"131 700 CURVE SMOOTH",
"68 700 OFFCURVE",
"22 666 OFFCURVE",
"22 605 CURVE SMOOTH",
"22 566 OFFCURVE",
"44 528 OFFCURVE",
"86 493 CURVE",
"48 430 OFFCURVE",
"28 355 OFFCURVE",
"28 271 CURVE SMOOTH",
"28 93 OFFCURVE",
"129 -43 OFFCURVE",
"310 -43 CURVE SMOOTH",
"349 -43 OFFCURVE",
"385 -37 OFFCURVE",
"418 -25 CURVE",
"461 -59 OFFCURVE",
"525 -96 OFFCURVE",
"592 -96 CURVE SMOOTH"
);
},
{
closed = 1;
nodes = (
"235 -27 OFFCURVE",
"174 19 OFFCURVE",
"135 86 CURVE",
"145 105 OFFCURVE",
"167 118 OFFCURVE",
"191 118 CURVE SMOOTH",
"245 118 OFFCURVE",
"302 74 OFFCURVE",
"400 -9 CURVE",
"374 -21 OFFCURVE",
"346 -27 OFFCURVE",
"315 -27 CURVE SMOOTH"
);
},
{
closed = 1;
nodes = (
"296 100 OFFCURVE",
"251 136 OFFCURVE",
"181 136 CURVE SMOOTH",
"154 136 OFFCURVE",
"134 130 OFFCURVE",
"120 117 CURVE",
"97 168 OFFCURVE",
"86 228 OFFCURVE",
"87 289 CURVE SMOOTH",
"88 352 OFFCURVE",
"101 410 OFFCURVE",
"128 463 CURVE",
"180 430 OFFCURVE",
"257 412 OFFCURVE",
"323 412 CURVE SMOOTH",
"406 412 OFFCURVE",
"481 440 OFFCURVE",
"513 504 CURVE",
"550 457 OFFCURVE",
"568 395 OFFCURVE",
"568 318 CURVE SMOOTH",
"568 180 OFFCURVE",
"511 48 OFFCURVE",
"412 -4 CURVE"
);
},
{
closed = 1;
nodes = (
"253 430 OFFCURVE",
"190 449 OFFCURVE",
"136 479 CURVE",
"159 523 OFFCURVE",
"192 561 OFFCURVE",
"231 589 CURVE SMOOTH",
"275 619 OFFCURVE",
"321 635 OFFCURVE",
"369 635 CURVE SMOOTH",
"447 635 OFFCURVE",
"491 607 OFFCURVE",
"502 551 CURVE",
"472 574 OFFCURVE",
"443 579 OFFCURVE",
"414 579 CURVE SMOOTH",
"388 579 OFFCURVE",
"335 567 OFFCURVE",
"335 540 CURVE SMOOTH",
"335 535 OFFCURVE",
"337 533 OFFCURVE",
"340 533 CURVE",
"360 550 OFFCURVE",
"381 562 OFFCURVE",
"413 562 CURVE SMOOTH",
"445 562 OFFCURVE",
"475 548 OFFCURVE",
"501 520 CURVE",
"483 458 OFFCURVE",
"399 430 OFFCURVE",
"317 430 CURVE SMOOTH"
);
}
);
userData = {
assembly = "NPUSHB[ ]	/* 56 values pushed */\0121 111 111 64 112 46 109 104 96 92 90 85 83 81 77 71 66 60 52 44 41 28 24 22 4 107 98 90 89 87 79 73 64 58 52 46 39 36 26 20 12 10 8 54 7 30 16 0 39 38 1 2 1 1 12 70 \012SROUND[ ]	/* SuperRound */\012MDAP[1]	/* MoveDirectAbsPt */\012SHZ[1]	/* ShiftZoneByLastPoint */\012RTG[ ]	/* RoundToGrid */\012SVTCA[0]	/* SetFreedomAndProjectionVectorToAxis */\012MIAP[1]	/* MoveIndirectAbsPt */\012MIAP[1]	/* MoveIndirectAbsPt */\012ALIGNRP[ ]	/* AlignRelativePt */\012MDAP[1]	/* MoveDirectAbsPt */\012MDAP[1]	/* MoveDirectAbsPt */\012MDAP[1]	/* MoveDirectAbsPt */\012MIRP[11101]	/* MoveIndirectRelPt */\012SVTCA[1]	/* SetFreedomAndProjectionVectorToAxis */\012MDAP[0]	/* MoveDirectAbsPt */\012MDAP[0]	/* MoveDirectAbsPt */\012MDAP[0]	/* MoveDirectAbsPt */\012MDAP[0]	/* MoveDirectAbsPt */\012MDAP[0]	/* MoveDirectAbsPt */\012MDAP[0]	/* MoveDirectAbsPt */\012MDAP[0]	/* MoveDirectAbsPt */\012MDAP[0]	/* MoveDirectAbsPt */\012MDAP[0]	/* MoveDirectAbsPt */\012MDAP[0]	/* MoveDirectAbsPt */\012MDAP[0]	/* MoveDirectAbsPt */\012MDAP[0]	/* MoveDirectAbsPt */\012MDAP[0]	/* MoveDirectAbsPt */\012MDAP[0]	/* MoveDirectAbsPt */\012MDAP[0]	/* MoveDirectAbsPt */\012MDAP[0]	/* MoveDirectAbsPt */\012MDAP[0]	/* MoveDirectAbsPt */\012MDAP[0]	/* MoveDirectAbsPt */\012SVTCA[0]	/* SetFreedomAndProjectionVectorToAxis */\012MDAP[0]	/* MoveDirectAbsPt */\012MDAP[0]	/* MoveDirectAbsPt */\012MDAP[0]	/* MoveDirectAbsPt */\012MDAP[0]	/* MoveDirectAbsPt */\012MDAP[0]	/* MoveDirectAbsPt */\012MDAP[0]	/* MoveDirectAbsPt */\012MDAP[0]	/* MoveDirectAbsPt */\012MDAP[0]	/* MoveDirectAbsPt */\012MDAP[0]	/* MoveDirectAbsPt */\012MDAP[0]	/* MoveDirectAbsPt */\012MDAP[0]	/* MoveDirectAbsPt */\012MDAP[0]	/* MoveDirectAbsPt */\012MDAP[0]	/* MoveDirectAbsPt */\012MDAP[0]	/* MoveDirectAbsPt */\012MDAP[0]	/* MoveDirectAbsPt */\012MDAP[0]	/* MoveDirectAbsPt */\012MDAP[0]	/* MoveDirectAbsPt */\012MDAP[0]	/* MoveDirectAbsPt */\012MDAP[0]	/* MoveDirectAbsPt */\012IUP[1]	/* InterpolateUntPts */\012IUP[0]	/* InterpolateUntPts */\012SVTCA[1]	/* SetFreedomAndProjectionVectorToAxis */\012MD[0]	/* MeasureDistance */\012ROUND[00]	/* Round */\012PUSHW[ ]	/* 2 values pushed */\01212 111 \012MD[0]	/* MeasureDistance */\012ROUND[00]	/* Round */\012SUB[ ]	/* Subtract */\012PUSHB[ ]	/* 1 value pushed */\01264 \012GT[ ]	/* GreaterThan */\012IF[ ]	/* If */\012SHPIX[ ]	/* ShiftZoneByPixel */\012SRP1[ ]	/* SetRefPoint1 */\012SHZ[1]	/* ShiftZoneByLastPoint */\012PUSHW[ ]	/* 2 values pushed */\012111 -64 \012SHPIX[ ]	/* ShiftZoneByPixel */\012EIF[ ]	/* EndIf */";
};
width = 654;
}
);
note = Q;
unicode = 0051;
},
{
glyphname = R;
lastChange = "2022-03-02 21:03:53 +0000";
layers = (
{
layerId = "423D2297-FAE2-4393-80D6-0A1E9777D337";
paths = (
{
closed = 1;
nodes = (
"664 -78 OFFCURVE",
"710 -55 OFFCURVE",
"710 -19 CURVE SMOOTH",
"710 -7 OFFCURVE",
"708 -1 OFFCURVE",
"703 -1 CURVE SMOOTH",
"700 -1 OFFCURVE",
"699 -4 OFFCURVE",
"699 -10 CURVE SMOOTH",
"699 -41 OFFCURVE",
"686 -56 OFFCURVE",
"659 -56 CURVE SMOOTH",
"630 -56 OFFCURVE",
"601 -37 OFFCURVE",
"572 1 CURVE SMOOTH",
"552 28 OFFCURVE",
"535 61 OFFCURVE",
"521 98 CURVE SMOOTH",
"480 207 OFFCURVE",
"426 264 OFFCURVE",
"360 267 CURVE",
"415 267 OFFCURVE",
"461 278 OFFCURVE",
"499 300 CURVE SMOOTH",
"545 327 OFFCURVE",
"568 366 OFFCURVE",
"568 417 CURVE SMOOTH",
"568 452 OFFCURVE",
"556 482 OFFCURVE",
"533 508 CURVE SMOOTH",
"500 543 OFFCURVE",
"441 560 OFFCURVE",
"414 567 CURVE",
"430 586 OFFCURVE",
"451 596 OFFCURVE",
"477 596 CURVE SMOOTH",
"486 596 OFFCURVE",
"495 593 OFFCURVE",
"502 590 CURVE",
"503 590 OFFCURVE",
"504 591 OFFCURVE",
"504 594 CURVE SMOOTH",
"504 598 OFFCURVE",
"493 607 OFFCURVE",
"470 607 CURVE SMOOTH",
"441 607 OFFCURVE",
"414 595 OFFCURVE",
"391 572 CURVE",
"358 579 OFFCURVE",
"325 582 OFFCURVE",
"292 582 CURVE SMOOTH",
"129 582 OFFCURVE",
"-14 496 OFFCURVE",
"-14 347 CURVE SMOOTH",
"-14 262 OFFCURVE",
"30 198 OFFCURVE",
"128 198 CURVE SMOOTH",
"208 198 OFFCURVE",
"262 259 OFFCURVE",
"262 334 CURVE SMOOTH",
"262 393 OFFCURVE",
"222 435 OFFCURVE",
"163 435 CURVE SMOOTH",
"123 435 OFFCURVE",
"93 408 OFFCURVE",
"93 368 CURVE SMOOTH",
"93 342 OFFCURVE",
"108 330 OFFCURVE",
"131 330 CURVE SMOOTH",
"134 330 OFFCURVE",
"136 332 OFFCURVE",
"136 335 CURVE SMOOTH",
"136 339 OFFCURVE",
"133 339 OFFCURVE",
"130 339 CURVE SMOOTH",
"114 339 OFFCURVE",
"103 353 OFFCURVE",
"103 370 CURVE SMOOTH",
"103 402 OFFCURVE",
"131 427 OFFCURVE",
"163 427 CURVE SMOOTH",
"212 427 OFFCURVE",
"244 387 OFFCURVE",
"244 336 CURVE SMOOTH",
"244 271 OFFCURVE",
"196 210 OFFCURVE",
"131 210 CURVE SMOOTH",
"58 210 OFFCURVE",
"14 265 OFFCURVE",
"14 338 CURVE SMOOTH",
"14 479 OFFCURVE",
"140 569 OFFCURVE",
"299 569 CURVE SMOOTH",
"326 569 OFFCURVE",
"354 567 OFFCURVE",
"383 561 CURVE",
"337 508 OFFCURVE",
"307 418 OFFCURVE",
"293 295 CURVE SMOOTH",
"289 255 OFFCURVE",
"285 215 OFFCURVE",
"282 175 CURVE SMOOTH",
"275 118 OFFCURVE",
"263 73 OFFCURVE",
"248 42 CURVE SMOOTH",
"227 0 OFFCURVE",
"197 -21 OFFCURVE",
"159 -21 CURVE SMOOTH",
"146 -21 OFFCURVE",
"134 -18 OFFCURVE",
"123 -12 CURVE SMOOTH",
"110 -5 OFFCURVE",
"103 5 OFFCURVE",
"103 17 CURVE SMOOTH",
"103 27 OFFCURVE",
"101 32 OFFCURVE",
"98 32 CURVE SMOOTH",
"93 32 OFFCURVE",
"91 28 OFFCURVE",
"91 19 CURVE SMOOTH",
"91 -14 OFFCURVE",
"122 -34 OFFCURVE",
"157 -34 CURVE SMOOTH",
"162 -34 LINE",
"165 -33 OFFCURVE",
"166 -33 OFFCURVE",
"167 -33 CURVE SMOOTH",
"234 -23 OFFCURVE",
"281 13 OFFCURVE",
"306 74 CURVE SMOOTH",
"321 109 OFFCURVE",
"331 171 OFFCURVE",
"336 258 CURVE",
"360 255 LINE SMOOTH",
"392 251 OFFCURVE",
"417 227 OFFCURVE",
"434 186 CURVE",
"466 82 LINE SMOOTH",
"499 -26 OFFCURVE",
"555 -78 OFFCURVE",
"627 -78 CURVE SMOOTH"
);
},
{
closed = 1;
nodes = (
"345 356 OFFCURVE",
"350 405 OFFCURVE",
"353 419 CURVE SMOOTH",
"363 471 OFFCURVE",
"381 516 OFFCURVE",
"407 554 CURVE",
"490 534 OFFCURVE",
"531 491 OFFCURVE",
"531 424 CURVE SMOOTH",
"531 388 OFFCURVE",
"518 357 OFFCURVE",
"492 330 CURVE SMOOTH",
"469 305 OFFCURVE",
"439 289 OFFCURVE",
"402 281 CURVE SMOOTH",
"383 277 OFFCURVE",
"361 274 OFFCURVE",
"337 273 CURVE"
);
}
);
userData = {
assembly = "NPUSHB[ ]	/* 50 values pushed */\0121 135 135 64 136 0 127 123 121 117 99 96 88 73 68 64 62 40 30 24 19 17 11 133 127 111 107 101 94 82 76 70 66 60 54 46 38 22 0 57 8 90 51 7 79 92 3 1 82 70 \012SROUND[ ]	/* SuperRound */\012MDAP[1]	/* MoveDirectAbsPt */\012SHZ[1]	/* ShiftZoneByLastPoint */\012RTG[ ]	/* RoundToGrid */\012SVTCA[0]	/* SetFreedomAndProjectionVectorToAxis */\012MDAP[1]	/* MoveDirectAbsPt */\012MDAP[1]	/* MoveDirectAbsPt */\012MDAP[1]	/* MoveDirectAbsPt */\012MIRP[11101]	/* MoveIndirectRelPt */\012MDAP[1]	/* MoveDirectAbsPt */\012MIRP[11101]	/* MoveIndirectRelPt */\012SVTCA[1]	/* SetFreedomAndProjectionVectorToAxis */\012MDAP[0]	/* MoveDirectAbsPt */\012MDAP[0]	/* MoveDirectAbsPt */\012MDAP[0]	/* MoveDirectAbsPt */\012MDAP[0]	/* MoveDirectAbsPt */\012MDAP[0]	/* MoveDirectAbsPt */\012MDAP[0]	/* MoveDirectAbsPt */\012MDAP[0]	/* MoveDirectAbsPt */\012MDAP[0]	/* MoveDirectAbsPt */\012MDAP[0]	/* MoveDirectAbsPt */\012MDAP[0]	/* MoveDirectAbsPt */\012MDAP[0]	/* MoveDirectAbsPt */\012MDAP[0]	/* MoveDirectAbsPt */\012MDAP[0]	/* MoveDirectAbsPt */\012MDAP[0]	/* MoveDirectAbsPt */\012MDAP[0]	/* MoveDirectAbsPt */\012MDAP[0]	/* MoveDirectAbsPt */\012SVTCA[0]	/* SetFreedomAndProjectionVectorToAxis */\012MDAP[0]	/* MoveDirectAbsPt */\012MDAP[0]	/* MoveDirectAbsPt */\012MDAP[0]	/* MoveDirectAbsPt */\012MDAP[0]	/* MoveDirectAbsPt */\012MDAP[0]	/* MoveDirectAbsPt */\012MDAP[0]	/* MoveDirectAbsPt */\012MDAP[0]	/* MoveDirectAbsPt */\012MDAP[0]	/* MoveDirectAbsPt */\012MDAP[0]	/* MoveDirectAbsPt */\012MDAP[0]	/* MoveDirectAbsPt */\012MDAP[0]	/* MoveDirectAbsPt */\012MDAP[0]	/* MoveDirectAbsPt */\012MDAP[0]	/* MoveDirectAbsPt */\012MDAP[0]	/* MoveDirectAbsPt */\012MDAP[0]	/* MoveDirectAbsPt */\012MDAP[0]	/* MoveDirectAbsPt */\012MDAP[0]	/* MoveDirectAbsPt */\012IUP[1]	/* InterpolateUntPts */\012IUP[0]	/* InterpolateUntPts */\012SVTCA[1]	/* SetFreedomAndProjectionVectorToAxis */\012MD[0]	/* MeasureDistance */\012ROUND[00]	/* Round */\012PUSHW[ ]	/* 2 values pushed */\01282 135 \012MD[0]	/* MeasureDistance */\012ROUND[00]	/* Round */\012SUB[ ]	/* Subtract */\012PUSHB[ ]	/* 1 value pushed */\01264 \012GT[ ]	/* GreaterThan */\012IF[ ]	/* If */\012SHPIX[ ]	/* ShiftZoneByPixel */\012SRP1[ ]	/* SetRefPoint1 */\012SHZ[1]	/* ShiftZoneByLastPoint */\012PUSHW[ ]	/* 2 values pushed */\012135 -64 \012SHPIX[ ]	/* ShiftZoneByPixel */\012EIF[ ]	/* EndIf */";
};
width = 593;
}
);
note = R;
unicode = 0052;
},
{
glyphname = S;
lastChange = "2022-03-02 21:03:53 +0000";
layers = (
{
layerId = "423D2297-FAE2-4393-80D6-0A1E9777D337";
paths = (
{
closed = 1;
nodes = (
"354 -58 OFFCURVE",
"470 19 OFFCURVE",
"470 152 CURVE SMOOTH",
"470 277 OFFCURVE",
"373 331 OFFCURVE",
"215 421 CURVE SMOOTH",
"174 445 OFFCURVE",
"153 477 OFFCURVE",
"153 515 CURVE SMOOTH",
"153 547 OFFCURVE",
"167 572 OFFCURVE",
"196 591 CURVE SMOOTH",
"222 609 OFFCURVE",
"252 618 OFFCURVE",
"286 618 CURVE SMOOTH",
"358 618 OFFCURVE",
"414 571 OFFCURVE",
"414 505 CURVE SMOOTH",
"414 468 OFFCURVE",
"388 429 OFFCURVE",
"345 429 CURVE SMOOTH",
"312 429 OFFCURVE",
"293 450 OFFCURVE",
"293 473 CURVE SMOOTH",
"293 494 OFFCURVE",
"305 507 OFFCURVE",
"323 507 CURVE SMOOTH",
"335 507 OFFCURVE",
"341 501 OFFCURVE",
"341 489 CURVE SMOOTH",
"341 487 OFFCURVE",
"343 485 OFFCURVE",
"346 485 CURVE SMOOTH",
"349 485 OFFCURVE",
"351 487 OFFCURVE",
"351 490 CURVE SMOOTH",
"351 504 OFFCURVE",
"341 519 OFFCURVE",
"320 519 CURVE SMOOTH",
"295 519 OFFCURVE",
"278 500 OFFCURVE",
"278 472 CURVE SMOOTH",
"278 448 OFFCURVE",
"300 419 OFFCURVE",
"344 419 CURVE SMOOTH",
"397 419 OFFCURVE",
"433 458 OFFCURVE",
"433 508 CURVE SMOOTH",
"433 545 OFFCURVE",
"419 576 OFFCURVE",
"390 599 CURVE SMOOTH",
"363 620 OFFCURVE",
"330 631 OFFCURVE",
"289 631 CURVE SMOOTH",
"200 631 OFFCURVE",
"117 566 OFFCURVE",
"117 484 CURVE SMOOTH",
"117 435 OFFCURVE",
"141 397 OFFCURVE",
"190 369 CURVE SMOOTH",
"336 283 OFFCURVE",
"426 237 OFFCURVE",
"426 125 CURVE SMOOTH",
"426 22 OFFCURVE",
"331 -43 OFFCURVE",
"223 -43 CURVE SMOOTH",
"113 -43 OFFCURVE",
"19 22 OFFCURVE",
"19 125 CURVE SMOOTH",
"19 214 OFFCURVE",
"83 289 OFFCURVE",
"176 289 CURVE SMOOTH",
"249 289 OFFCURVE",
"312 241 OFFCURVE",
"312 175 CURVE SMOOTH",
"312 116 OFFCURVE",
"275 56 OFFCURVE",
"212 56 CURVE SMOOTH",
"188 56 OFFCURVE",
"168 66 OFFCURVE",
"159 83 CURVE SMOOTH",
"155 91 OFFCURVE",
"153 100 OFFCURVE",
"153 109 CURVE SMOOTH",
"153 122 OFFCURVE",
"157 135 OFFCURVE",
"168 142 CURVE SMOOTH",
"183 152 LINE",
"183 156 OFFCURVE",
"181 157 OFFCURVE",
"177 157 CURVE SMOOTH",
"154 157 OFFCURVE",
"133 132 OFFCURVE",
"133 105 CURVE SMOOTH",
"133 77 OFFCURVE",
"156 43 OFFCURVE",
"212 43 CURVE SMOOTH",
"277 43 OFFCURVE",
"335 100 OFFCURVE",
"335 165 CURVE SMOOTH",
"335 239 OFFCURVE",
"262 300 OFFCURVE",
"181 300 CURVE SMOOTH",
"80 300 OFFCURVE",
"-7 220 OFFCURVE",
"-7 125 CURVE SMOOTH",
"-7 10 OFFCURVE",
"100 -58 OFFCURVE",
"222 -58 CURVE SMOOTH"
);
}
);
userData = {
assembly = "NPUSHB[ ]	/* 46 values pushed */\0121 103 103 64 104 42 72 65 60 31 24 18 14 9 3 96 90 82 76 67 56 50 42 38 37 28 21 12 6 0 70 35 6 62 86 7 46 79 7 53 46 99 3 1 50 70 \012SROUND[ ]	/* SuperRound */\012MDAP[1]	/* MoveDirectAbsPt */\012SHZ[1]	/* ShiftZoneByLastPoint */\012RTG[ ]	/* RoundToGrid */\012SVTCA[0]	/* SetFreedomAndProjectionVectorToAxis */\012MIAP[1]	/* MoveIndirectAbsPt */\012MDAP[1]	/* MoveDirectAbsPt */\012MDAP[1]	/* MoveDirectAbsPt */\012MIRP[11101]	/* MoveIndirectRelPt */\012SRP0[ ]	/* SetRefPoint0 */\012MIRP[11101]	/* MoveIndirectRelPt */\012SVTCA[1]	/* SetFreedomAndProjectionVectorToAxis */\012MDAP[1]	/* MoveDirectAbsPt */\012MIRP[11101]	/* MoveIndirectRelPt */\012ALIGNRP[ ]	/* AlignRelativePt */\012MDAP[0]	/* MoveDirectAbsPt */\012MDAP[0]	/* MoveDirectAbsPt */\012MDAP[0]	/* MoveDirectAbsPt */\012MDAP[0]	/* MoveDirectAbsPt */\012MDAP[0]	/* MoveDirectAbsPt */\012MDAP[0]	/* MoveDirectAbsPt */\012MDAP[0]	/* MoveDirectAbsPt */\012MDAP[0]	/* MoveDirectAbsPt */\012MDAP[0]	/* MoveDirectAbsPt */\012MDAP[0]	/* MoveDirectAbsPt */\012MDAP[0]	/* MoveDirectAbsPt */\012MDAP[0]	/* MoveDirectAbsPt */\012MDAP[0]	/* MoveDirectAbsPt */\012MDAP[0]	/* MoveDirectAbsPt */\012MDAP[0]	/* MoveDirectAbsPt */\012SVTCA[0]	/* SetFreedomAndProjectionVectorToAxis */\012MDAP[0]	/* MoveDirectAbsPt */\012MDAP[0]	/* MoveDirectAbsPt */\012MDAP[0]	/* MoveDirectAbsPt */\012MDAP[0]	/* MoveDirectAbsPt */\012MDAP[0]	/* MoveDirectAbsPt */\012MDAP[0]	/* MoveDirectAbsPt */\012MDAP[0]	/* MoveDirectAbsPt */\012MDAP[0]	/* MoveDirectAbsPt */\012MDAP[0]	/* MoveDirectAbsPt */\012IUP[1]	/* InterpolateUntPts */\012IUP[0]	/* InterpolateUntPts */\012SVTCA[1]	/* SetFreedomAndProjectionVectorToAxis */\012MD[0]	/* MeasureDistance */\012ROUND[00]	/* Round */\012PUSHW[ ]	/* 2 values pushed */\01250 103 \012MD[0]	/* MeasureDistance */\012ROUND[00]	/* Round */\012SUB[ ]	/* Subtract */\012PUSHB[ ]	/* 1 value pushed */\01264 \012GT[ ]	/* GreaterThan */\012IF[ ]	/* If */\012SHPIX[ ]	/* ShiftZoneByPixel */\012SRP1[ ]	/* SetRefPoint1 */\012SHZ[1]	/* ShiftZoneByLastPoint */\012PUSHW[ ]	/* 2 values pushed */\012103 -64 \012SHPIX[ ]	/* ShiftZoneByPixel */\012EIF[ ]	/* EndIf */";
};
width = 507;
}
);
note = S;
unicode = 0053;
},
{
color = 1;
glyphname = Germandbls;
lastChange = "2022-03-02 21:03:53 +0000";
layers = (
{
layerId = "423D2297-FAE2-4393-80D6-0A1E9777D337";
paths = (
{
closed = 1;
nodes = (
"7 -57 OFFCURVE",
"58 -11 OFFCURVE",
"82 111 CURVE SMOOTH",
"94 173 OFFCURVE",
"105 256 OFFCURVE",
"121 369 CURVE SMOOTH",
"138 501 OFFCURVE",
"163 651 OFFCURVE",
"274 651 CURVE SMOOTH",
"330 651 OFFCURVE",
"353 618 OFFCURVE",
"353 576 CURVE SMOOTH",
"353 512 OFFCURVE",
"300 428 OFFCURVE",
"230 410 CURVE SMOOTH",
"215 406 OFFCURVE",
"208 395 OFFCURVE",
"210 384 CURVE SMOOTH",
"212 377 OFFCURVE",
"225 372 OFFCURVE",
"245 365 CURVE SMOOTH",
"317 336 OFFCURVE",
"359 292 OFFCURVE",
"359 207 CURVE SMOOTH",
"359 110 OFFCURVE",
"276 29 OFFCURVE",
"193 29 CURVE SMOOTH",
"152 29 OFFCURVE",
"115 36 OFFCURVE",
"115 72 CURVE SMOOTH",
"115 110 OFFCURVE",
"163 162 OFFCURVE",
"212 162 CURVE SMOOTH",
"219 162 OFFCURVE",
"220 166 OFFCURVE",
"220 168 CURVE",
"219 171 OFFCURVE",
"215 173 OFFCURVE",
"210 173 CURVE SMOOTH",
"151 173 OFFCURVE",
"102 124 OFFCURVE",
"102 74 CURVE SMOOTH",
"102 30 OFFCURVE",
"138 7 OFFCURVE",
"186 7 CURVE SMOOTH",
"285 7 OFFCURVE",
"412 89 OFFCURVE",
"412 208 CURVE SMOOTH",
"412 342 OFFCURVE",
"314 367 OFFCURVE",
"233 395 CURVE",
"325 420 OFFCURVE",
"395 509 OFFCURVE",
"395 578 CURVE SMOOTH",
"395 626 OFFCURVE",
"361 665 OFFCURVE",
"276 665 CURVE SMOOTH",
"145 665 OFFCURVE",
"97 507 OFFCURVE",
"73 373 CURVE SMOOTH",
"52 258 OFFCURVE",
"41 174 OFFCURVE",
"32 114 CURVE SMOOTH",
"15 1 OFFCURVE",
"-12 -41 OFFCURVE",
"-74 -41 CURVE SMOOTH",
"-83 -41 OFFCURVE",
"-93 -41 OFFCURVE",
"-103 -39 CURVE SMOOTH",
"-110 -38 OFFCURVE",
"-114 -41 OFFCURVE",
"-114 -44 CURVE SMOOTH",
"-114 -47 OFFCURVE",
"-110 -51 OFFCURVE",
"-101 -53 CURVE SMOOTH",
"-88 -55 OFFCURVE",
"-75 -57 OFFCURVE",
"-63 -57 CURVE SMOOTH"
);
}
);
width = 442;
}
);
unicode = 1E9E;
},
{
glyphname = Schwa;
lastChange = "2022-03-02 21:03:53 +0000";
layers = (
{
layerId = "423D2297-FAE2-4393-80D6-0A1E9777D337";
paths = (
{
closed = 1;
nodes = (
"430 -40 OFFCURVE",
"595 126 OFFCURVE",
"595 343 CURVE SMOOTH",
"595 517 OFFCURVE",
"480 639 OFFCURVE",
"311 639 CURVE SMOOTH",
"200 639 OFFCURVE",
"68 572 OFFCURVE",
"68 458 CURVE SMOOTH",
"68 403 OFFCURVE",
"104 361 OFFCURVE",
"157 361 CURVE SMOOTH",
"192 361 OFFCURVE",
"217 387 OFFCURVE",
"217 425 CURVE SMOOTH",
"217 439 OFFCURVE",
"214 445 OFFCURVE",
"209 445 CURVE SMOOTH",
"206 445 OFFCURVE",
"203 442 OFFCURVE",
"203 435 CURVE SMOOTH",
"203 419 LINE SMOOTH",
"203 398 OFFCURVE",
"178 382 OFFCURVE",
"158 382 CURVE SMOOTH",
"122 382 OFFCURVE",
"103 416 OFFCURVE",
"103 455 CURVE SMOOTH",
"103 555 OFFCURVE",
"193 621 OFFCURVE",
"308 621 CURVE SMOOTH",
"453 621 OFFCURVE",
"535 517 OFFCURVE",
"535 352 CURVE SMOOTH",
"535 327 OFFCURVE",
"533 296 OFFCURVE",
"528 264 CURVE",
"485 284 OFFCURVE",
"422 298 OFFCURVE",
"346 298 CURVE SMOOTH",
"210 298 OFFCURVE",
"45 223 OFFCURVE",
"45 81 CURVE SMOOTH",
"45 -6 OFFCURVE",
"123 -40 OFFCURVE",
"221 -40 CURVE SMOOTH"
);
},
{
closed = 1;
nodes = (
"153 -21 OFFCURVE",
"89 28 OFFCURVE",
"89 103 CURVE SMOOTH",
"89 217 OFFCURVE",
"225 278 OFFCURVE",
"349 278 CURVE SMOOTH",
"412 278 OFFCURVE",
"482 262 OFFCURVE",
"524 238 CURVE",
"490 79 OFFCURVE",
"379 -21 OFFCURVE",
"230 -21 CURVE SMOOTH"
);
}
);
width = 653;
}
);
unicode = 018F;
},
{
glyphname = T;
lastChange = "2022-03-02 21:03:53 +0000";
layers = (
{
layerId = "423D2297-FAE2-4393-80D6-0A1E9777D337";
paths = (
{
closed = 1;
nodes = (
"380 -39 OFFCURVE",
"472 46 OFFCURVE",
"515 168 CURVE SMOOTH",
"553 278 OFFCURVE",
"543 467 OFFCURVE",
"587 547 CURVE",
"653 521 OFFCURVE",
"723 507 OFFCURVE",
"791 507 CURVE SMOOTH",
"871 507 OFFCURVE",
"922 530 OFFCURVE",
"922 559 CURVE SMOOTH",
"922 568 OFFCURVE",
"916 571 OFFCURVE",
"913 571 CURVE SMOOTH",
"908 571 OFFCURVE",
"904 568 OFFCURVE",
"904 559 CURVE SMOOTH",
"904 538 OFFCURVE",
"830 524 OFFCURVE",
"791 524 CURVE SMOOTH",
"730 524 OFFCURVE",
"668 541 OFFCURVE",
"600 570 CURVE",
"618 594 OFFCURVE",
"627 600 OFFCURVE",
"639 605 CURVE SMOOTH",
"651 610 OFFCURVE",
"662 610 OFFCURVE",
"666 610 CURVE",
"666 617 OFFCURVE",
"661 622 OFFCURVE",
"652 622 CURVE SMOOTH",
"637 622 OFFCURVE",
"604 606 OFFCURVE",
"581 577 CURVE",
"464 623 OFFCURVE",
"394 653 OFFCURVE",
"315 653 CURVE SMOOTH",
"207 653 OFFCURVE",
"129 581 OFFCURVE",
"129 475 CURVE SMOOTH",
"129 391 OFFCURVE",
"174 330 OFFCURVE",
"259 330 CURVE SMOOTH",
"333 330 OFFCURVE",
"398 374 OFFCURVE",
"398 443 CURVE SMOOTH",
"398 462 OFFCURVE",
"393 473 OFFCURVE",
"384 473 CURVE",
"380 470 OFFCURVE",
"377 467 OFFCURVE",
"377 464 CURVE SMOOTH",
"377 462 OFFCURVE",
"377 461 OFFCURVE",
"378 459 CURVE SMOOTH",
"379 457 OFFCURVE",
"379 455 OFFCURVE",
"380 454 CURVE",
"380 448 LINE SMOOTH",
"380 393 OFFCURVE",
"322 351 OFFCURVE",
"265 351 CURVE SMOOTH",
"200 351 OFFCURVE",
"160 400 OFFCURVE",
"160 463 CURVE SMOOTH",
"160 556 OFFCURVE",
"227 617 OFFCURVE",
"322 617 CURVE SMOOTH",
"371 617 OFFCURVE",
"451 596 OFFCURVE",
"565 555 CURVE",
"503 460 OFFCURVE",
"508 308 OFFCURVE",
"464 186 CURVE SMOOTH",
"422 71 OFFCURVE",
"343 -16 OFFCURVE",
"226 -16 CURVE SMOOTH",
"111 -16 OFFCURVE",
"50 47 OFFCURVE",
"50 143 CURVE SMOOTH",
"50 221 OFFCURVE",
"106 268 OFFCURVE",
"153 268 CURVE SMOOTH",
"199 268 OFFCURVE",
"233 244 OFFCURVE",
"233 189 CURVE SMOOTH",
"233 156 OFFCURVE",
"219 136 OFFCURVE",
"193 126 CURVE SMOOTH",
"187 124 OFFCURVE",
"178 121 OFFCURVE",
"171 121 CURVE SMOOTH",
"167 121 OFFCURVE",
"163 117 OFFCURVE",
"163 113 CURVE SMOOTH",
"163 109 OFFCURVE",
"167 106 OFFCURVE",
"172 106 CURVE SMOOTH",
"222 106 OFFCURVE",
"258 141 OFFCURVE",
"258 191 CURVE SMOOTH",
"258 256 OFFCURVE",
"212 285 OFFCURVE",
"153 285 CURVE SMOOTH",
"92 285 OFFCURVE",
"15 234 OFFCURVE",
"15 143 CURVE SMOOTH",
"15 32 OFFCURVE",
"109 -39 OFFCURVE",
"223 -39 CURVE SMOOTH"
);
}
);
userData = {
assembly = "NPUSHB[ ]	/* 52 values pushed */\0121 115 115 64 116 13 108 97 91 62 45 43 37 17 11 101 93 89 86 84 77 72 59 57 40 39 27 13 4 0 34 5 49 74 8 104 15 7 6 30 7 51 23 113 3 104 4 80 2 1 27 70 \012SROUND[ ]	/* SuperRound */\012MDAP[1]	/* MoveDirectAbsPt */\012SHZ[1]	/* ShiftZoneByLastPoint */\012RTG[ ]	/* RoundToGrid */\012SVTCA[0]	/* SetFreedomAndProjectionVectorToAxis */\012MIAP[1]	/* MoveIndirectAbsPt */\012MIAP[1]	/* MoveIndirectAbsPt */\012MIAP[1]	/* MoveIndirectAbsPt */\012MDAP[1]	/* MoveDirectAbsPt */\012MDAP[1]	/* MoveDirectAbsPt */\012MIRP[11101]	/* MoveIndirectRelPt */\012MDAP[1]	/* MoveDirectAbsPt */\012MIRP[11101]	/* MoveIndirectRelPt */\012SRP0[ ]	/* SetRefPoint0 */\012MIRP[11101]	/* MoveIndirectRelPt */\012SVTCA[1]	/* SetFreedomAndProjectionVectorToAxis */\012MDAP[1]	/* MoveDirectAbsPt */\012MIRP[11101]	/* MoveIndirectRelPt */\012MDAP[0]	/* MoveDirectAbsPt */\012MDAP[0]	/* MoveDirectAbsPt */\012MDAP[0]	/* MoveDirectAbsPt */\012MDAP[0]	/* MoveDirectAbsPt */\012MDAP[0]	/* MoveDirectAbsPt */\012MDAP[0]	/* MoveDirectAbsPt */\012MDAP[0]	/* MoveDirectAbsPt */\012MDAP[0]	/* MoveDirectAbsPt */\012MDAP[0]	/* MoveDirectAbsPt */\012MDAP[0]	/* MoveDirectAbsPt */\012MDAP[0]	/* MoveDirectAbsPt */\012MDAP[0]	/* MoveDirectAbsPt */\012MDAP[0]	/* MoveDirectAbsPt */\012MDAP[0]	/* MoveDirectAbsPt */\012MDAP[0]	/* MoveDirectAbsPt */\012SVTCA[0]	/* SetFreedomAndProjectionVectorToAxis */\012MDAP[0]	/* MoveDirectAbsPt */\012MDAP[0]	/* MoveDirectAbsPt */\012MDAP[0]	/* MoveDirectAbsPt */\012MDAP[0]	/* MoveDirectAbsPt */\012MDAP[0]	/* MoveDirectAbsPt */\012MDAP[0]	/* MoveDirectAbsPt */\012MDAP[0]	/* MoveDirectAbsPt */\012MDAP[0]	/* MoveDirectAbsPt */\012MDAP[0]	/* MoveDirectAbsPt */\012IUP[1]	/* InterpolateUntPts */\012IUP[0]	/* InterpolateUntPts */\012SVTCA[1]	/* SetFreedomAndProjectionVectorToAxis */\012MD[0]	/* MeasureDistance */\012ROUND[00]	/* Round */\012PUSHW[ ]	/* 2 values pushed */\01227 115 \012MD[0]	/* MeasureDistance */\012ROUND[00]	/* Round */\012SUB[ ]	/* Subtract */\012PUSHB[ ]	/* 1 value pushed */\01264 \012GT[ ]	/* GreaterThan */\012IF[ ]	/* If */\012SHPIX[ ]	/* ShiftZoneByPixel */\012SRP1[ ]	/* SetRefPoint1 */\012SHZ[1]	/* ShiftZoneByLastPoint */\012PUSHW[ ]	/* 2 values pushed */\012115 -64 \012SHPIX[ ]	/* ShiftZoneByPixel */\012EIF[ ]	/* EndIf */";
};
width = 610;
}
);
note = T;
unicode = 0054;
},
{
glyphname = U;
lastChange = "2022-03-02 21:03:53 +0000";
layers = (
{
layerId = "423D2297-FAE2-4393-80D6-0A1E9777D337";
paths = (
{
closed = 1;
nodes = (
"650 -108 OFFCURVE",
"673 -91 OFFCURVE",
"673 -66 CURVE SMOOTH",
"673 -62 OFFCURVE",
"671 -60 OFFCURVE",
"666 -60 CURVE",
"661 -79 OFFCURVE",
"649 -90 OFFCURVE",
"640 -90 CURVE SMOOTH",
"632 -90 OFFCURVE",
"624 -85 OFFCURVE",
"616 -73 CURVE SMOOTH",
"589 -32 OFFCURVE",
"575 49 OFFCURVE",
"575 161 CURVE SMOOTH",
"575 262 OFFCURVE",
"582 332 OFFCURVE",
"597 392 CURVE SMOOTH",
"611 450 OFFCURVE",
"636 479 OFFCURVE",
"673 479 CURVE SMOOTH",
"682 479 OFFCURVE",
"693 478 OFFCURVE",
"691 478 CURVE SMOOTH",
"701 478 OFFCURVE",
"706 481 OFFCURVE",
"706 487 CURVE SMOOTH",
"706 497 OFFCURVE",
"695 502 OFFCURVE",
"673 502 CURVE SMOOTH",
"619 502 OFFCURVE",
"578 446 OFFCURVE",
"561 396 CURVE SMOOTH",
"492 173 OFFCURVE",
"449 -11 OFFCURVE",
"326 -11 CURVE SMOOTH",
"283 -11 OFFCURVE",
"267 18 OFFCURVE",
"267 62 CURVE SMOOTH",
"267 124 OFFCURVE",
"299 216 OFFCURVE",
"331 299 CURVE SMOOTH",
"354 357 OFFCURVE",
"366 410 OFFCURVE",
"366 456 CURVE SMOOTH",
"366 559 OFFCURVE",
"307 625 OFFCURVE",
"181 625 CURVE SMOOTH",
"57 625 OFFCURVE",
"-59 522 OFFCURVE",
"-59 399 CURVE SMOOTH",
"-59 318 OFFCURVE",
"-5 241 OFFCURVE",
"87 241 CURVE SMOOTH",
"154 241 OFFCURVE",
"209 288 OFFCURVE",
"209 360 CURVE SMOOTH",
"209 373 OFFCURVE",
"207 379 OFFCURVE",
"203 379 CURVE SMOOTH",
"199 379 OFFCURVE",
"197 376 OFFCURVE",
"197 371 CURVE SMOOTH",
"197 360 LINE SMOOTH",
"197 299 OFFCURVE",
"154 256 OFFCURVE",
"93 256 CURVE SMOOTH",
"18 256 OFFCURVE",
"-28 326 OFFCURVE",
"-28 404 CURVE SMOOTH",
"-28 517 OFFCURVE",
"71 614 OFFCURVE",
"184 614 CURVE SMOOTH",
"277 614 OFFCURVE",
"315 549 OFFCURVE",
"315 460 CURVE SMOOTH",
"315 406 OFFCURVE",
"302 344 OFFCURVE",
"279 282 CURVE SMOOTH",
"252 209 OFFCURVE",
"232 136 OFFCURVE",
"232 79 CURVE SMOOTH",
"232 18 OFFCURVE",
"256 -24 OFFCURVE",
"322 -24 CURVE SMOOTH",
"451 -24 OFFCURVE",
"501 128 OFFCURVE",
"554 320 CURVE",
"545 272 OFFCURVE",
"533 195 OFFCURVE",
"533 142 CURVE SMOOTH",
"533 8 OFFCURVE",
"545 -108 OFFCURVE",
"631 -108 CURVE SMOOTH"
);
}
);
userData = {
assembly = "NPUSHB[ ]	/* 44 values pushed */\0121 94 94 64 95 92 79 60 55 49 42 26 15 92 77 64 57 53 52 45 34 26 24 17 8 38 5 71 4 2 0 7 90 12 7 20 20 68 3 32 1 1 64 70 \012SROUND[ ]	/* SuperRound */\012MDAP[1]	/* MoveDirectAbsPt */\012SHZ[1]	/* ShiftZoneByLastPoint */\012RTG[ ]	/* RoundToGrid */\012SVTCA[0]	/* SetFreedomAndProjectionVectorToAxis */\012MIAP[1]	/* MoveIndirectAbsPt */\012MIAP[1]	/* MoveIndirectAbsPt */\012MDAP[1]	/* MoveDirectAbsPt */\012SRP0[ ]	/* SetRefPoint0 */\012MIRP[11101]	/* MoveIndirectRelPt */\012MDAP[1]	/* MoveDirectAbsPt */\012MIRP[11101]	/* MoveIndirectRelPt */\012ALIGNRP[ ]	/* AlignRelativePt */\012ALIGNRP[ ]	/* AlignRelativePt */\012SVTCA[1]	/* SetFreedomAndProjectionVectorToAxis */\012MDAP[1]	/* MoveDirectAbsPt */\012MIRP[11101]	/* MoveIndirectRelPt */\012MDAP[0]	/* MoveDirectAbsPt */\012MDAP[0]	/* MoveDirectAbsPt */\012MDAP[0]	/* MoveDirectAbsPt */\012MDAP[0]	/* MoveDirectAbsPt */\012MDAP[0]	/* MoveDirectAbsPt */\012MDAP[0]	/* MoveDirectAbsPt */\012MDAP[0]	/* MoveDirectAbsPt */\012MDAP[0]	/* MoveDirectAbsPt */\012MDAP[0]	/* MoveDirectAbsPt */\012MDAP[0]	/* MoveDirectAbsPt */\012MDAP[0]	/* MoveDirectAbsPt */\012MDAP[0]	/* MoveDirectAbsPt */\012SVTCA[0]	/* SetFreedomAndProjectionVectorToAxis */\012MDAP[0]	/* MoveDirectAbsPt */\012MDAP[0]	/* MoveDirectAbsPt */\012MDAP[0]	/* MoveDirectAbsPt */\012MDAP[0]	/* MoveDirectAbsPt */\012MDAP[0]	/* MoveDirectAbsPt */\012MDAP[0]	/* MoveDirectAbsPt */\012MDAP[0]	/* MoveDirectAbsPt */\012IUP[1]	/* InterpolateUntPts */\012IUP[0]	/* InterpolateUntPts */\012SVTCA[1]	/* SetFreedomAndProjectionVectorToAxis */\012MD[0]	/* MeasureDistance */\012ROUND[00]	/* Round */\012PUSHW[ ]	/* 2 values pushed */\01264 94 \012MD[0]	/* MeasureDistance */\012ROUND[00]	/* Round */\012SUB[ ]	/* Subtract */\012PUSHB[ ]	/* 1 value pushed */\01264 \012GT[ ]	/* GreaterThan */\012IF[ ]	/* If */\012SHPIX[ ]	/* ShiftZoneByPixel */\012SRP1[ ]	/* SetRefPoint1 */\012SHZ[1]	/* ShiftZoneByLastPoint */\012PUSHW[ ]	/* 2 values pushed */\01294 -64 \012SHPIX[ ]	/* ShiftZoneByPixel */\012EIF[ ]	/* EndIf */";
};
width = 658;
}
);
note = U;
unicode = 0055;
},
{
glyphname = V;
lastChange = "2022-03-02 21:03:53 +0000";
layers = (
{
layerId = "423D2297-FAE2-4393-80D6-0A1E9777D337";
paths = (
{
closed = 1;
nodes = (
"512 -48 OFFCURVE",
"593 36 OFFCURVE",
"676 204 CURVE SMOOTH",
"788 432 OFFCURVE",
"837 559 OFFCURVE",
"943 559 CURVE SMOOTH",
"983 559 OFFCURVE",
"1003 538 OFFCURVE",
"1003 497 CURVE SMOOTH",
"1003 480 OFFCURVE",
"996 472 OFFCURVE",
"986 468 CURVE",
"986 462 OFFCURVE",
"989 459 OFFCURVE",
"996 459 CURVE SMOOTH",
"1007 459 OFFCURVE",
"1021 475 OFFCURVE",
"1021 508 CURVE SMOOTH",
"1021 555 OFFCURVE",
"988 582 OFFCURVE",
"940 582 CURVE SMOOTH",
"887 582 OFFCURVE",
"831 548 OFFCURVE",
"773 453 CURVE SMOOTH",
"746 410 OFFCURVE",
"711 327 OFFCURVE",
"668 229 CURVE SMOOTH",
"613 105 OFFCURVE",
"532 -23 OFFCURVE",
"447 -33 CURVE",
"502 24 OFFCURVE",
"515 155 OFFCURVE",
"515 258 CURVE SMOOTH",
"515 380 OFFCURVE",
"476 515 OFFCURVE",
"376 573 CURVE SMOOTH",
"341 593 OFFCURVE",
"304 603 OFFCURVE",
"263 603 CURVE SMOOTH",
"194 603 OFFCURVE",
"135 582 OFFCURVE",
"88 541 CURVE SMOOTH",
"39 498 OFFCURVE",
"15 441 OFFCURVE",
"15 372 CURVE SMOOTH",
"15 281 OFFCURVE",
"82 200 OFFCURVE",
"173 200 CURVE SMOOTH",
"242 200 OFFCURVE",
"299 246 OFFCURVE",
"299 315 CURVE SMOOTH",
"299 335 OFFCURVE",
"292 377 OFFCURVE",
"281 377 CURVE SMOOTH",
"278 377 OFFCURVE",
"275 375 OFFCURVE",
"275 371 CURVE SMOOTH",
"275 369 LINE",
"278 358 OFFCURVE",
"284 335 OFFCURVE",
"284 321 CURVE SMOOTH",
"284 260 OFFCURVE",
"241 215 OFFCURVE",
"180 215 CURVE SMOOTH",
"93 215 OFFCURVE",
"51 280 OFFCURVE",
"51 373 CURVE SMOOTH",
"51 494 OFFCURVE",
"143 588 OFFCURVE",
"264 588 CURVE SMOOTH",
"316 588 OFFCURVE",
"360 563 OFFCURVE",
"397 513 CURVE SMOOTH",
"447 446 OFFCURVE",
"479 286 OFFCURVE",
"479 158 CURVE SMOOTH",
"479 68 OFFCURVE",
"458 -18 OFFCURVE",
"414 -36 CURVE",
"414 -44 OFFCURVE",
"421 -48 OFFCURVE",
"434 -48 CURVE SMOOTH"
);
}
);
userData = {
assembly = "NPUSHB[ ]	/* 35 values pushed */\0121 77 77 64 78 75 72 64 42 7 0 75 64 52 46 40 37 30 17 5 2 60 5 21 27 7 56 34 7 49 56 15 1 52 70 \012SROUND[ ]	/* SuperRound */\012MDAP[1]	/* MoveDirectAbsPt */\012SHZ[1]	/* ShiftZoneByLastPoint */\012RTG[ ]	/* RoundToGrid */\012SVTCA[0]	/* SetFreedomAndProjectionVectorToAxis */\012MDAP[1]	/* MoveDirectAbsPt */\012MDAP[1]	/* MoveDirectAbsPt */\012MDAP[1]	/* MoveDirectAbsPt */\012MIRP[11101]	/* MoveIndirectRelPt */\012SRP0[ ]	/* SetRefPoint0 */\012MIRP[11101]	/* MoveIndirectRelPt */\012SVTCA[1]	/* SetFreedomAndProjectionVectorToAxis */\012MDAP[1]	/* MoveDirectAbsPt */\012MIRP[11101]	/* MoveIndirectRelPt */\012MDAP[0]	/* MoveDirectAbsPt */\012MDAP[0]	/* MoveDirectAbsPt */\012MDAP[0]	/* MoveDirectAbsPt */\012MDAP[0]	/* MoveDirectAbsPt */\012MDAP[0]	/* MoveDirectAbsPt */\012MDAP[0]	/* MoveDirectAbsPt */\012MDAP[0]	/* MoveDirectAbsPt */\012MDAP[0]	/* MoveDirectAbsPt */\012MDAP[0]	/* MoveDirectAbsPt */\012MDAP[0]	/* MoveDirectAbsPt */\012SVTCA[0]	/* SetFreedomAndProjectionVectorToAxis */\012MDAP[0]	/* MoveDirectAbsPt */\012MDAP[0]	/* MoveDirectAbsPt */\012MDAP[0]	/* MoveDirectAbsPt */\012MDAP[0]	/* MoveDirectAbsPt */\012MDAP[0]	/* MoveDirectAbsPt */\012IUP[1]	/* InterpolateUntPts */\012IUP[0]	/* InterpolateUntPts */\012SVTCA[1]	/* SetFreedomAndProjectionVectorToAxis */\012MD[0]	/* MeasureDistance */\012ROUND[00]	/* Round */\012PUSHW[ ]	/* 2 values pushed */\01252 77 \012MD[0]	/* MeasureDistance */\012ROUND[00]	/* Round */\012SUB[ ]	/* Subtract */\012PUSHB[ ]	/* 1 value pushed */\01264 \012GT[ ]	/* GreaterThan */\012IF[ ]	/* If */\012SHPIX[ ]	/* ShiftZoneByPixel */\012SRP1[ ]	/* SetRefPoint1 */\012SHZ[1]	/* ShiftZoneByLastPoint */\012PUSHW[ ]	/* 2 values pushed */\01277 -64 \012SHPIX[ ]	/* ShiftZoneByPixel */\012EIF[ ]	/* EndIf */";
};
width = 777;
}
);
note = V;
unicode = 0056;
},
{
glyphname = W;
lastChange = "2022-03-02 21:03:53 +0000";
layers = (
{
layerId = "423D2297-FAE2-4393-80D6-0A1E9777D337";
paths = (
{
closed = 1;
nodes = (
"363 -60 OFFCURVE",
"410 -34 OFFCURVE",
"458 23 CURVE",
"574 69 OFFCURVE",
"605 160 OFFCURVE",
"646 296 CURVE SMOOTH",
"689 444 OFFCURVE",
"735 519 OFFCURVE",
"772 519 CURVE SMOOTH",
"775 519 OFFCURVE",
"779 518 OFFCURVE",
"783 517 CURVE",
"753 482 OFFCURVE",
"748 445 OFFCURVE",
"748 391 CURVE SMOOTH",
"748 367 OFFCURVE",
"749 338 OFFCURVE",
"749 305 CURVE SMOOTH",
"749 188 OFFCURVE",
"724 86 OFFCURVE",
"673 -1 CURVE SMOOTH",
"664 -17 OFFCURVE",
"659 -28 OFFCURVE",
"659 -34 CURVE SMOOTH",
"659 -40 OFFCURVE",
"662 -43 OFFCURVE",
"669 -43 CURVE SMOOTH",
"674 -43 OFFCURVE",
"679 -41 OFFCURVE",
"683 -40 CURVE SMOOTH",
"778 -10 OFFCURVE",
"842 78 OFFCURVE",
"895 248 CURVE SMOOTH",
"930 358 OFFCURVE",
"969 462 OFFCURVE",
"1014 561 CURVE SMOOTH",
"1063 671 OFFCURVE",
"1106 777 OFFCURVE",
"1188 777 CURVE SMOOTH",
"1228 777 OFFCURVE",
"1241 756 OFFCURVE",
"1245 737 CURVE SMOOTH",
"1246 733 OFFCURVE",
"1248 729 OFFCURVE",
"1252 729 CURVE SMOOTH",
"1255 729 OFFCURVE",
"1257 731 OFFCURVE",
"1257 736 CURVE SMOOTH",
"1257 768 OFFCURVE",
"1229 790 OFFCURVE",
"1189 790 CURVE SMOOTH",
"1038 790 OFFCURVE",
"941 499 OFFCURVE",
"871 253 CURVE SMOOTH",
"827 97 OFFCURVE",
"760 -1 OFFCURVE",
"685 -24 CURVE",
"764 73 OFFCURVE",
"796 165 OFFCURVE",
"796 286 CURVE SMOOTH",
"796 314 OFFCURVE",
"785 444 OFFCURVE",
"785 454 CURVE SMOOTH",
"785 477 OFFCURVE",
"791 494 OFFCURVE",
"802 503 CURVE",
"809 504 OFFCURVE",
"813 507 OFFCURVE",
"813 515 CURVE",
"803 528 OFFCURVE",
"783 532 OFFCURVE",
"771 532 CURVE SMOOTH",
"743 532 OFFCURVE",
"716 510 OFFCURVE",
"689 467 CURVE SMOOTH",
"612 338 OFFCURVE",
"618 116 OFFCURVE",
"471 47 CURVE",
"527 123 OFFCURVE",
"549 208 OFFCURVE",
"549 311 CURVE SMOOTH",
"549 500 OFFCURVE",
"451 646 OFFCURVE",
"277 646 CURVE SMOOTH",
"130 646 OFFCURVE",
"15 532 OFFCURVE",
"15 384 CURVE SMOOTH",
"15 256 OFFCURVE",
"107 154 OFFCURVE",
"235 154 CURVE SMOOTH",
"362 154 OFFCURVE",
"431 256 OFFCURVE",
"431 347 CURVE SMOOTH",
"431 421 OFFCURVE",
"385 489 OFFCURVE",
"285 489 CURVE SMOOTH",
"199 489 OFFCURVE",
"152 427 OFFCURVE",
"152 373 CURVE SMOOTH",
"152 328 OFFCURVE",
"182 288 OFFCURVE",
"248 288 CURVE SMOOTH",
"260 288 OFFCURVE",
"274 292 OFFCURVE",
"280 298 CURVE",
"280 301 OFFCURVE",
"279 304 OFFCURVE",
"275 304 CURVE SMOOTH",
"272 304 OFFCURVE",
"258 299 OFFCURVE",
"248 299 CURVE SMOOTH",
"194 299 OFFCURVE",
"169 334 OFFCURVE",
"169 372 CURVE SMOOTH",
"169 419 OFFCURVE",
"207 472 OFFCURVE",
"275 472 CURVE SMOOTH",
"360 472 OFFCURVE",
"399 410 OFFCURVE",
"399 342 CURVE SMOOTH",
"399 259 OFFCURVE",
"341 167 OFFCURVE",
"235 167 CURVE SMOOTH",
"115 167 OFFCURVE",
"52 267 OFFCURVE",
"52 393 CURVE SMOOTH",
"52 517 OFFCURVE",
"151 628 OFFCURVE",
"275 628 CURVE SMOOTH",
"437 628 OFFCURVE",
"498 461 OFFCURVE",
"498 274 CURVE SMOOTH",
"498 174 OFFCURVE",
"476 94 OFFCURVE",
"433 34 CURVE",
"400 25 OFFCURVE",
"345 22 OFFCURVE",
"308 9 CURVE SMOOTH",
"284 1 OFFCURVE",
"273 -15 OFFCURVE",
"273 -29 CURVE SMOOTH",
"273 -45 OFFCURVE",
"288 -60 OFFCURVE",
"315 -60 CURVE SMOOTH"
);
},
{
closed = 1;
nodes = (
"312 -42 OFFCURVE",
"303 -34 OFFCURVE",
"303 -25 CURVE SMOOTH",
"303 -17 OFFCURVE",
"310 -8 OFFCURVE",
"322 -4 CURVE SMOOTH",
"348 5 OFFCURVE",
"392 9 OFFCURVE",
"424 16 CURVE",
"391 -18 OFFCURVE",
"354 -42 OFFCURVE",
"329 -42 CURVE SMOOTH"
);
}
);
userData = {
assembly = "NPUSHB[ ]	/* 69 values pushed */\0121 148 148 64 149 118 137 135 134 127 123 122 120 94 93 83 69 63 56 52 49 44 38 31 11 9 8 6 0 146 143 139 123 122 118 108 104 100 96 94 93 83 81 72 66 59 54 47 41 34 27 9 8 0 4 5 21 96 7 91 114 19 108 1 75 3 1 72 70 \012SROUND[ ]	/* SuperRound */\012MDAP[1]	/* MoveDirectAbsPt */\012SHZ[1]	/* ShiftZoneByLastPoint */\012RTG[ ]	/* RoundToGrid */\012SVTCA[0]	/* SetFreedomAndProjectionVectorToAxis */\012MIAP[1]	/* MoveIndirectAbsPt */\012MIAP[1]	/* MoveIndirectAbsPt */\012MDAP[1]	/* MoveDirectAbsPt */\012MDAP[1]	/* MoveDirectAbsPt */\012MDAP[1]	/* MoveDirectAbsPt */\012MIRP[11101]	/* MoveIndirectRelPt */\012SVTCA[1]	/* SetFreedomAndProjectionVectorToAxis */\012MDAP[1]	/* MoveDirectAbsPt */\012MIRP[11101]	/* MoveIndirectRelPt */\012MDAP[0]	/* MoveDirectAbsPt */\012MDAP[0]	/* MoveDirectAbsPt */\012MDAP[0]	/* MoveDirectAbsPt */\012MDAP[0]	/* MoveDirectAbsPt */\012MDAP[0]	/* MoveDirectAbsPt */\012MDAP[0]	/* MoveDirectAbsPt */\012MDAP[0]	/* MoveDirectAbsPt */\012MDAP[0]	/* MoveDirectAbsPt */\012MDAP[0]	/* MoveDirectAbsPt */\012MDAP[0]	/* MoveDirectAbsPt */\012MDAP[0]	/* MoveDirectAbsPt */\012MDAP[0]	/* MoveDirectAbsPt */\012MDAP[0]	/* MoveDirectAbsPt */\012MDAP[0]	/* MoveDirectAbsPt */\012MDAP[0]	/* MoveDirectAbsPt */\012MDAP[0]	/* MoveDirectAbsPt */\012MDAP[0]	/* MoveDirectAbsPt */\012MDAP[0]	/* MoveDirectAbsPt */\012MDAP[0]	/* MoveDirectAbsPt */\012MDAP[0]	/* MoveDirectAbsPt */\012MDAP[0]	/* MoveDirectAbsPt */\012MDAP[0]	/* MoveDirectAbsPt */\012MDAP[0]	/* MoveDirectAbsPt */\012MDAP[0]	/* MoveDirectAbsPt */\012MDAP[0]	/* MoveDirectAbsPt */\012SVTCA[0]	/* SetFreedomAndProjectionVectorToAxis */\012MDAP[0]	/* MoveDirectAbsPt */\012MDAP[0]	/* MoveDirectAbsPt */\012MDAP[0]	/* MoveDirectAbsPt */\012MDAP[0]	/* MoveDirectAbsPt */\012MDAP[0]	/* MoveDirectAbsPt */\012MDAP[0]	/* MoveDirectAbsPt */\012MDAP[0]	/* MoveDirectAbsPt */\012MDAP[0]	/* MoveDirectAbsPt */\012MDAP[0]	/* MoveDirectAbsPt */\012MDAP[0]	/* MoveDirectAbsPt */\012MDAP[0]	/* MoveDirectAbsPt */\012MDAP[0]	/* MoveDirectAbsPt */\012MDAP[0]	/* MoveDirectAbsPt */\012MDAP[0]	/* MoveDirectAbsPt */\012MDAP[0]	/* MoveDirectAbsPt */\012MDAP[0]	/* MoveDirectAbsPt */\012MDAP[0]	/* MoveDirectAbsPt */\012MDAP[0]	/* MoveDirectAbsPt */\012MDAP[0]	/* MoveDirectAbsPt */\012MDAP[0]	/* MoveDirectAbsPt */\012MDAP[0]	/* MoveDirectAbsPt */\012MDAP[0]	/* MoveDirectAbsPt */\012MDAP[0]	/* MoveDirectAbsPt */\012IUP[1]	/* InterpolateUntPts */\012IUP[0]	/* InterpolateUntPts */\012SVTCA[1]	/* SetFreedomAndProjectionVectorToAxis */\012MD[0]	/* MeasureDistance */\012ROUND[00]	/* Round */\012PUSHW[ ]	/* 2 values pushed */\01272 148 \012MD[0]	/* MeasureDistance */\012ROUND[00]	/* Round */\012SUB[ ]	/* Subtract */\012PUSHB[ ]	/* 1 value pushed */\01264 \012GT[ ]	/* GreaterThan */\012IF[ ]	/* If */\012SHPIX[ ]	/* ShiftZoneByPixel */\012SRP1[ ]	/* SetRefPoint1 */\012SHZ[1]	/* ShiftZoneByLastPoint */\012PUSHW[ ]	/* 2 values pushed */\012148 -64 \012SHPIX[ ]	/* ShiftZoneByPixel */\012EIF[ ]	/* EndIf */";
};
width = 973;
}
);
note = W;
unicode = 0057;
},
{
glyphname = X;
lastChange = "2022-03-02 21:03:53 +0000";
layers = (
{
layerId = "423D2297-FAE2-4393-80D6-0A1E9777D337";
paths = (
{
closed = 1;
nodes = (
"279 -68 OFFCURVE",
"362 74 OFFCURVE",
"482 261 CURVE",
"530 86 OFFCURVE",
"560 -43 OFFCURVE",
"666 -43 CURVE SMOOTH",
"704 -43 OFFCURVE",
"752 -11 OFFCURVE",
"752 26 CURVE SMOOTH",
"752 33 OFFCURVE",
"749 37 OFFCURVE",
"745 37 CURVE SMOOTH",
"742 37 OFFCURVE",
"740 35 OFFCURVE",
"740 30 CURVE SMOOTH",
"737 -1 OFFCURVE",
"714 -26 OFFCURVE",
"685 -26 CURVE SMOOTH",
"594 -26 OFFCURVE",
"553 169 OFFCURVE",
"516 319 CURVE",
"571 415 OFFCURVE",
"605 473 OFFCURVE",
"672 539 CURVE SMOOTH",
"702 568 OFFCURVE",
"733 582 OFFCURVE",
"768 582 CURVE SMOOTH",
"803 582 OFFCURVE",
"822 565 OFFCURVE",
"822 531 CURVE SMOOTH",
"822 510 OFFCURVE",
"819 499 OFFCURVE",
"812 495 CURVE SMOOTH",
"806 492 OFFCURVE",
"805 489 OFFCURVE",
"805 486 CURVE SMOOTH",
"805 483 OFFCURVE",
"807 482 OFFCURVE",
"811 482 CURVE SMOOTH",
"830 482 OFFCURVE",
"842 504 OFFCURVE",
"842 549 CURVE SMOOTH",
"842 594 OFFCURVE",
"816 617 OFFCURVE",
"767 617 CURVE SMOOTH",
"695 617 OFFCURVE",
"608 526 OFFCURVE",
"507 345 CURVE",
"452 518 OFFCURVE",
"372 605 OFFCURVE",
"266 605 CURVE SMOOTH",
"110 605 OFFCURVE",
"18 466 OFFCURVE",
"18 351 CURVE SMOOTH",
"18 270 OFFCURVE",
"64 200 OFFCURVE",
"167 200 CURVE SMOOTH",
"236 200 OFFCURVE",
"303 249 OFFCURVE",
"303 315 CURVE SMOOTH",
"303 334 OFFCURVE",
"301 365 OFFCURVE",
"292 365 CURVE SMOOTH",
"289 365 OFFCURVE",
"287 363 OFFCURVE",
"286 359 CURVE SMOOTH",
"286 355 OFFCURVE",
"288 339 OFFCURVE",
"288 321 CURVE SMOOTH",
"288 256 OFFCURVE",
"236 215 OFFCURVE",
"175 215 CURVE SMOOTH",
"90 215 OFFCURVE",
"52 278 OFFCURVE",
"52 353 CURVE SMOOTH",
"52 460 OFFCURVE",
"131 592 OFFCURVE",
"262 592 CURVE SMOOTH",
"381 592 OFFCURVE",
"429 451 OFFCURVE",
"474 286 CURVE",
"410 169 OFFCURVE",
"338 48 OFFCURVE",
"257 -9 CURVE SMOOTH",
"232 -28 OFFCURVE",
"185 -53 OFFCURVE",
"150 -53 CURVE SMOOTH",
"122 -53 OFFCURVE",
"84 -36 OFFCURVE",
"84 -5 CURVE SMOOTH",
"84 4 OFFCURVE",
"83 8 OFFCURVE",
"80 8 CURVE SMOOTH",
"74 8 OFFCURVE",
"71 1 OFFCURVE",
"71 -13 CURVE SMOOTH",
"71 -47 OFFCURVE",
"112 -68 OFFCURVE",
"149 -68 CURVE SMOOTH"
);
}
);
userData = {
assembly = "NPUSHB[ ]	/* 44 values pushed */\0121 103 103 64 104 101 95 82 66 62 61 54 48 36 30 25 20 7 0 92 86 80 77 70 62 46 13 2 5 6 101 23 6 27 74 7 89 99 42 97 2 1 92 70 \012SROUND[ ]	/* SuperRound */\012MDAP[1]	/* MoveDirectAbsPt */\012SHZ[1]	/* ShiftZoneByLastPoint */\012RTG[ ]	/* RoundToGrid */\012SVTCA[0]	/* SetFreedomAndProjectionVectorToAxis */\012MIAP[1]	/* MoveIndirectAbsPt */\012MDAP[1]	/* MoveDirectAbsPt */\012MDAP[1]	/* MoveDirectAbsPt */\012MDAP[1]	/* MoveDirectAbsPt */\012MIRP[11101]	/* MoveIndirectRelPt */\012SVTCA[1]	/* SetFreedomAndProjectionVectorToAxis */\012MDAP[1]	/* MoveDirectAbsPt */\012MIRP[11101]	/* MoveIndirectRelPt */\012MDAP[1]	/* MoveDirectAbsPt */\012MIRP[11101]	/* MoveIndirectRelPt */\012MDAP[0]	/* MoveDirectAbsPt */\012MDAP[0]	/* MoveDirectAbsPt */\012MDAP[0]	/* MoveDirectAbsPt */\012MDAP[0]	/* MoveDirectAbsPt */\012MDAP[0]	/* MoveDirectAbsPt */\012MDAP[0]	/* MoveDirectAbsPt */\012MDAP[0]	/* MoveDirectAbsPt */\012MDAP[0]	/* MoveDirectAbsPt */\012MDAP[0]	/* MoveDirectAbsPt */\012SVTCA[0]	/* SetFreedomAndProjectionVectorToAxis */\012MDAP[0]	/* MoveDirectAbsPt */\012MDAP[0]	/* MoveDirectAbsPt */\012MDAP[0]	/* MoveDirectAbsPt */\012MDAP[0]	/* MoveDirectAbsPt */\012MDAP[0]	/* MoveDirectAbsPt */\012MDAP[0]	/* MoveDirectAbsPt */\012MDAP[0]	/* MoveDirectAbsPt */\012MDAP[0]	/* MoveDirectAbsPt */\012MDAP[0]	/* MoveDirectAbsPt */\012MDAP[0]	/* MoveDirectAbsPt */\012MDAP[0]	/* MoveDirectAbsPt */\012MDAP[0]	/* MoveDirectAbsPt */\012MDAP[0]	/* MoveDirectAbsPt */\012IUP[1]	/* InterpolateUntPts */\012IUP[0]	/* InterpolateUntPts */\012SVTCA[1]	/* SetFreedomAndProjectionVectorToAxis */\012MD[0]	/* MeasureDistance */\012ROUND[00]	/* Round */\012PUSHW[ ]	/* 2 values pushed */\01292 103 \012MD[0]	/* MeasureDistance */\012ROUND[00]	/* Round */\012SUB[ ]	/* Subtract */\012PUSHB[ ]	/* 1 value pushed */\01264 \012GT[ ]	/* GreaterThan */\012IF[ ]	/* If */\012SHPIX[ ]	/* ShiftZoneByPixel */\012SRP1[ ]	/* SetRefPoint1 */\012SHZ[1]	/* ShiftZoneByLastPoint */\012PUSHW[ ]	/* 2 values pushed */\012103 -64 \012SHPIX[ ]	/* ShiftZoneByPixel */\012EIF[ ]	/* EndIf */";
};
width = 717;
}
);
note = X;
unicode = 0058;
},
{
glyphname = Y;
lastChange = "2022-03-02 21:03:53 +0000";
layers = (
{
layerId = "423D2297-FAE2-4393-80D6-0A1E9777D337";
paths = (
{
closed = 1;
nodes = (
"923 -361 OFFCURVE",
"1011 -321 OFFCURVE",
"1011 -237 CURVE SMOOTH",
"1011 -220 OFFCURVE",
"1009 -205 OFFCURVE",
"1003 -190 CURVE SMOOTH",
"1001 -185 OFFCURVE",
"997 -184 OFFCURVE",
"994 -184 CURVE SMOOTH",
"991 -184 OFFCURVE",
"988 -186 OFFCURVE",
"988 -190 CURVE SMOOTH",
"988 -192 OFFCURVE",
"988 -193 OFFCURVE",
"989 -195 CURVE SMOOTH",
"993 -207 OFFCURVE",
"995 -239 OFFCURVE",
"995 -244 CURVE SMOOTH",
"995 -308 OFFCURVE",
"933 -342 OFFCURVE",
"859 -342 CURVE SMOOTH",
"800 -342 OFFCURVE",
"706 -303 OFFCURVE",
"607 -254 CURVE",
"632 -231 OFFCURVE",
"740 -158 OFFCURVE",
"740 21 CURVE SMOOTH",
"740 113 OFFCURVE",
"718 219 OFFCURVE",
"718 301 CURVE SMOOTH",
"718 330 OFFCURVE",
"720 356 OFFCURVE",
"728 377 CURVE SMOOTH",
"742 419 OFFCURVE",
"773 449 OFFCURVE",
"811 449 CURVE SMOOTH",
"826 449 OFFCURVE",
"833 449 OFFCURVE",
"833 448 CURVE",
"832 448 LINE SMOOTH",
"841 449 OFFCURVE",
"845 454 OFFCURVE",
"845 460 CURVE SMOOTH",
"845 471 OFFCURVE",
"835 477 OFFCURVE",
"815 477 CURVE SMOOTH",
"793 477 OFFCURVE",
"774 472 OFFCURVE",
"757 461 CURVE SMOOTH",
"733 444 OFFCURVE",
"710 417 OFFCURVE",
"682 296 CURVE SMOOTH",
"654 176 OFFCURVE",
"607 4 OFFCURVE",
"482 4 CURVE SMOOTH",
"446 4 OFFCURVE",
"429 37 OFFCURVE",
"429 93 CURVE SMOOTH",
"429 177 OFFCURVE",
"515 262 OFFCURVE",
"515 426 CURVE SMOOTH",
"515 533 OFFCURVE",
"417 639 OFFCURVE",
"298 639 CURVE SMOOTH",
"142 639 OFFCURVE",
"30 525 OFFCURVE",
"30 387 CURVE SMOOTH",
"30 276 OFFCURVE",
"114 187 OFFCURVE",
"229 187 CURVE SMOOTH",
"324 187 OFFCURVE",
"410 260 OFFCURVE",
"410 350 CURVE SMOOTH",
"410 430 OFFCURVE",
"357 484 OFFCURVE",
"277 484 CURVE SMOOTH",
"198 484 OFFCURVE",
"155 428 OFFCURVE",
"155 379 CURVE SMOOTH",
"155 341 OFFCURVE",
"182 306 OFFCURVE",
"239 306 CURVE SMOOTH",
"257 306 OFFCURVE",
"270 310 OFFCURVE",
"270 324 CURVE",
"263 320 OFFCURVE",
"252 319 OFFCURVE",
"246 319 CURVE SMOOTH",
"199 319 OFFCURVE",
"176 351 OFFCURVE",
"176 385 CURVE SMOOTH",
"176 425 OFFCURVE",
"206 467 OFFCURVE",
"266 467 CURVE SMOOTH",
"331 467 OFFCURVE",
"380 420 OFFCURVE",
"380 356 CURVE SMOOTH",
"380 276 OFFCURVE",
"316 198 OFFCURVE",
"232 198 CURVE SMOOTH",
"179 198 OFFCURVE",
"136 223 OFFCURVE",
"105 262 CURVE SMOOTH",
"77 298 OFFCURVE",
"62 341 OFFCURVE",
"62 395 CURVE SMOOTH",
"62 508 OFFCURVE",
"180 626 OFFCURVE",
"298 626 CURVE SMOOTH",
"403 626 OFFCURVE",
"461 553 OFFCURVE",
"461 437 CURVE SMOOTH",
"461 311 OFFCURVE",
"394 190 OFFCURVE",
"394 96 CURVE SMOOTH",
"394 25 OFFCURVE",
"422 -11 OFFCURVE",
"491 -11 CURVE SMOOTH",
"615 -11 OFFCURVE",
"665 150 OFFCURVE",
"704 324 CURVE",
"698 291 OFFCURVE",
"687 226 OFFCURVE",
"686 185 CURVE SMOOTH",
"684 32 LINE SMOOTH",
"682 -84 OFFCURVE",
"660 -146 OFFCURVE",
"595 -246 CURVE",
"580 -237 OFFCURVE",
"506 -195 OFFCURVE",
"475 -177 CURVE SMOOTH",
"359 -112 OFFCURVE",
"282 -93 OFFCURVE",
"244 -93 CURVE SMOOTH",
"183 -93 OFFCURVE",
"144 -124 OFFCURVE",
"144 -177 CURVE SMOOTH",
"144 -270 OFFCURVE",
"214 -355 OFFCURVE",
"366 -355 CURVE SMOOTH",
"442 -355 OFFCURVE",
"528 -329 OFFCURVE",
"579 -283 CURVE",
"673 -328 OFFCURVE",
"739 -361 OFFCURVE",
"861 -361 CURVE SMOOTH"
);
},
{
closed = 1;
nodes = (
"243 -333 OFFCURVE",
"159 -250 OFFCURVE",
"159 -177 CURVE SMOOTH",
"159 -147 OFFCURVE",
"185 -131 OFFCURVE",
"229 -131 CURVE SMOOTH",
"282 -131 OFFCURVE",
"351 -163 OFFCURVE",
"430 -205 CURVE SMOOTH",
"469 -225 OFFCURVE",
"545 -263 OFFCURVE",
"564 -273 CURVE",
"513 -314 OFFCURVE",
"438 -333 OFFCURVE",
"368 -333 CURVE SMOOTH"
);
}
);
userData = {
assembly = "NPUSHB[ ]	/* 61 values pushed */\0121 163 163 64 164 155 151 142 128 126 122 112 96 90 83 70 64 57 47 41 33 27 19 17 15 13 5 1 0 155 149 146 140 137 134 124 110 106 99 93 86 81 73 67 60 53 49 41 25 7 1 0 102 159 79 2 76 2 1 99 70 \012SROUND[ ]	/* SuperRound */\012MDAP[1]	/* MoveDirectAbsPt */\012SHZ[1]	/* ShiftZoneByLastPoint */\012RTG[ ]	/* RoundToGrid */\012SVTCA[0]	/* SetFreedomAndProjectionVectorToAxis */\012MIAP[1]	/* MoveIndirectAbsPt */\012MIAP[1]	/* MoveIndirectAbsPt */\012MDAP[1]	/* MoveDirectAbsPt */\012MDAP[1]	/* MoveDirectAbsPt */\012SVTCA[1]	/* SetFreedomAndProjectionVectorToAxis */\012MDAP[0]	/* MoveDirectAbsPt */\012MDAP[0]	/* MoveDirectAbsPt */\012MDAP[0]	/* MoveDirectAbsPt */\012MDAP[0]	/* MoveDirectAbsPt */\012MDAP[0]	/* MoveDirectAbsPt */\012MDAP[0]	/* MoveDirectAbsPt */\012MDAP[0]	/* MoveDirectAbsPt */\012MDAP[0]	/* MoveDirectAbsPt */\012MDAP[0]	/* MoveDirectAbsPt */\012MDAP[0]	/* MoveDirectAbsPt */\012MDAP[0]	/* MoveDirectAbsPt */\012MDAP[0]	/* MoveDirectAbsPt */\012MDAP[0]	/* MoveDirectAbsPt */\012MDAP[0]	/* MoveDirectAbsPt */\012MDAP[0]	/* MoveDirectAbsPt */\012MDAP[0]	/* MoveDirectAbsPt */\012MDAP[0]	/* MoveDirectAbsPt */\012MDAP[0]	/* MoveDirectAbsPt */\012MDAP[0]	/* MoveDirectAbsPt */\012MDAP[0]	/* MoveDirectAbsPt */\012MDAP[0]	/* MoveDirectAbsPt */\012MDAP[0]	/* MoveDirectAbsPt */\012MDAP[0]	/* MoveDirectAbsPt */\012SVTCA[0]	/* SetFreedomAndProjectionVectorToAxis */\012MDAP[0]	/* MoveDirectAbsPt */\012MDAP[0]	/* MoveDirectAbsPt */\012MDAP[0]	/* MoveDirectAbsPt */\012MDAP[0]	/* MoveDirectAbsPt */\012MDAP[0]	/* MoveDirectAbsPt */\012MDAP[0]	/* MoveDirectAbsPt */\012MDAP[0]	/* MoveDirectAbsPt */\012MDAP[0]	/* MoveDirectAbsPt */\012MDAP[0]	/* MoveDirectAbsPt */\012MDAP[0]	/* MoveDirectAbsPt */\012MDAP[0]	/* MoveDirectAbsPt */\012MDAP[0]	/* MoveDirectAbsPt */\012MDAP[0]	/* MoveDirectAbsPt */\012MDAP[0]	/* MoveDirectAbsPt */\012MDAP[0]	/* MoveDirectAbsPt */\012MDAP[0]	/* MoveDirectAbsPt */\012MDAP[0]	/* MoveDirectAbsPt */\012MDAP[0]	/* MoveDirectAbsPt */\012MDAP[0]	/* MoveDirectAbsPt */\012MDAP[0]	/* MoveDirectAbsPt */\012MDAP[0]	/* MoveDirectAbsPt */\012MDAP[0]	/* MoveDirectAbsPt */\012MDAP[0]	/* MoveDirectAbsPt */\012IUP[1]	/* InterpolateUntPts */\012IUP[0]	/* InterpolateUntPts */\012SVTCA[1]	/* SetFreedomAndProjectionVectorToAxis */\012MD[0]	/* MeasureDistance */\012ROUND[00]	/* Round */\012PUSHW[ ]	/* 2 values pushed */\01299 163 \012MD[0]	/* MeasureDistance */\012ROUND[00]	/* Round */\012SUB[ ]	/* Subtract */\012PUSHB[ ]	/* 1 value pushed */\01264 \012GT[ ]	/* GreaterThan */\012IF[ ]	/* If */\012SHPIX[ ]	/* ShiftZoneByPixel */\012SRP1[ ]	/* SetRefPoint1 */\012SHZ[1]	/* ShiftZoneByLastPoint */\012PUSHW[ ]	/* 2 values pushed */\012163 -64 \012SHPIX[ ]	/* ShiftZoneByPixel */\012EIF[ ]	/* EndIf */";
};
width = 800;
}
);
note = Y;
unicode = 0059;
},
{
glyphname = Z;
lastChange = "2022-03-02 21:03:53 +0000";
layers = (
{
layerId = "423D2297-FAE2-4393-80D6-0A1E9777D337";
paths = (
{
closed = 1;
nodes = (
"334 -345 OFFCURVE",
"496 -234 OFFCURVE",
"544 -98 CURVE",
"577 -91 OFFCURVE",
"659 -70 OFFCURVE",
"659 -44 CURVE SMOOTH",
"659 -36 OFFCURVE",
"653 -35 OFFCURVE",
"649 -35 CURVE SMOOTH",
"647 -35 LINE",
"647 -42 OFFCURVE",
"642 -47 OFFCURVE",
"641 -48 CURVE SMOOTH",
"626 -64 OFFCURVE",
"578 -78 OFFCURVE",
"549 -83 CURVE",
"557 -56 OFFCURVE",
"561 -28 OFFCURVE",
"561 2 CURVE SMOOTH",
"561 77 OFFCURVE",
"529 133 OFFCURVE",
"481 170 CURVE",
"527 238 OFFCURVE",
"548 307 OFFCURVE",
"548 368 CURVE SMOOTH",
"548 494 OFFCURVE",
"458 589 OFFCURVE",
"303 589 CURVE SMOOTH",
"173 589 OFFCURVE",
"41 498 OFFCURVE",
"41 365 CURVE SMOOTH",
"41 276 OFFCURVE",
"101 211 OFFCURVE",
"190 211 CURVE SMOOTH",
"265 211 OFFCURVE",
"307 258 OFFCURVE",
"312 313 CURVE SMOOTH",
"313 322 OFFCURVE",
"309 324 OFFCURVE",
"306 324 CURVE SMOOTH",
"303 324 OFFCURVE",
"301 323 OFFCURVE",
"300 322 CURVE",
"290 260 OFFCURVE",
"257 225 OFFCURVE",
"193 225 CURVE SMOOTH",
"116 225 OFFCURVE",
"75 281 OFFCURVE",
"75 362 CURVE SMOOTH",
"75 485 OFFCURVE",
"180 570 OFFCURVE",
"306 570 CURVE SMOOTH",
"427 570 OFFCURVE",
"497 476 OFFCURVE",
"497 366 CURVE SMOOTH",
"497 309 OFFCURVE",
"478 247 OFFCURVE",
"438 192 CURVE",
"424 196 OFFCURVE",
"409 198 OFFCURVE",
"393 198 CURVE SMOOTH",
"303 198 OFFCURVE",
"242 143 OFFCURVE",
"242 102 CURVE SMOOTH",
"242 79 OFFCURVE",
"263 60 OFFCURVE",
"310 60 CURVE SMOOTH",
"354 60 OFFCURVE",
"414 94 OFFCURVE",
"457 142 CURVE",
"496 113 OFFCURVE",
"515 65 OFFCURVE",
"515 -2 CURVE SMOOTH",
"515 -33 OFFCURVE",
"510 -63 OFFCURVE",
"499 -94 CURVE",
"309 -120 OFFCURVE",
"73 -152 OFFCURVE",
"73 -264 CURVE SMOOTH",
"73 -321 OFFCURVE",
"128 -345 OFFCURVE",
"190 -345 CURVE SMOOTH"
);
},
{
closed = 1;
nodes = (
"145 -331 OFFCURVE",
"93 -310 OFFCURVE",
"93 -270 CURVE SMOOTH",
"93 -173 OFFCURVE",
"353 -128 OFFCURVE",
"493 -109 CURVE",
"444 -229 OFFCURVE",
"318 -331 OFFCURVE",
"191 -331 CURVE SMOOTH"
);
},
{
closed = 1;
nodes = (
"273 85 OFFCURVE",
"266 92 OFFCURVE",
"266 103 CURVE SMOOTH",
"266 128 OFFCURVE",
"308 172 OFFCURVE",
"361 172 CURVE SMOOTH",
"390 172 OFFCURVE",
"418 168 OFFCURVE",
"421 166 CURVE",
"387 124 OFFCURVE",
"348 85 OFFCURVE",
"290 85 CURVE SMOOTH"
);
}
);
userData = {
assembly = "NPUSHB[ ]	/* 47 values pushed */\0121 111 111 64 112 82 98 94 80 74 57 49 45 35 30 26 25 21 17 104 98 92 86 82 74 72 70 68 60 53 51 39 32 23 15 7 88 8 28 108 7 3 64 3 1 60 70 \012SROUND[ ]	/* SuperRound */\012MDAP[1]	/* MoveDirectAbsPt */\012SHZ[1]	/* ShiftZoneByLastPoint */\012RTG[ ]	/* RoundToGrid */\012SVTCA[0]	/* SetFreedomAndProjectionVectorToAxis */\012MDAP[1]	/* MoveDirectAbsPt */\012MDAP[1]	/* MoveDirectAbsPt */\012SRP0[ ]	/* SetRefPoint0 */\012MIRP[11101]	/* MoveIndirectRelPt */\012MDAP[1]	/* MoveDirectAbsPt */\012MIRP[11101]	/* MoveIndirectRelPt */\012SVTCA[1]	/* SetFreedomAndProjectionVectorToAxis */\012MDAP[0]	/* MoveDirectAbsPt */\012MDAP[0]	/* MoveDirectAbsPt */\012MDAP[0]	/* MoveDirectAbsPt */\012MDAP[0]	/* MoveDirectAbsPt */\012MDAP[0]	/* MoveDirectAbsPt */\012MDAP[0]	/* MoveDirectAbsPt */\012MDAP[0]	/* MoveDirectAbsPt */\012MDAP[0]	/* MoveDirectAbsPt */\012MDAP[0]	/* MoveDirectAbsPt */\012MDAP[0]	/* MoveDirectAbsPt */\012MDAP[0]	/* MoveDirectAbsPt */\012MDAP[0]	/* MoveDirectAbsPt */\012MDAP[0]	/* MoveDirectAbsPt */\012MDAP[0]	/* MoveDirectAbsPt */\012MDAP[0]	/* MoveDirectAbsPt */\012MDAP[0]	/* MoveDirectAbsPt */\012MDAP[0]	/* MoveDirectAbsPt */\012SVTCA[0]	/* SetFreedomAndProjectionVectorToAxis */\012MDAP[0]	/* MoveDirectAbsPt */\012MDAP[0]	/* MoveDirectAbsPt */\012MDAP[0]	/* MoveDirectAbsPt */\012MDAP[0]	/* MoveDirectAbsPt */\012MDAP[0]	/* MoveDirectAbsPt */\012MDAP[0]	/* MoveDirectAbsPt */\012MDAP[0]	/* MoveDirectAbsPt */\012MDAP[0]	/* MoveDirectAbsPt */\012MDAP[0]	/* MoveDirectAbsPt */\012MDAP[0]	/* MoveDirectAbsPt */\012MDAP[0]	/* MoveDirectAbsPt */\012MDAP[0]	/* MoveDirectAbsPt */\012MDAP[0]	/* MoveDirectAbsPt */\012IUP[1]	/* InterpolateUntPts */\012IUP[0]	/* InterpolateUntPts */\012SVTCA[1]	/* SetFreedomAndProjectionVectorToAxis */\012MD[0]	/* MeasureDistance */\012ROUND[00]	/* Round */\012PUSHW[ ]	/* 2 values pushed */\01260 111 \012MD[0]	/* MeasureDistance */\012ROUND[00]	/* Round */\012SUB[ ]	/* Subtract */\012PUSHB[ ]	/* 1 value pushed */\01264 \012GT[ ]	/* GreaterThan */\012IF[ ]	/* If */\012SHPIX[ ]	/* ShiftZoneByPixel */\012SRP1[ ]	/* SetRefPoint1 */\012SHZ[1]	/* ShiftZoneByLastPoint */\012PUSHW[ ]	/* 2 values pushed */\012111 -64 \012SHPIX[ ]	/* ShiftZoneByPixel */\012EIF[ ]	/* EndIf */";
};
width = 580;
}
);
note = Z;
unicode = 005A;
},
{
glyphname = a;
lastChange = "2022-03-02 21:03:53 +0000";
layers = (
{
layerId = "423D2297-FAE2-4393-80D6-0A1E9777D337";
paths = (
{
closed = 1;
nodes = (
"100 -6 OFFCURVE",
"104 -6 OFFCURVE",
"109 -5 CURVE SMOOTH",
"143 2 OFFCURVE",
"169 42 OFFCURVE",
"188 115 CURVE",
"187 61 OFFCURVE",
"200 -4 OFFCURVE",
"249 -4 CURVE SMOOTH",
"317 -4 OFFCURVE",
"341 85 OFFCURVE",
"357 167 CURVE SMOOTH",
"358 175 OFFCURVE",
"356 178 OFFCURVE",
"352 178 CURVE SMOOTH",
"349 178 OFFCURVE",
"346 174 OFFCURVE",
"345 167 CURVE SMOOTH",
"333 105 OFFCURVE",
"301 10 OFFCURVE",
"257 10 CURVE SMOOTH",
"237 10 OFFCURVE",
"231 35 OFFCURVE",
"231 86 CURVE SMOOTH",
"231 118 OFFCURVE",
"233 151 OFFCURVE",
"237 185 CURVE SMOOTH",
"258 363 LINE",
"257 367 OFFCURVE",
"255 369 OFFCURVE",
"253 369 CURVE SMOOTH",
"252 369 OFFCURVE",
"250 368 OFFCURVE",
"249 365 CURVE",
"241 350 OFFCURVE",
"231 343 OFFCURVE",
"218 343 CURVE SMOOTH",
"215 343 OFFCURVE",
"212 343 OFFCURVE",
"209 344 CURVE",
"200 262 LINE",
"195 319 OFFCURVE",
"174 347 OFFCURVE",
"137 347 CURVE SMOOTH",
"59 347 OFFCURVE",
"18 236 OFFCURVE",
"18 136 CURVE SMOOTH",
"18 67 OFFCURVE",
"38 -6 OFFCURVE",
"95 -6 CURVE SMOOTH"
);
},
{
closed = 1;
nodes = (
"75 2 OFFCURVE",
"64 77 OFFCURVE",
"64 132 CURVE SMOOTH",
"64 204 OFFCURVE",
"98 335 OFFCURVE",
"143 335 CURVE SMOOTH",
"178 335 OFFCURVE",
"190 274 OFFCURVE",
"190 219 CURVE SMOOTH",
"190 203 OFFCURVE",
"189 187 OFFCURVE",
"187 173 CURVE SMOOTH",
"176 103 OFFCURVE",
"149 7 OFFCURVE",
"104 7 CURVE"
);
}
);
userData = {
assembly = "NPUSHB[ ]	/* 32 values pushed */\0121 64 64 64 65 0 50 42 36 24 8 56 51 50 46 34 31 16 0 60 7 12 29 2 22 2 12 4 1 1 16 70 \012SROUND[ ]	/* SuperRound */\012MDAP[1]	/* MoveDirectAbsPt */\012SHZ[1]	/* ShiftZoneByLastPoint */\012RTG[ ]	/* RoundToGrid */\012SVTCA[0]	/* SetFreedomAndProjectionVectorToAxis */\012MIAP[1]	/* MoveIndirectAbsPt */\012ALIGNRP[ ]	/* AlignRelativePt */\012MIAP[1]	/* MoveIndirectAbsPt */\012MIAP[1]	/* MoveIndirectAbsPt */\012SRP0[ ]	/* SetRefPoint0 */\012MIRP[11101]	/* MoveIndirectRelPt */\012SVTCA[1]	/* SetFreedomAndProjectionVectorToAxis */\012MDAP[0]	/* MoveDirectAbsPt */\012MDAP[0]	/* MoveDirectAbsPt */\012MDAP[0]	/* MoveDirectAbsPt */\012MDAP[0]	/* MoveDirectAbsPt */\012MDAP[0]	/* MoveDirectAbsPt */\012MDAP[0]	/* MoveDirectAbsPt */\012MDAP[0]	/* MoveDirectAbsPt */\012MDAP[0]	/* MoveDirectAbsPt */\012SVTCA[0]	/* SetFreedomAndProjectionVectorToAxis */\012MDAP[0]	/* MoveDirectAbsPt */\012MDAP[0]	/* MoveDirectAbsPt */\012MDAP[0]	/* MoveDirectAbsPt */\012MDAP[0]	/* MoveDirectAbsPt */\012MDAP[0]	/* MoveDirectAbsPt */\012IUP[1]	/* InterpolateUntPts */\012IUP[0]	/* InterpolateUntPts */\012SVTCA[1]	/* SetFreedomAndProjectionVectorToAxis */\012MD[0]	/* MeasureDistance */\012ROUND[00]	/* Round */\012PUSHW[ ]	/* 2 values pushed */\01216 64 \012MD[0]	/* MeasureDistance */\012ROUND[00]	/* Round */\012SUB[ ]	/* Subtract */\012PUSHB[ ]	/* 1 value pushed */\01264 \012GT[ ]	/* GreaterThan */\012IF[ ]	/* If */\012SHPIX[ ]	/* ShiftZoneByPixel */\012SRP1[ ]	/* SetRefPoint1 */\012SHZ[1]	/* ShiftZoneByLastPoint */\012PUSHW[ ]	/* 2 values pushed */\01264 -64 \012SHPIX[ ]	/* ShiftZoneByPixel */\012EIF[ ]	/* EndIf */";
};
width = 327;
}
);
note = a;
unicode = 0061;
},
{
glyphname = ae;
lastChange = "2022-03-02 21:03:53 +0000";
layers = (
{
background = {
components = (
{
name = e;
transform = "{1, 0, 0, 1, 170, 0}";
}
);
};
layerId = "423D2297-FAE2-4393-80D6-0A1E9777D337";
paths = (
{
closed = 1;
nodes = (
"100 -6 OFFCURVE",
"104 -6 OFFCURVE",
"109 -5 CURVE SMOOTH",
"139 1 OFFCURVE",
"163 33 OFFCURVE",
"187 111 CURVE",
"193 48 OFFCURVE",
"227 -6 OFFCURVE",
"288 -6 CURVE SMOOTH",
"347 -6 OFFCURVE",
"391 51 OFFCURVE",
"417 167 CURVE SMOOTH",
"418 174 OFFCURVE",
"416 177 OFFCURVE",
"412 177 CURVE SMOOTH",
"409 177 OFFCURVE",
"406 172 OFFCURVE",
"405 167 CURVE SMOOTH",
"383 65 OFFCURVE",
"339 8 OFFCURVE",
"291 8 CURVE SMOOTH",
"251 8 OFFCURVE",
"230 50 OFFCURVE",
"230 138 CURVE",
"272 138 OFFCURVE",
"306 163 OFFCURVE",
"333 213 CURVE SMOOTH",
"346 236 OFFCURVE",
"352 261 OFFCURVE",
"352 288 CURVE SMOOTH",
"352 311 OFFCURVE",
"347 326 OFFCURVE",
"336 335 CURVE SMOOTH",
"327 342 OFFCURVE",
"316 345 OFFCURVE",
"305 345 CURVE SMOOTH",
"287 345 OFFCURVE",
"269 337 OFFCURVE",
"253 322 CURVE",
"258 363 LINE",
"257 367 OFFCURVE",
"255 369 OFFCURVE",
"253 369 CURVE SMOOTH",
"252 369 OFFCURVE",
"250 368 OFFCURVE",
"249 365 CURVE SMOOTH",
"242 350 OFFCURVE",
"231 343 OFFCURVE",
"218 343 CURVE SMOOTH",
"215 343 OFFCURVE",
"212 343 OFFCURVE",
"209 344 CURVE",
"200 262 LINE",
"195 319 OFFCURVE",
"174 347 OFFCURVE",
"137 347 CURVE SMOOTH",
"59 347 OFFCURVE",
"18 236 OFFCURVE",
"18 136 CURVE SMOOTH",
"18 67 OFFCURVE",
"38 -6 OFFCURVE",
"95 -6 CURVE SMOOTH"
);
},
{
closed = 1;
nodes = (
"75 2 OFFCURVE",
"64 77 OFFCURVE",
"64 132 CURVE SMOOTH",
"64 204 OFFCURVE",
"98 335 OFFCURVE",
"143 335 CURVE SMOOTH",
"178 335 OFFCURVE",
"190 274 OFFCURVE",
"190 219 CURVE SMOOTH",
"190 203 OFFCURVE",
"189 187 OFFCURVE",
"187 173 CURVE SMOOTH",
"176 103 OFFCURVE",
"149 7 OFFCURVE",
"104 7 CURVE"
);
},
{
closed = 1;
nodes = (
"230 221 OFFCURVE",
"277 332 OFFCURVE",
"316 332 CURVE SMOOTH",
"321 332 OFFCURVE",
"326 330 OFFCURVE",
"331 327 CURVE SMOOTH",
"336 324 OFFCURVE",
"338 313 OFFCURVE",
"338 295 CURVE SMOOTH",
"338 264 OFFCURVE",
"330 237 OFFCURVE",
"315 213 CURVE",
"316 214 LINE",
"289 171 OFFCURVE",
"260 150 OFFCURVE",
"231 150 CURVE"
);
}
);
width = 387;
}
);
note = ae;
unicode = 00E6;
},
{
glyphname = b;
lastChange = "2022-03-02 21:03:53 +0000";
layers = (
{
layerId = "423D2297-FAE2-4393-80D6-0A1E9777D337";
paths = (
{
closed = 1;
nodes = (
"162 -8 OFFCURVE",
"187 37 OFFCURVE",
"199 140 CURVE",
"211 112 OFFCURVE",
"232 100 OFFCURVE",
"254 100 CURVE SMOOTH",
"284 100 OFFCURVE",
"314 124 OFFCURVE",
"320 167 CURVE SMOOTH",
"321 171 OFFCURVE",
"319 173 OFFCURVE",
"315 173 CURVE SMOOTH",
"311 173 OFFCURVE",
"309 171 OFFCURVE",
"308 167 CURVE SMOOTH",
"303 132 OFFCURVE",
"280 113 OFFCURVE",
"256 113 CURVE SMOOTH",
"235 113 OFFCURVE",
"214 128 OFFCURVE",
"204 159 CURVE",
"206 186 LINE SMOOTH",
"208 206 OFFCURVE",
"209 223 OFFCURVE",
"209 236 CURVE SMOOTH",
"209 281 OFFCURVE",
"200 301 OFFCURVE",
"182 298 CURVE",
"171 293 OFFCURVE",
"165 278 OFFCURVE",
"165 253 CURVE SMOOTH",
"165 212 OFFCURVE",
"172 178 OFFCURVE",
"189 150 CURVE",
"170 49 OFFCURVE",
"145 5 OFFCURVE",
"112 5 CURVE SMOOTH",
"79 5 OFFCURVE",
"63 44 OFFCURVE",
"63 123 CURVE SMOOTH",
"63 164 OFFCURVE",
"68 217 OFFCURVE",
"78 280 CURVE",
"160 329 OFFCURVE",
"273 477 OFFCURVE",
"273 594 CURVE SMOOTH",
"273 633 OFFCURVE",
"258 653 OFFCURVE",
"229 653 CURVE SMOOTH",
"204 653 OFFCURVE",
"176 634 OFFCURVE",
"146 595 CURVE SMOOTH",
"113 552 OFFCURVE",
"85 496 OFFCURVE",
"64 427 CURVE SMOOTH",
"39 349 OFFCURVE",
"21 260 OFFCURVE",
"18 167 CURVE",
"21 167 OFFCURVE",
"23 166 OFFCURVE",
"23 161 CURVE SMOOTH",
"23 79 OFFCURVE",
"29 -8 OFFCURVE",
"105 -8 CURVE SMOOTH"
);
},
{
closed = 1;
nodes = (
"96 372 OFFCURVE",
"112 438 OFFCURVE",
"132 498 CURVE SMOOTH",
"164 593 OFFCURVE",
"199 639 OFFCURVE",
"235 639 CURVE SMOOTH",
"254 639 OFFCURVE",
"257 623 OFFCURVE",
"257 597 CURVE SMOOTH",
"257 496 OFFCURVE",
"160 361 OFFCURVE",
"84 299 CURVE"
);
}
);
userData = {
assembly = "NPUSHB[ ]	/* 39 values pushed */\0121 62 62 64 63 0 53 49 47 43 35 31 30 4 2 60 58 57 53 41 31 26 18 0 33 5 37 12 5 10 28 7 6 16 6 1 1 10 70 \012SROUND[ ]	/* SuperRound */\012MDAP[1]	/* MoveDirectAbsPt */\012SHZ[1]	/* ShiftZoneByLastPoint */\012RTG[ ]	/* RoundToGrid */\012SVTCA[0]	/* SetFreedomAndProjectionVectorToAxis */\012MIAP[1]	/* MoveIndirectAbsPt */\012MDAP[1]	/* MoveDirectAbsPt */\012SRP0[ ]	/* SetRefPoint0 */\012MIRP[11101]	/* MoveIndirectRelPt */\012SVTCA[1]	/* SetFreedomAndProjectionVectorToAxis */\012MDAP[1]	/* MoveDirectAbsPt */\012MIRP[11101]	/* MoveIndirectRelPt */\012MDAP[1]	/* MoveDirectAbsPt */\012MIRP[11101]	/* MoveIndirectRelPt */\012MDAP[0]	/* MoveDirectAbsPt */\012MDAP[0]	/* MoveDirectAbsPt */\012MDAP[0]	/* MoveDirectAbsPt */\012MDAP[0]	/* MoveDirectAbsPt */\012MDAP[0]	/* MoveDirectAbsPt */\012MDAP[0]	/* MoveDirectAbsPt */\012MDAP[0]	/* MoveDirectAbsPt */\012MDAP[0]	/* MoveDirectAbsPt */\012MDAP[0]	/* MoveDirectAbsPt */\012SVTCA[0]	/* SetFreedomAndProjectionVectorToAxis */\012MDAP[0]	/* MoveDirectAbsPt */\012MDAP[0]	/* MoveDirectAbsPt */\012MDAP[0]	/* MoveDirectAbsPt */\012MDAP[0]	/* MoveDirectAbsPt */\012MDAP[0]	/* MoveDirectAbsPt */\012MDAP[0]	/* MoveDirectAbsPt */\012MDAP[0]	/* MoveDirectAbsPt */\012MDAP[0]	/* MoveDirectAbsPt */\012MDAP[0]	/* MoveDirectAbsPt */\012IUP[1]	/* InterpolateUntPts */\012IUP[0]	/* InterpolateUntPts */\012SVTCA[1]	/* SetFreedomAndProjectionVectorToAxis */\012MD[0]	/* MeasureDistance */\012ROUND[00]	/* Round */\012PUSHW[ ]	/* 2 values pushed */\01210 62 \012MD[0]	/* MeasureDistance */\012ROUND[00]	/* Round */\012SUB[ ]	/* Subtract */\012PUSHB[ ]	/* 1 value pushed */\01264 \012GT[ ]	/* GreaterThan */\012IF[ ]	/* If */\012SHPIX[ ]	/* ShiftZoneByPixel */\012SRP1[ ]	/* SetRefPoint1 */\012SHZ[1]	/* ShiftZoneByLastPoint */\012PUSHW[ ]	/* 2 values pushed */\01262 -64 \012SHPIX[ ]	/* ShiftZoneByPixel */\012EIF[ ]	/* EndIf */";
};
width = 290;
}
);
note = b;
unicode = 0062;
},
{
glyphname = c;
lastChange = "2022-03-02 21:03:53 +0000";
layers = (
{
layerId = "423D2297-FAE2-4393-80D6-0A1E9777D337";
paths = (
{
closed = 1;
nodes = (
"198 -8 OFFCURVE",
"244 78 OFFCURVE",
"261 167 CURVE SMOOTH",
"262 171 OFFCURVE",
"261 176 OFFCURVE",
"256 176 CURVE SMOOTH",
"253 176 OFFCURVE",
"251 175 OFFCURVE",
"249 167 CURVE SMOOTH",
"234 89 OFFCURVE",
"188 6 OFFCURVE",
"125 6 CURVE SMOOTH",
"76 6 OFFCURVE",
"65 65 OFFCURVE",
"65 136 CURVE SMOOTH",
"65 221 OFFCURVE",
"100 331 OFFCURVE",
"153 331 CURVE SMOOTH",
"174 331 OFFCURVE",
"186 316 OFFCURVE",
"186 286 CURVE SMOOTH",
"186 259 OFFCURVE",
"146 248 OFFCURVE",
"146 213 CURVE SMOOTH",
"146 203 OFFCURVE",
"152 195 OFFCURVE",
"162 195 CURVE SMOOTH",
"189 195 OFFCURVE",
"200 244 OFFCURVE",
"200 276 CURVE SMOOTH",
"200 324 OFFCURVE",
"179 349 OFFCURVE",
"139 349 CURVE SMOOTH",
"67 349 OFFCURVE",
"18 255 OFFCURVE",
"18 158 CURVE SMOOTH",
"18 82 OFFCURVE",
"35 -8 OFFCURVE",
"120 -8 CURVE SMOOTH"
);
}
);
userData = {
assembly = "NPUSHB[ ]	/* 25 values pushed */\0121 52 52 64 53 0 50 34 22 40 32 26 18 10 0 44 7 4 16 2 4 1 1 10 70 \012SROUND[ ]	/* SuperRound */\012MDAP[1]	/* MoveDirectAbsPt */\012SHZ[1]	/* ShiftZoneByLastPoint */\012RTG[ ]	/* RoundToGrid */\012SVTCA[0]	/* SetFreedomAndProjectionVectorToAxis */\012MIAP[1]	/* MoveIndirectAbsPt */\012MIAP[1]	/* MoveIndirectAbsPt */\012SRP0[ ]	/* SetRefPoint0 */\012MIRP[11101]	/* MoveIndirectRelPt */\012SVTCA[1]	/* SetFreedomAndProjectionVectorToAxis */\012MDAP[0]	/* MoveDirectAbsPt */\012MDAP[0]	/* MoveDirectAbsPt */\012MDAP[0]	/* MoveDirectAbsPt */\012MDAP[0]	/* MoveDirectAbsPt */\012MDAP[0]	/* MoveDirectAbsPt */\012MDAP[0]	/* MoveDirectAbsPt */\012SVTCA[0]	/* SetFreedomAndProjectionVectorToAxis */\012MDAP[0]	/* MoveDirectAbsPt */\012MDAP[0]	/* MoveDirectAbsPt */\012MDAP[0]	/* MoveDirectAbsPt */\012IUP[1]	/* InterpolateUntPts */\012IUP[0]	/* InterpolateUntPts */\012SVTCA[1]	/* SetFreedomAndProjectionVectorToAxis */\012MD[0]	/* MeasureDistance */\012ROUND[00]	/* Round */\012PUSHW[ ]	/* 2 values pushed */\01210 52 \012MD[0]	/* MeasureDistance */\012ROUND[00]	/* Round */\012SUB[ ]	/* Subtract */\012PUSHB[ ]	/* 1 value pushed */\01264 \012GT[ ]	/* GreaterThan */\012IF[ ]	/* If */\012SHPIX[ ]	/* ShiftZoneByPixel */\012SRP1[ ]	/* SetRefPoint1 */\012SHZ[1]	/* ShiftZoneByLastPoint */\012PUSHW[ ]	/* 2 values pushed */\01252 -64 \012SHPIX[ ]	/* ShiftZoneByPixel */\012EIF[ ]	/* EndIf */";
};
width = 231;
}
);
note = c;
unicode = 0063;
},
{
glyphname = d;
lastChange = "2022-03-02 21:03:53 +0000";
layers = (
{
background = {
paths = (
{
closed = 0;
nodes = (
"187 116 LINE",
"189 37 OFFCURVE",
"207 -8 OFFCURVE",
"251 -8 CURVE SMOOTH",
"278 -8 OFFCURVE",
"303 14 OFFCURVE",
"326 68 CURVE SMOOTH",
"337 95 OFFCURVE",
"347 127 OFFCURVE",
"356 167 CURVE SMOOTH",
"357 172 OFFCURVE",
"355 174 OFFCURVE",
"351 174 CURVE SMOOTH",
"348 174 OFFCURVE",
"345 172 OFFCURVE",
"344 167 CURVE SMOOTH",
"340 145 OFFCURVE",
"329 105 OFFCURVE",
"316 75 CURVE SMOOTH",
"294 23 OFFCURVE",
"271 5 OFFCURVE",
"251 5 CURVE SMOOTH",
"229 5 OFFCURVE",
"224 55 OFFCURVE",
"224 77 CURVE SMOOTH",
"224 133 OFFCURVE",
"231 183 OFFCURVE",
"244 264 CURVE SMOOTH"
);
}
);
};
layerId = "423D2297-FAE2-4393-80D6-0A1E9777D337";
paths = (
{
closed = 1;
nodes = (
"137 -9 OFFCURVE",
"168 32 OFFCURVE",
"187 116 CURVE",
"189 37 OFFCURVE",
"207 -8 OFFCURVE",
"251 -8 CURVE SMOOTH",
"278 -8 OFFCURVE",
"303 14 OFFCURVE",
"326 68 CURVE SMOOTH",
"337 95 OFFCURVE",
"347 127 OFFCURVE",
"356 167 CURVE SMOOTH",
"357 172 OFFCURVE",
"355 174 OFFCURVE",
"351 174 CURVE SMOOTH",
"348 174 OFFCURVE",
"345 172 OFFCURVE",
"344 167 CURVE SMOOTH",
"340 145 OFFCURVE",
"329 105 OFFCURVE",
"316 75 CURVE SMOOTH",
"294 23 OFFCURVE",
"271 5 OFFCURVE",
"251 5 CURVE SMOOTH",
"231 5 OFFCURVE",
"224 35 OFFCURVE",
"224 79 CURVE SMOOTH",
"224 131 OFFCURVE",
"234 203 OFFCURVE",
"244 265 CURVE SMOOTH",
"248 289 OFFCURVE",
"252 315 OFFCURVE",
"257 342 CURVE SMOOTH",
"284 476 OFFCURVE",
"301 552 OFFCURVE",
"307 570 CURVE SMOOTH",
"308 574 OFFCURVE",
"306 576 OFFCURVE",
"303 576 CURVE SMOOTH",
"302 576 OFFCURVE",
"301 575 OFFCURVE",
"300 574 CURVE",
"292 559 OFFCURVE",
"281 551 OFFCURVE",
"266 551 CURVE SMOOTH",
"261 551 OFFCURVE",
"256 552 OFFCURVE",
"251 553 CURVE",
"202 256 LINE",
"202 281 OFFCURVE",
"197 301 OFFCURVE",
"187 317 CURVE SMOOTH",
"176 335 OFFCURVE",
"159 344 OFFCURVE",
"137 344 CURVE SMOOTH",
"101 344 OFFCURVE",
"71 321 OFFCURVE",
"48 276 CURVE SMOOTH",
"27 235 OFFCURVE",
"17 191 OFFCURVE",
"17 142 CURVE SMOOTH",
"17 53 OFFCURVE",
"49 -9 OFFCURVE",
"98 -9 CURVE SMOOTH"
);
},
{
closed = 1;
nodes = (
"76 -3 OFFCURVE",
"62 67 OFFCURVE",
"62 123 CURVE SMOOTH",
"62 188 OFFCURVE",
"92 332 OFFCURVE",
"142 332 CURVE SMOOTH",
"173 332 OFFCURVE",
"191 284 OFFCURVE",
"191 224 CURVE SMOOTH",
"191 205 OFFCURVE",
"188 188 OFFCURVE",
"185 169 CURVE SMOOTH",
"173 84 OFFCURVE",
"137 8 OFFCURVE",
"106 4 CURVE"
);
}
);
userData = {
assembly = "NPUSHB[ ]	/* 35 values pushed */\0121 60 60 64 61 0 59 57 50 45 43 37 25 23 22 18 9 59 47 45 35 31 5 4 0 54 5 14 29 11 4 1 1 14 70 \012SROUND[ ]	/* SuperRound */\012MDAP[1]	/* MoveDirectAbsPt */\012SHZ[1]	/* ShiftZoneByLastPoint */\012RTG[ ]	/* RoundToGrid */\012SVTCA[0]	/* SetFreedomAndProjectionVectorToAxis */\012MIAP[1]	/* MoveIndirectAbsPt */\012ALIGNRP[ ]	/* AlignRelativePt */\012MDAP[1]	/* MoveDirectAbsPt */\012SVTCA[1]	/* SetFreedomAndProjectionVectorToAxis */\012MDAP[1]	/* MoveDirectAbsPt */\012MIRP[11101]	/* MoveIndirectRelPt */\012MDAP[0]	/* MoveDirectAbsPt */\012MDAP[0]	/* MoveDirectAbsPt */\012MDAP[0]	/* MoveDirectAbsPt */\012MDAP[0]	/* MoveDirectAbsPt */\012MDAP[0]	/* MoveDirectAbsPt */\012MDAP[0]	/* MoveDirectAbsPt */\012MDAP[0]	/* MoveDirectAbsPt */\012MDAP[0]	/* MoveDirectAbsPt */\012SVTCA[0]	/* SetFreedomAndProjectionVectorToAxis */\012MDAP[0]	/* MoveDirectAbsPt */\012MDAP[0]	/* MoveDirectAbsPt */\012MDAP[0]	/* MoveDirectAbsPt */\012MDAP[0]	/* MoveDirectAbsPt */\012MDAP[0]	/* MoveDirectAbsPt */\012MDAP[0]	/* MoveDirectAbsPt */\012MDAP[0]	/* MoveDirectAbsPt */\012MDAP[0]	/* MoveDirectAbsPt */\012MDAP[0]	/* MoveDirectAbsPt */\012MDAP[0]	/* MoveDirectAbsPt */\012MDAP[0]	/* MoveDirectAbsPt */\012IUP[1]	/* InterpolateUntPts */\012IUP[0]	/* InterpolateUntPts */\012SVTCA[1]	/* SetFreedomAndProjectionVectorToAxis */\012MD[0]	/* MeasureDistance */\012ROUND[00]	/* Round */\012PUSHW[ ]	/* 2 values pushed */\01214 60 \012MD[0]	/* MeasureDistance */\012ROUND[00]	/* Round */\012SUB[ ]	/* Subtract */\012PUSHB[ ]	/* 1 value pushed */\01264 \012GT[ ]	/* GreaterThan */\012IF[ ]	/* If */\012SHPIX[ ]	/* ShiftZoneByPixel */\012SRP1[ ]	/* SetRefPoint1 */\012SHZ[1]	/* ShiftZoneByLastPoint */\012PUSHW[ ]	/* 2 values pushed */\01260 -64 \012SHPIX[ ]	/* ShiftZoneByPixel */\012EIF[ ]	/* EndIf */";
};
width = 326;
}
);
note = d;
unicode = 0064;
},
{
glyphname = e;
lastChange = "2022-03-02 21:03:53 +0000";
layers = (
{
layerId = "423D2297-FAE2-4393-80D6-0A1E9777D337";
paths = (
{
closed = 1;
nodes = (
"172 -12 OFFCURVE",
"219 44 OFFCURVE",
"247 167 CURVE SMOOTH",
"248 174 OFFCURVE",
"246 177 OFFCURVE",
"242 177 CURVE SMOOTH",
"239 177 OFFCURVE",
"236 172 OFFCURVE",
"235 167 CURVE SMOOTH",
"213 65 OFFCURVE",
"170 8 OFFCURVE",
"121 8 CURVE SMOOTH",
"117 8 OFFCURVE",
"114 8 OFFCURVE",
"110 9 CURVE SMOOTH",
"77 15 OFFCURVE",
"60 58 OFFCURVE",
"60 138 CURVE",
"129 138 OFFCURVE",
"182 217 OFFCURVE",
"182 288 CURVE SMOOTH",
"182 323 OFFCURVE",
"168 345 OFFCURVE",
"135 345 CURVE SMOOTH",
"107 345 OFFCURVE",
"81 327 OFFCURVE",
"57 290 CURVE SMOOTH",
"30 248 OFFCURVE",
"16 196 OFFCURVE",
"16 136 CURVE SMOOTH",
"16 67 OFFCURVE",
"46 2 OFFCURVE",
"108 -5 CURVE SMOOTH"
);
},
{
closed = 1;
nodes = (
"60 221 OFFCURVE",
"103 329 OFFCURVE",
"142 329 CURVE SMOOTH",
"158 329 OFFCURVE",
"168 317 OFFCURVE",
"168 289 CURVE SMOOTH",
"168 221 OFFCURVE",
"114 150 OFFCURVE",
"61 150 CURVE"
);
}
);
userData = {
assembly = "NPUSHB[ ]	/* 29 values pushed */\0121 38 38 64 39 0 34 33 31 25 20 36 34 33 31 18 14 6 0 28 7 10 10 2 2 1 1 6 70 \012SROUND[ ]	/* SuperRound */\012MDAP[1]	/* MoveDirectAbsPt */\012SHZ[1]	/* ShiftZoneByLastPoint */\012RTG[ ]	/* RoundToGrid */\012SVTCA[0]	/* SetFreedomAndProjectionVectorToAxis */\012MIAP[1]	/* MoveIndirectAbsPt */\012MIAP[1]	/* MoveIndirectAbsPt */\012SRP0[ ]	/* SetRefPoint0 */\012MIRP[11101]	/* MoveIndirectRelPt */\012SVTCA[1]	/* SetFreedomAndProjectionVectorToAxis */\012MDAP[0]	/* MoveDirectAbsPt */\012MDAP[0]	/* MoveDirectAbsPt */\012MDAP[0]	/* MoveDirectAbsPt */\012MDAP[0]	/* MoveDirectAbsPt */\012MDAP[0]	/* MoveDirectAbsPt */\012MDAP[0]	/* MoveDirectAbsPt */\012MDAP[0]	/* MoveDirectAbsPt */\012MDAP[0]	/* MoveDirectAbsPt */\012SVTCA[0]	/* SetFreedomAndProjectionVectorToAxis */\012MDAP[0]	/* MoveDirectAbsPt */\012MDAP[0]	/* MoveDirectAbsPt */\012MDAP[0]	/* MoveDirectAbsPt */\012MDAP[0]	/* MoveDirectAbsPt */\012MDAP[0]	/* MoveDirectAbsPt */\012IUP[1]	/* InterpolateUntPts */\012IUP[0]	/* InterpolateUntPts */\012SVTCA[1]	/* SetFreedomAndProjectionVectorToAxis */\012MD[0]	/* MeasureDistance */\012ROUND[00]	/* Round */\012PUSHW[ ]	/* 2 values pushed */\0126 38 \012MD[0]	/* MeasureDistance */\012ROUND[00]	/* Round */\012SUB[ ]	/* Subtract */\012PUSHB[ ]	/* 1 value pushed */\01264 \012GT[ ]	/* GreaterThan */\012IF[ ]	/* If */\012SHPIX[ ]	/* ShiftZoneByPixel */\012SRP1[ ]	/* SetRefPoint1 */\012SHZ[1]	/* ShiftZoneByLastPoint */\012PUSHW[ ]	/* 2 values pushed */\01238 -64 \012SHPIX[ ]	/* ShiftZoneByPixel */\012EIF[ ]	/* EndIf */";
};
width = 217;
}
);
note = e;
unicode = 0065;
},
{
glyphname = schwa;
lastChange = "2022-03-02 21:03:53 +0000";
layers = (
{
layerId = "423D2297-FAE2-4393-80D6-0A1E9777D337";
paths = (
{
closed = 1;
nodes = (
"162 5 OFFCURVE",
"188 23 OFFCURVE",
"212 60 CURVE SMOOTH",
"239 102 OFFCURVE",
"253 153 OFFCURVE",
"253 214 CURVE SMOOTH",
"253 287 OFFCURVE",
"220 356 OFFCURVE",
"151 356 CURVE SMOOTH",
"83 356 OFFCURVE",
"48 298 OFFCURVE",
"18 167 CURVE SMOOTH",
"17 160 OFFCURVE",
"19 157 OFFCURVE",
"23 157 CURVE SMOOTH",
"26 157 OFFCURVE",
"29 162 OFFCURVE",
"30 167 CURVE SMOOTH",
"56 284 OFFCURVE",
"95 342 OFFCURVE",
"148 342 CURVE SMOOTH",
"188 342 OFFCURVE",
"209 300 OFFCURVE",
"209 212 CURVE",
"140 212 OFFCURVE",
"87 133 OFFCURVE",
"87 62 CURVE SMOOTH",
"87 27 OFFCURVE",
"101 5 OFFCURVE",
"134 5 CURVE SMOOTH"
);
},
{
closed = 1;
nodes = (
"111 21 OFFCURVE",
"101 33 OFFCURVE",
"101 61 CURVE SMOOTH",
"101 129 OFFCURVE",
"155 200 OFFCURVE",
"208 200 CURVE",
"209 129 OFFCURVE",
"166 21 OFFCURVE",
"127 21 CURVE SMOOTH"
);
}
);
width = 287;
}
);
unicode = 0259;
},
